<svg width="512.000000pt" height="512.000000pt" viewBox="0 0 512.000000 512.000000" xmlns="http://www.w3.org/2000/svg">
  <g transform="translate(0.000000,512.000000) scale(0.100000,-0.100000)" fill="#fefefe" stroke="none">
    <path d="M0 2560 l0 -2560 1190 0 1190 0 0 9 c0 4 -30 11 -67 15 -97 10 -281
52 -403 92 -57 19 -149 58 -204 87 l-100 52 -82 77 -81 78 -37 70 c-20 38 -43
100 -51 137 l-15 68 0 605 0 605 11 65 c13 80 51 179 95 246 73 110 198 208
327 255 l62 23 735 6 735 6 70 23 c39 13 106 42 150 64 l80 41 91 91 91 90 41
70 c50 85 89 201 102 298 5 39 10 200 10 355 l0 284 273 -4 272 -5 66 -21
c169 -56 297 -193 380 -406 69 -177 135 -501 147 -721 17 -300 -22 -534 -139
-835 -60 -156 -123 -264 -194 -335 l-55 -55 -61 -31 c-34 -17 -91 -37 -128
-45 l-66 -14 -942 0 -943 0 0 -85 0 -85 611 0 611 0 -4 -282 -4 -283 -23 -60
c-13 -33 -39 -84 -58 -113 -42 -63 -141 -155 -216 -200 -78 -47 -216 -105
-322 -135 -113 -32 -279 -66 -362 -74 -35 -3 -63 -10 -63 -14 l0 -9 1200 0
1200 0 0 2560 0 2560 -1160 0 -1160 0 0 -9 c0 -4 40 -11 88 -14 244 -18 429
-64 557 -139 l70 -41 71 -71 c77 -78 114 -133 153 -235 l26 -66 3 -661 3 -661
-15 -73 c-9 -40 -32 -107 -53 -149 l-37 -76 -80 -80 -81 -81 -70 -36 c-38 -20
-88 -42 -110 -49 l-40 -13 -735 -6 -735 -6 -75 -23 c-41 -12 -111 -41 -155
-64 l-80 -42 -91 -90 -91 -90 -41 -70 c-22 -38 -53 -106 -69 -150 l-28 -80 -3
-353 -3 -352 -230 0 -230 0 -76 16 c-199 41 -359 183 -454 404 -40 93 -97 310
-124 473 -36 218 -36 467 0 683 25 148 70 331 101 408 52 130 164 274 271 347
59 41 172 92 253 115 l65 18 903 4 902 3 0 84 0 85 -611 0 -611 0 5 308 5 307
12 50 c7 28 25 77 40 110 l29 60 52 52 c110 110 297 176 622 218 61 8 130 15
154 15 l43 0 0 10 0 10 -1150 0 -1150 0 0 -2560z" />
    <path d="M1762 4729 c-56 -28 -99 -81 -118 -147 l-16 -54 7 -46 c10 -64 37
-113 86 -155 l42 -36 53 -11 53 -11 38 7 c81 15 148 66 177 136 l16 37 0 68 0
67 -21 43 c-25 51 -76 96 -128 112 -21 6 -63 11 -92 11 l-54 0 -43 -21z" />
    <path d="M3190 871 c-51 -11 -94 -36 -125 -73 -41 -48 -55 -90 -55 -161 l0
-63 25 -51 c42 -84 109 -123 208 -123 l62 0 41 19 c22 10 56 37 76 60 l36 42
11 44 c22 87 8 163 -43 229 -45 60 -152 95 -236 77z" />
  </g>
  <g transform="translate(0.000000,512.000000) scale(0.100000,-0.100000)" fill="#3c79aa" stroke="none">
    <path d="M2715 4531 c-253 -297 -461 -544 -463 -550 l-4 -11 151 0 151 0 0
-60 0 -60 13 0 c8 0 217 239 466 530 l452 530 19 0 c36 0 21 19 -47 59 -62 36
-231 101 -265 101 -7 0 -220 -243 -473 -539z" />
    <path d="M3530 4896 c0 -9 7 -16 16 -16 9 0 14 5 12 12 -6 18 -28 21 -28 4z" />
    <path d="M3740 4575 c0 -8 7 -15 15 -15 l14 0 -5 15 c-4 8 -10 15 -15 15 -5 0
-9 -7 -9 -15z" />
    <path d="M1177 2728 l-929 -1090 6 -25 c4 -13 41 -59 84 -102 l77 -78 53 -27
52 -26 0 14 c0 8 -4 16 -10 18 -5 2 447 538 1005 1193 558 655 1015 1196 1015
1203 l0 12 -212 -1 -213 0 -928 -1091z" />
    <path d="M1708 2633 c-10 -2 -18 -11 -18 -18 l0 -14 30 10 c17 6 30 15 30 20
0 9 -12 10 -42 2z" />
    <path d="M1540 2550 c0 -5 -7 -10 -15 -10 -8 0 -15 -4 -15 -10 0 -5 -7 -10
-15 -10 -8 0 -15 -7 -15 -16 0 -18 1 -17 53 15 38 24 48 41 22 41 -8 0 -15 -4
-15 -10z" />
    <path d="M1420 2454 c0 -9 5 -14 12 -12 18 6 21 28 4 28 -9 0 -16 -7 -16 -16z" />
    <path d="M1363 2405 c-3 -9 -3 -19 1 -22 7 -7 36 16 36 28 0 15 -30 10 -37 -6z" />
    <path d="M1260 2254 c0 -9 5 -14 12 -12 18 6 21 28 4 28 -9 0 -16 -7 -16 -16z" />
    <path d="M1230 2195 c0 -8 4 -15 9 -15 5 0 11 7 15 15 l5 15 -14 0 c-8 0 -15
-7 -15 -15z" />
    <path d="M1190 2085 c0 -8 4 -15 9 -15 5 0 11 7 15 15 l5 15 -14 0 c-8 0 -15
-7 -15 -15z" />
    <path d="M1180 2045 c0 -8 4 -15 9 -15 5 0 11 7 15 15 l5 15 -14 0 c-8 0 -15
-7 -15 -15z" />
    <path d="M660 1350 c0 -5 7 -10 15 -10 8 0 15 5 15 10 0 6 -7 10 -15 10 -8 0
-15 -4 -15 -10z" />
  </g>
  <g transform="translate(0.000000,512.000000) scale(0.100000,-0.100000)" fill="#fee772" stroke="none">
    <path d="M3927 3488 l-4 -333 -11 -34 -11 -33 18 5 c23 6 831 579 831 590 0
15 -126 88 -189 109 l-66 22 -281 4 -282 4 -5 -334z" />
    <path d="M4792 3613 c2 -10 11 -19 21 -21 l18 -4 -13 21 c-16 25 -31 27 -26 4z" />
    <path d="M4860 3520 c0 -21 45 -100 57 -100 l13 0 -27 55 c-25 50 -43 70 -43
45z" />
    <path d="M4920 3385 c0 -8 7 -15 15 -15 l14 0 -5 15 c-4 8 -10 15 -15 15 -5 0
-9 -7 -9 -15z" />
    <path d="M4970 3235 c0 -8 5 -15 10 -15 6 0 10 7 10 15 0 8 -4 15 -10 15 -5 0
-10 -7 -10 -15z" />
    <path d="M4980 3195 c0 -8 5 -15 10 -15 6 0 10 7 10 15 0 8 -4 15 -10 15 -5 0
-10 -7 -10 -15z" />
    <path d="M4990 3155 c0 -8 5 -15 10 -15 6 0 10 7 10 15 0 8 -4 15 -10 15 -5 0
-10 -7 -10 -15z" />
    <path d="M5000 3115 c0 -8 5 -15 10 -15 6 0 10 7 10 15 0 8 -4 15 -10 15 -5 0
-10 -7 -10 -15z" />
    <path d="M3883 3025 l-21 -55 13 0 c7 0 20 21 29 47 18 53 19 63 7 63 -4 0
-17 -25 -28 -55z" />
    <path d="M5010 3065 c0 -8 5 -15 10 -15 6 0 10 7 10 15 0 8 -4 15 -10 15 -5 0
-10 -7 -10 -15z" />
    <path d="M5030 2965 c0 -8 5 -15 10 -15 6 0 10 7 10 15 0 8 -4 15 -10 15 -5 0
-10 -7 -10 -15z" />
    <path d="M5040 2915 c0 -8 5 -15 10 -15 6 0 10 7 10 15 0 8 -4 15 -10 15 -5 0
-10 -7 -10 -15z" />
    <path d="M3802 2860 l-23 -40 16 0 c8 0 15 5 15 11 0 6 7 17 15 25 16 16 20
44 8 44 -5 0 -18 -18 -31 -40z" />
    <path d="M5050 2845 c0 -8 5 -15 10 -15 6 0 10 7 10 15 0 8 -4 15 -10 15 -5 0
-10 -7 -10 -15z" />
    <path d="M3756 2795 l-5 -15 14 0 c8 0 15 7 15 15 0 8 -4 15 -9 15 -5 0 -11
-7 -15 -15z" />
    <path d="M5060 2775 c0 -8 5 -15 10 -15 6 0 10 7 10 15 0 8 -4 15 -10 15 -5 0
-10 -7 -10 -15z" />
    <path d="M3697 2733 c-12 -11 -8 -23 8 -23 8 0 15 7 15 15 0 16 -12 20 -23 8z" />
    <path d="M3610 2650 l-35 -29 18 -1 c9 0 17 4 17 9 0 5 9 11 20 14 11 3 20 12
20 21 0 9 -1 16 -3 16 -1 0 -18 -13 -37 -30z" />
    <path d="M5070 2660 c0 -11 5 -20 10 -20 6 0 10 9 10 20 0 11 -4 20 -10 20 -5
0 -10 -9 -10 -20z" />
    <path d="M3533 2603 c-18 -7 -16 -23 2 -23 8 0 15 7 15 15 0 8 -1 15 -2 14 -2
0 -9 -3 -15 -6z" />
    <path d="M3453 2563 c-18 -7 -16 -23 2 -23 8 0 15 7 15 15 0 8 -1 15 -2 14 -2
0 -9 -3 -15 -6z" />
    <path d="M3388 2538 c-16 -5 -28 -14 -28 -20 l0 -10 27 7 c33 8 36 11 32 23
l-4 9 -27 -9z" />
    <path d="M3320 2510 c0 -5 7 -10 15 -10 8 0 15 5 15 10 0 6 -7 10 -15 10 -8 0
-15 -4 -15 -10z" />
    <path d="M1835 2490 c-62 -13 -146 -47 -203 -83 -68 -42 -153 -126 -196 -191
-44 -67 -82 -166 -95 -246 l-11 -65 0 -323 0 -323 19 3 c27 4 1720 1210 1720
1226 l1 12 -597 -1 c-329 -1 -616 -5 -638 -9z" />
    <path d="M3180 2490 c0 -5 11 -10 25 -10 14 0 25 5 25 10 0 6 -11 10 -25 10
-14 0 -25 -4 -25 -10z" />
    <path d="M5070 2400 c0 -11 5 -20 10 -20 6 0 10 9 10 20 0 11 -4 20 -10 20 -5
0 -10 -9 -10 -20z" />
    <path d="M5060 2295 c0 -8 5 -15 10 -15 6 0 10 7 10 15 0 8 -4 15 -10 15 -5 0
-10 -7 -10 -15z" />
    <path d="M5050 2225 c0 -8 5 -15 10 -15 6 0 10 7 10 15 0 8 -4 15 -10 15 -5 0
-10 -7 -10 -15z" />
    <path d="M5040 2175 c0 -8 5 -15 10 -15 6 0 10 7 10 15 0 8 -4 15 -10 15 -5 0
-10 -7 -10 -15z" />
    <path d="M5020 2085 c0 -8 5 -15 10 -15 6 0 10 7 10 15 0 8 -4 15 -10 15 -5 0
-10 -7 -10 -15z" />
    <path d="M4940 1835 c0 -8 5 -15 10 -15 6 0 10 7 10 15 0 8 -4 15 -10 15 -5 0
-10 -7 -10 -15z" />
    <path d="M4920 1785 c0 -8 5 -15 10 -15 6 0 10 7 10 15 0 8 -4 15 -10 15 -5 0
-10 -7 -10 -15z" />
    <path d="M4890 1715 c0 -8 4 -15 9 -15 5 0 11 7 15 15 l5 15 -14 0 c-8 0 -15
-7 -15 -15z" />
    <path d="M4690 1434 l0 -16 15 12 c8 7 15 14 15 16 0 2 -7 4 -15 4 -8 0 -15
-7 -15 -16z" />
    <path d="M4610 1390 c0 -5 4 -10 9 -10 6 0 13 5 16 10 l6 10 -15 0 c-9 0 -16
-4 -16 -10z" />
    <path d="M4560 1370 c0 -5 7 -10 15 -10 8 0 15 5 15 10 0 6 -7 10 -15 10 -8 0
-15 -4 -15 -10z" />
    <path d="M4480 1350 c0 -5 7 -10 15 -10 8 0 15 5 15 10 0 6 -7 10 -15 10 -8 0
-15 -4 -15 -10z" />
    <path d="M2540 1334 c0 -9 5 -14 12 -12 18 6 21 28 4 28 -9 0 -16 -7 -16 -16z" />
    <path d="M3760 930 l0 -250 10 0 10 0 0 250 0 250 -10 0 -10 0 0 -250z" />
    <path d="M3280 872 c0 -11 49 -26 58 -17 8 7 0 12 -31 20 l-27 7 0 -10z" />
    <path d="M3350 846 c0 -2 7 -9 15 -16 l15 -12 0 16 c0 9 -7 16 -15 16 -8 0
-15 -2 -15 -4z" />
    <path d="M3050 784 l0 -16 15 12 c8 7 15 14 15 16 0 2 -7 4 -15 4 -8 0 -15 -7
-15 -16z" />
    <path d="M3010 715 c0 -8 5 -15 10 -15 6 0 10 7 10 15 0 8 -4 15 -10 15 -5 0
-10 -7 -10 -15z" />
    <path d="M3000 675 c0 -8 5 -15 10 -15 6 0 10 7 10 15 0 8 -4 15 -10 15 -5 0
-10 -7 -10 -15z" />
    <path d="M1340 635 c0 -8 5 -15 10 -15 6 0 10 7 10 15 0 8 -4 15 -10 15 -5 0
-10 -7 -10 -15z" />
    <path d="M3750 605 c0 -8 5 -15 10 -15 6 0 10 7 10 15 0 8 -4 15 -10 15 -5 0
-10 -7 -10 -15z" />
    <path d="M1350 585 c0 -8 5 -15 10 -15 6 0 10 7 10 15 0 8 -4 15 -10 15 -5 0
-10 -7 -10 -15z" />
    <path d="M3456 564 c-4 -15 -5 -29 -1 -32 7 -8 12 0 20 31 l7 27 -10 0 c-5 0
-13 -12 -16 -26z" />
    <path d="M3740 565 c0 -8 5 -15 10 -15 6 0 10 7 10 15 0 8 -4 15 -10 15 -5 0
-10 -7 -10 -15z" />
    <path d="M3020 535 c0 -8 7 -15 15 -15 l14 0 -5 15 c-4 8 -10 15 -15 15 -5 0
-9 -7 -9 -15z" />
    <path d="M3706 484 c-3 -9 -6 -20 -6 -26 l0 -10 15 12 c16 14 20 40 6 40 -5 0
-12 -7 -15 -16z" />
    <path d="M3370 445 l-12 -15 16 0 c9 0 16 7 16 15 0 8 -2 15 -4 15 -2 0 -9 -7
-16 -15z" />
    <path d="M3130 420 c0 -5 7 -10 15 -10 8 0 15 5 15 10 0 6 -7 10 -15 10 -8 0
-15 -4 -15 -10z" />
    <path d="M3190 400 c0 -5 7 -10 15 -10 8 0 15 5 15 10 0 6 -7 10 -15 10 -8 0
-15 -4 -15 -10z" />
    <path d="M1450 386 c0 -2 7 -9 15 -16 l15 -12 0 16 c0 9 -7 16 -15 16 -8 0
-15 -2 -15 -4z" />
    <path d="M3630 364 l0 -16 15 12 c8 7 15 14 15 16 0 2 -7 4 -15 4 -8 0 -15 -7
-15 -16z" />
    <path d="M3573 315 c-9 -25 2 -27 22 -5 l18 20 -17 0 c-9 0 -19 -7 -23 -15z" />
    <path d="M1520 316 c0 -2 7 -9 15 -16 l15 -12 0 16 c0 9 -7 16 -15 16 -8 0
-15 -2 -15 -4z" />
    <path d="M1570 276 c0 -2 7 -9 15 -16 l15 -12 0 16 c0 9 -7 16 -15 16 -8 0
-15 -2 -15 -4z" />
    <path d="M3490 250 c0 -5 -7 -10 -15 -10 -8 0 -15 -7 -15 -16 l0 -15 30 21
c17 12 30 23 30 26 0 2 -7 4 -15 4 -8 0 -15 -4 -15 -10z" />
    <path d="M1630 236 c0 -2 7 -9 15 -16 l15 -12 0 16 c0 9 -7 16 -15 16 -8 0
-15 -2 -15 -4z" />
    <path d="M1790 150 c0 -5 7 -10 15 -10 8 0 15 5 15 10 0 6 -7 10 -15 10 -8 0
-15 -4 -15 -10z" />
    <path d="M1870 122 c0 -11 49 -26 58 -17 8 7 0 12 -31 20 l-27 7 0 -10z" />
    <path d="M3150 100 c0 -5 7 -10 15 -10 8 0 15 5 15 10 0 6 -7 10 -15 10 -8 0
-15 -4 -15 -10z" />
    <path d="M1970 90 c0 -5 7 -10 15 -10 8 0 15 5 15 10 0 6 -7 10 -15 10 -8 0
-15 -4 -15 -10z" />
    <path d="M3080 80 c0 -5 7 -10 15 -10 8 0 15 5 15 10 0 6 -7 10 -15 10 -8 0
-15 -4 -15 -10z" />
    <path d="M3040 70 c0 -5 7 -10 15 -10 8 0 15 5 15 10 0 6 -7 10 -15 10 -8 0
-15 -4 -15 -10z" />
    <path d="M2130 50 c0 -5 7 -10 15 -10 8 0 15 5 15 10 0 6 -7 10 -15 10 -8 0
-15 -4 -15 -10z" />
    <path d="M2950 50 c0 -5 7 -10 15 -10 8 0 15 5 15 10 0 6 -7 10 -15 10 -8 0
-15 -4 -15 -10z" />
    <path d="M2180 40 c0 -5 7 -10 15 -10 8 0 15 5 15 10 0 6 -7 10 -15 10 -8 0
-15 -4 -15 -10z" />
    <path d="M2900 40 c0 -5 7 -10 15 -10 8 0 15 5 15 10 0 6 -7 10 -15 10 -8 0
-15 -4 -15 -10z" />
    <path d="M2240 30 c0 -5 7 -10 15 -10 8 0 15 5 15 10 0 6 -7 10 -15 10 -8 0
-15 -4 -15 -10z" />
    <path d="M2320 20 c0 -5 7 -10 15 -10 8 0 15 5 15 10 0 6 -7 10 -15 10 -8 0
-15 -4 -15 -10z" />
    <path d="M2760 20 c0 -5 7 -10 15 -10 8 0 15 5 15 10 0 6 -7 10 -15 10 -8 0
-15 -4 -15 -10z" />
    <path d="M2430 10 c0 -5 7 -10 15 -10 8 0 15 5 15 10 0 6 -7 10 -15 10 -8 0
-15 -4 -15 -10z" />
    <path d="M2640 10 c0 -5 9 -10 20 -10 11 0 20 5 20 10 0 6 -9 10 -20 10 -11 0
-20 -4 -20 -10z" />
  </g>
  <g transform="translate(0.000000,512.000000) scale(0.100000,-0.100000)" fill="#fedf5a" stroke="none">
    <path d="M3145 1976 l-1810 -1293 3 -19 c2 -10 3 -26 3 -34 1 -8 3 -22 6 -30
3 -8 7 -25 9 -38 1 -12 20 -55 41 -94 37 -69 63 -96 63 -65 l0 15 537 383 537
383 4 -12 c2 -7 10 -12 18 -12 14 0 19 12 8 23 -3 3 -7 38 -7 79 l-2 73 95 0
95 0 1152 820 1152 820 -6 35 c-3 19 -8 40 -12 45 -3 6 -4 17 -3 27 2 9 -2 19
-7 22 -6 4 -8 13 -5 20 3 8 1 17 -5 20 -6 4 -8 13 -5 20 3 8 0 17 -5 21 -6 3
-9 11 -6 16 4 5 3 15 -2 22 -4 6 -8 19 -8 27 0 8 -7 16 -15 17 -8 1 -829 -580
-1825 -1291z" />
    <path d="M5050 2836 c0 -9 5 -16 10 -16 6 0 10 4 10 9 0 6 -4 13 -10 16 l-10
6 0 -15z" />
    <path d="M5060 2755 c0 -8 5 -15 10 -15 6 0 10 7 10 15 0 8 -4 15 -10 15 -5 0
-10 -7 -10 -15z" />
    <path d="M5070 2425 c0 -8 5 -15 10 -15 6 0 10 7 10 15 0 8 -4 15 -10 15 -5 0
-10 -7 -10 -15z" />
    <path d="M5030 2135 c0 -8 5 -15 10 -15 6 0 10 7 10 15 0 8 -4 15 -10 15 -5 0
-10 -7 -10 -15z" />
    <path d="M4960 1895 c0 -8 4 -15 9 -15 5 0 11 7 15 15 l5 15 -14 0 c-8 0 -15
-7 -15 -15z" />
    <path d="M4872 1685 c-14 -30 -15 -45 -4 -45 5 0 16 16 25 35 l17 35 -14 0
c-7 0 -18 -11 -24 -25z" />
    <path d="M4800 1555 c0 -8 4 -15 9 -15 5 0 11 7 15 15 l5 15 -14 0 c-8 0 -15
-7 -15 -15z" />
    <path d="M4520 1360 c0 -5 7 -10 15 -10 8 0 15 5 15 10 0 6 -7 10 -15 10 -8 0
-15 -4 -15 -10z" />
    <path d="M4470 1350 c0 -5 4 -10 9 -10 6 0 13 5 16 10 l6 10 -15 0 c-9 0 -16
-4 -16 -10z" />
    <path d="M2600 1170 l0 -10 250 0 250 0 0 10 0 10 -250 0 -250 0 0 -10z" />
    <path d="M3158 873 c-10 -2 -18 -10 -18 -18 l0 -13 30 11 c47 18 38 33 -12 20z" />
    <path d="M3405 800 c20 -22 31 -20 22 5 -4 8 -14 15 -23 15 l-17 0 18 -20z" />
    <path d="M3040 775 c0 -8 5 -15 10 -15 6 0 10 7 10 15 0 8 -4 15 -10 15 -5 0
-10 -7 -10 -15z" />
    <path d="M3470 635 c0 -14 5 -25 10 -25 6 0 10 11 10 25 0 14 -4 25 -10 25 -5
0 -10 -11 -10 -25z" />
    <path d="M3750 614 l0 -15 10 6 c6 3 10 10 10 16 0 5 -4 9 -10 9 -5 0 -10 -7
-10 -16z" />
    <path d="M3080 455 c0 -8 7 -15 15 -15 8 0 15 4 15 9 0 5 -7 11 -15 15 l-15 5
0 -14z" />
    <path d="M3343 433 c-18 -7 -16 -23 2 -23 8 0 15 7 15 15 0 8 -1 15 -2 14 -2
0 -9 -3 -15 -6z" />
    <path d="M3610 344 l0 -16 15 12 c8 7 15 14 15 16 0 2 -7 4 -15 4 -8 0 -15 -7
-15 -16z" />
    <path d="M1560 280 c0 -5 7 -10 15 -10 8 0 15 5 15 10 0 6 -7 10 -15 10 -8 0
-15 -4 -15 -10z" />
    <path d="M3530 274 l0 -16 15 12 c8 7 15 14 15 16 0 2 -7 4 -15 4 -8 0 -15 -7
-15 -16z" />
    <path d="M1650 221 c0 -5 7 -11 15 -15 l15 -5 0 14 c0 8 -7 15 -15 15 -8 0
-15 -4 -15 -9z" />
    <path d="M1770 161 c0 -5 7 -11 15 -15 l15 -5 0 14 c0 8 -7 15 -15 15 -8 0
-15 -4 -15 -9z" />
    <path d="M3240 125 l0 -14 15 5 c8 4 15 10 15 15 0 5 -7 9 -15 9 -8 0 -15 -7
-15 -15z" />
    <path d="M3180 110 c0 -5 7 -10 15 -10 8 0 15 5 15 10 0 6 -7 10 -15 10 -8 0
-15 -4 -15 -10z" />
    <path d="M2010 80 c0 -5 7 -10 15 -10 8 0 15 5 15 10 0 6 -7 10 -15 10 -8 0
-15 -4 -15 -10z" />
    <path d="M2145 50 c3 -5 10 -10 16 -10 5 0 9 5 9 10 0 6 -7 10 -16 10 l-15 0
6 -10z" />
    <path d="M2195 40 c3 -5 10 -10 16 -10 5 0 9 5 9 10 0 6 -7 10 -16 10 l-15 0
6 -10z" />
    <path d="M2335 20 c3 -5 10 -10 16 -10 5 0 9 5 9 10 0 6 -7 10 -16 10 l-15 0
6 -10z" />
    <path d="M2470 10 c0 -5 7 -10 15 -10 8 0 15 5 15 10 0 6 -7 10 -15 10 -8 0
-15 -4 -15 -10z" />
    <path d="M2610 10 c0 -5 7 -10 15 -10 8 0 15 5 15 10 0 6 -7 10 -15 10 -8 0
-15 -4 -15 -10z" />
  </g>
  <g transform="translate(0.000000,512.000000) scale(0.100000,-0.100000)" fill="#407daf" stroke="none">
    <path d="M2364 4548 c-263 -309 -480 -565 -482 -570 -2 -4 81 -8 185 -8 l189
0 466 548 467 547 -22 7 c-26 8 -257 38 -296 38 l-27 0 -480 -562z" />
    <path d="M3207 5059 c7 -7 15 -10 18 -7 3 3 -2 9 -12 12 l-18 7 12 -12z" />
    <path d="M3357 5009 c7 -7 15 -10 18 -7 3 3 -2 9 -12 12 l-18 7 12 -12z" />
    <path d="M3437 4969 c7 -7 15 -10 18 -7 3 3 -2 9 -12 12 l-18 7 12 -12z" />
    <path d="M949 2889 c-437 -512 -802 -941 -811 -954 l-18 -22 21 -64 c24 -74
80 -195 102 -224 l16 -20 1 13 c0 7 415 499 923 1095 508 595 926 1088 931
1095 l7 12 -189 0 -188 0 -795 -931z" />
    <path d="M1900 2660 c0 -5 9 -10 20 -10 11 0 20 5 20 10 0 6 -9 10 -20 10 -11
0 -20 -4 -20 -10z" />
    <path d="M1397 2440 c-10 -12 -15 -26 -11 -31 l6 -11 24 23 c13 12 21 26 18
30 -8 14 -18 11 -37 -11z" />
    <path d="M1250 2235 c0 -8 4 -15 9 -15 5 0 11 7 15 15 l5 15 -14 0 c-8 0 -15
-7 -15 -15z" />
    <path d="M1170 1985 c0 -8 5 -15 10 -15 6 0 10 7 10 15 0 8 -4 15 -10 15 -5 0
-10 -7 -10 -15z" />
    <path d="M385 1460 c3 -5 11 -10 16 -10 6 0 7 5 4 10 -3 6 -11 10 -16 10 -6 0
-7 -4 -4 -10z" />
    <path d="M510 1391 c0 -5 7 -11 15 -15 l15 -5 0 14 c0 8 -7 15 -15 15 -8 0
-15 -4 -15 -9z" />
  </g>
  <g transform="translate(0.000000,512.000000) scale(0.100000,-0.100000)" fill="#3975a5" stroke="none">
    <path d="M3478 4937 c-5 -23 -910 -1077 -919 -1071 -5 3 -9 -6 -9 -20 l0 -26
-21 0 c-11 0 -18 -4 -15 -8 4 -6 -945 -1125 -1969 -2323 -44 -51 -74 -90 -67
-86 l12 8 0 -11 c0 -6 5 -8 10 -5 6 3 10 1 10 -5 0 -6 5 -8 10 -5 6 3 10 2 10
-4 0 -12 69 -33 118 -36 18 -1 36 -5 39 -9 3 -3 34 -6 68 -6 l61 0 188 220
187 220 -1 108 c-1 59 1 115 5 124 4 10 5 25 1 33 l-5 15 10 0 11 0 -5 20 c-3
11 -2 20 2 20 7 0 35 74 36 95 0 6 3 12 7 15 3 3 8 12 10 19 2 8 9 21 16 30
36 44 100 140 96 144 -2 2 4 10 13 18 l18 14 -15 -20 c-8 -11 0 -7 18 9 34 32
44 48 15 25 l-18 -14 14 17 c7 10 16 16 20 13 4 -2 27 14 52 37 24 22 45 40
47 39 11 -5 22 1 17 9 -4 6 -2 9 2 8 11 -3 137 54 141 64 2 4 10 4 18 1 8 -3
14 -1 14 3 0 5 10 10 23 10 12 1 51 7 87 13 36 7 74 13 85 13 l20 1 865 1014
c476 557 871 1024 879 1037 l15 23 -38 51 c-37 51 -133 144 -166 162 l-19 10
-3 -13z" />
    <path d="M3720 4635 c0 -8 7 -15 15 -15 l14 0 -5 15 c-4 8 -10 15 -15 15 -5 0
-9 -7 -9 -15z" />
    <path d="M3750 4525 c0 -8 5 -15 10 -15 6 0 10 7 10 15 0 8 -4 15 -10 15 -5 0
-10 -7 -10 -15z" />
    <path d="M3413 2728 c-13 -6 -23 -17 -23 -24 l0 -14 35 17 c35 17 47 34 23 32
-7 0 -23 -5 -35 -11z" />
  </g>
  <g transform="translate(0.000000,512.000000) scale(0.100000,-0.100000)" fill="#fee262" stroke="none">
    <path d="M3100 2230 l-1765 -1260 -3 -156 -3 -155 38 29 c21 17 841 602 1823
1302 982 700 1786 1274 1788 1275 5 5 -31 115 -38 115 -3 0 -7 10 -7 22 -1 13
-7 24 -13 26 -5 2 -8 8 -4 13 3 5 0 9 -6 9 -6 0 -8 5 -5 10 3 6 1 10 -5 10 -6
0 -8 5 -5 10 l6 10 -18 -1 c-10 0 -812 -567 -1783 -1259z" />
    <path d="M5015 3100 c3 -5 8 -10 11 -10 3 0 2 5 -1 10 -3 6 -8 10 -11 10 -3 0
-2 -4 1 -10z" />
    <path d="M5070 2635 c0 -8 5 -15 10 -15 6 0 10 7 10 15 0 8 -4 15 -10 15 -5 0
-10 -7 -10 -15z" />
    <path d="M5070 2414 l0 -15 10 6 c6 4 8 11 5 16 -9 14 -15 11 -15 -7z" />
    <path d="M5060 2304 l0 -15 10 6 c6 3 10 10 10 16 0 5 -4 9 -10 9 -5 0 -10 -7
-10 -16z" />
    <path d="M5050 2234 l0 -15 10 6 c6 3 10 10 10 16 0 5 -4 9 -10 9 -5 0 -10 -7
-10 -16z" />
    <path d="M4990 1985 c0 -8 5 -15 10 -15 6 0 10 7 10 15 0 8 -4 15 -10 15 -5 0
-10 -7 -10 -15z" />
    <path d="M4820 1585 c0 -8 4 -15 9 -15 5 0 11 7 15 15 l5 15 -14 0 c-8 0 -15
-7 -15 -15z" />
    <path d="M4700 1450 c0 -5 4 -10 9 -10 6 0 13 5 16 10 l6 10 -15 0 c-9 0 -16
-4 -16 -10z" />
    <path d="M4660 1415 l0 -14 15 5 c8 4 15 10 15 15 0 5 -7 9 -15 9 -8 0 -15 -7
-15 -15z" />
    <path d="M2553 1173 l0 -13 34 0 34 0 -5 9 c-3 5 -19 11 -34 13 l-29 4 0 -13z" />
    <path d="M3120 845 l0 -14 15 5 c8 4 15 10 15 15 0 5 -7 9 -15 9 -8 0 -15 -7
-15 -15z" />
    <path d="M3460 705 c0 -8 5 -15 10 -15 6 0 10 7 10 15 0 8 -4 15 -10 15 -5 0
-10 -7 -10 -15z" />
    <path d="M3475 641 c-3 -5 -1 -12 5 -16 l10 -6 0 15 c0 18 -6 21 -15 7z" />
    <path d="M1362 539 c6 -16 12 -28 14 -26 5 5 -13 57 -20 57 -3 0 0 -14 6 -31z" />
    <path d="M3030 515 c0 -8 7 -15 15 -15 l14 0 -5 15 c-4 8 -10 15 -15 15 -5 0
-9 -7 -9 -15z" />
    <path d="M3426 505 l-5 -15 14 0 c8 0 15 7 15 15 0 8 -4 15 -9 15 -5 0 -11 -7
-15 -15z" />
    <path d="M3060 478 c0 -18 18 -34 28 -24 3 4 -2 14 -11 23 l-17 17 0 -16z" />
    <path d="M1396 467 c3 -10 9 -15 12 -12 3 3 0 11 -7 18 l-12 12 7 -18z" />
    <path d="M3150 415 c0 -8 7 -15 15 -15 8 0 15 4 15 9 0 5 -7 11 -15 15 l-15 5
0 -14z" />
    <path d="M3660 404 l0 -16 15 12 c8 7 15 14 15 16 0 2 -7 4 -15 4 -8 0 -15 -7
-15 -16z" />
    <path d="M1495 340 l30 -31 3 11 c5 15 -27 50 -46 50 l-16 0 29 -30z" />
    <path d="M3600 334 l0 -15 10 6 c6 3 10 10 10 16 0 5 -4 9 -10 9 -5 0 -10 -7
-10 -16z" />
    <path d="M3440 215 l0 -14 15 5 c8 4 15 10 15 15 0 5 -7 9 -15 9 -8 0 -15 -7
-15 -15z" />
    <path d="M2050 70 c0 -5 7 -10 15 -10 8 0 15 5 15 10 0 6 -7 10 -15 10 -8 0
-15 -4 -15 -10z" />
    <path d="M2090 60 c0 -5 7 -10 15 -10 8 0 15 5 15 10 0 6 -7 10 -15 10 -8 0
-15 -4 -15 -10z" />
    <path d="M2990 60 c0 -5 7 -10 15 -10 8 0 15 5 15 10 0 6 -7 10 -15 10 -8 0
-15 -4 -15 -10z" />
    <path d="M2890 40 c0 -5 4 -10 9 -10 6 0 13 5 16 10 l6 10 -15 0 c-9 0 -16 -4
-16 -10z" />
    <path d="M2255 30 c3 -5 10 -10 16 -10 5 0 9 5 9 10 0 6 -7 10 -16 10 l-15 0
6 -10z" />
    <path d="M2830 30 c0 -5 7 -10 15 -10 8 0 15 5 15 10 0 6 -7 10 -15 10 -8 0
-15 -4 -15 -10z" />
    <path d="M2750 20 c0 -5 4 -10 9 -10 6 0 13 5 16 10 l6 10 -15 0 c-9 0 -16 -4
-16 -10z" />
    <path d="M2450 10 c0 -13 27 -13 35 0 l6 10 -20 0 c-12 0 -21 -4 -21 -10z" />
    <path d="M2625 10 c3 -5 10 -10 16 -10 5 0 9 5 9 10 0 6 -7 10 -16 10 l-15 0
6 -10z" />
  </g>
  <g transform="translate(0.000000,512.000000) scale(0.100000,-0.100000)" fill="#fedc52" stroke="none">
    <path d="M3904 2179 c-627 -446 -1148 -820 -1159 -830 l-19 -19 223 0 223 0
959 683 959 682 -6 25 c-3 14 -5 39 -5 55 0 17 -3 37 -6 45 -6 14 -11 61 -13
107 0 12 -5 25 -10 28 -5 3 -7 12 -3 20 3 8 3 15 0 15 -2 0 -517 -365 -1143
-811z" />
    <path d="M5070 2626 c0 -9 5 -16 10 -16 6 0 10 4 10 9 0 6 -4 13 -10 16 l-10
6 0 -15z" />
    <path d="M5070 2434 l0 -15 10 6 c6 3 10 10 10 16 0 5 -4 9 -10 9 -5 0 -10 -7
-10 -16z" />
    <path d="M5040 2184 l0 -15 10 6 c6 3 10 10 10 16 0 5 -4 9 -10 9 -5 0 -10 -7
-10 -16z" />
    <path d="M5010 2055 c0 -8 5 -15 10 -15 6 0 10 7 10 15 0 8 -4 15 -10 15 -5 0
-10 -7 -10 -15z" />
    <path d="M4976 1948 c-8 -31 -7 -38 3 -38 5 0 14 14 20 30 l10 30 -13 0 c-8 0
-16 -10 -20 -22z" />
    <path d="M4930 1815 c0 -8 4 -15 9 -15 5 0 11 7 15 15 l5 15 -14 0 c-8 0 -15
-7 -15 -15z" />
    <path d="M4760 1505 c0 -8 4 -15 9 -15 5 0 11 7 15 15 l5 15 -14 0 c-8 0 -15
-7 -15 -15z" />
    <path d="M4710 1460 c0 -5 7 -10 15 -10 8 0 15 5 15 10 0 6 -7 10 -15 10 -8 0
-15 -4 -15 -10z" />
    <path d="M2010 828 c-300 -214 -553 -396 -564 -403 l-19 -14 69 -68 c38 -37
71 -68 74 -68 3 0 15 -10 28 -23 21 -21 52 -30 52 -14 0 4 288 212 640 462
351 250 639 458 640 463 0 4 -85 7 -189 7 l-188 0 5 25 c2 14 3 25 1 24 -2 0
-249 -176 -549 -391z" />
    <path d="M3085 1170 l-6 -10 225 0 226 0 0 10 0 10 -219 0 -220 0 -6 -10z" />
    <path d="M3385 820 c3 -5 10 -10 16 -10 5 0 9 5 9 10 0 6 -7 10 -16 10 l-15 0
6 -10z" />
    <path d="M3000 684 l0 -15 10 6 c6 3 10 10 10 16 0 5 -4 9 -10 9 -5 0 -10 -7
-10 -16z" />
    <path d="M3470 661 c0 -6 5 -13 10 -16 l10 -6 0 15 c0 9 -4 16 -10 16 -5 0
-10 -4 -10 -9z" />
    <path d="M3476 621 c-4 -7 -5 -15 -2 -18 9 -9 19 4 14 18 l-4 13 -8 -13z" />
    <path d="M3010 555 c0 -8 7 -15 15 -15 l14 0 -5 15 c-4 8 -10 15 -15 15 -5 0
-9 -7 -9 -15z" />
    <path d="M3050 485 c0 -8 5 -15 10 -15 6 0 10 7 10 15 0 8 -4 15 -10 15 -5 0
-10 -7 -10 -15z" />
    <path d="M3680 435 c0 -8 4 -15 9 -15 5 0 11 7 15 15 l5 15 -14 0 c-8 0 -15
-7 -15 -15z" />
    <path d="M3180 400 c0 -5 7 -10 16 -10 l15 0 -6 10 c-3 6 -10 10 -16 10 -5 0
-9 -4 -9 -10z" />
    <path d="M1670 212 c0 -5 11 -14 25 -20 l25 -12 0 14 c0 8 -7 17 -16 20 -22 8
-34 8 -34 -2z" />
    <path d="M3420 205 l0 -14 15 5 c8 4 15 10 15 15 0 5 -7 9 -15 9 -8 0 -15 -7
-15 -15z" />
    <path d="M1750 171 c0 -5 7 -11 15 -15 l15 -5 0 14 c0 8 -7 15 -15 15 -8 0
-15 -4 -15 -9z" />
    <path d="M3340 165 l0 -14 15 5 c8 4 15 10 15 15 0 5 -7 9 -15 9 -8 0 -15 -7
-15 -15z" />
    <path d="M1820 141 c0 -5 7 -11 15 -15 l15 -5 0 14 c0 8 -7 15 -15 15 -8 0
-15 -4 -15 -9z" />
    <path d="M3210 115 l0 -14 15 5 c8 4 15 10 15 15 0 5 -7 9 -15 9 -8 0 -15 -7
-15 -15z" />
    <path d="M1940 101 c0 -5 7 -11 15 -15 l15 -5 0 14 c0 8 -7 15 -15 15 -8 0
-15 -4 -15 -9z" />
    <path d="M3110 90 c0 -5 7 -10 15 -10 8 0 15 5 15 10 0 6 -7 10 -15 10 -8 0
-15 -4 -15 -10z" />
    <path d="M3070 74 l0 -16 15 12 c8 7 15 14 15 16 0 2 -7 4 -15 4 -8 0 -15 -7
-15 -16z" />
    <path d="M2485 10 c3 -5 10 -10 16 -10 5 0 9 5 9 10 0 6 -7 10 -16 10 l-15 0
6 -10z" />
    <path d="M2600 10 c0 -5 4 -10 9 -10 6 0 13 5 16 10 l6 10 -15 0 c-9 0 -16 -4
-16 -10z" />
  </g>
  <g transform="translate(0.000000,512.000000) scale(0.100000,-0.100000)" fill="#4381b3" stroke="none">
    <path d="M2295 4873 l-210 -246 4 -81 3 -82 -17 -39 c-20 -50 -59 -91 -110
-117 l-40 -21 -66 -1 -66 -1 -127 -148 c-69 -82 -126 -153 -126 -158 l0 -9
177 2 177 3 483 565 482 565 -27 6 c-15 4 -95 7 -177 8 l-150 1 -210 -247z" />
    <path d="M2943 5093 c4 -3 10 -3 14 0 3 4 0 7 -7 7 -7 0 -10 -3 -7 -7z" />
    <path d="M3247 5049 c7 -7 15 -10 18 -7 3 3 -2 9 -12 12 l-18 7 12 -12z" />
    <path d="M3337 5019 c7 -7 15 -10 18 -7 3 3 -2 9 -12 12 l-18 7 12 -12z" />
    <path d="M1074 3442 c-177 -207 -479 -562 -672 -788 l-351 -412 15 -78 c24
-126 56 -258 66 -274 l10 -15 -5 16 -5 17 800 938 c440 517 807 947 816 957
l15 17 -184 0 -184 0 -321 -378z" />
    <path d="M156 1807 c3 -10 9 -15 12 -12 3 3 0 11 -7 18 l-12 12 7 -18z" />
    <path d="M176 1757 c3 -10 9 -15 12 -12 3 3 0 11 -7 18 l-12 12 7 -18z" />
    <path d="M450 1416 c0 -2 7 -7 16 -10 l15 -6 -6 10 c-6 10 -25 14 -25 6z" />
  </g>
  <g transform="translate(0.000000,512.000000) scale(0.100000,-0.100000)" fill="#fed94a" stroke="none">
    <path d="M4119 2023 l-964 -688 223 -3 222 -2 737 526 738 525 12 75 12 75 -9
52 c-4 28 -6 69 -3 89 2 21 2 38 0 38 -2 0 -438 -309 -968 -687z" />
    <path d="M5060 2314 l0 -15 10 6 c6 3 10 10 10 16 0 5 -4 9 -10 9 -5 0 -10 -7
-10 -16z" />
    <path d="M5020 2094 l0 -16 15 12 c8 7 15 14 15 16 0 2 -7 4 -15 4 -8 0 -15
-7 -15 -16z" />
    <path d="M4910 1765 c0 -8 4 -15 9 -15 5 0 11 7 15 15 l5 15 -14 0 c-8 0 -15
-7 -15 -15z" />
    <path d="M4737 1490 c-10 -12 -15 -26 -11 -31 l6 -11 24 23 c13 12 21 26 18
30 -8 14 -18 11 -37 -11z" />
    <path d="M4580 1375 l0 -14 15 5 c8 4 15 10 15 15 0 5 -7 9 -15 9 -8 0 -15 -7
-15 -15z" />
    <path d="M3515 1170 l-6 -10 130 0 131 0 0 10 0 10 -124 0 -125 0 -6 -10z" />
    <path d="M2284 714 c-351 -250 -646 -462 -654 -471 l-15 -16 13 7 12 7 6 -15
c3 -9 10 -13 15 -10 5 3 9 0 9 -6 0 -6 5 -8 10 -5 6 3 10 1 10 -5 0 -6 5 -8
10 -5 6 3 10 2 10 -4 0 -10 38 -27 53 -23 4 1 7 -3 7 -9 0 -5 5 -7 10 -4 6 3
10 1 10 -6 0 -7 3 -9 7 -6 3 4 12 2 20 -4 7 -6 13 -8 13 -3 0 5 4 3 8 -3 4 -7
19 -15 32 -17 14 -2 26 -5 28 -7 1 -1 5 -2 10 -3 4 -1 13 -5 20 -9 l12 -8 0
15 c0 8 -7 16 -15 18 l-15 3 720 513 c396 283 720 518 720 523 l0 9 -213 0
-213 0 -640 -456z" />
    <path d="M3100 835 l0 -14 15 5 c8 4 15 10 15 15 0 5 -7 9 -15 9 -8 0 -15 -7
-15 -15z" />
    <path d="M3420 791 c0 -14 34 -71 43 -71 12 0 8 28 -8 44 -8 8 -15 19 -15 25
0 6 -4 11 -10 11 -5 0 -10 -4 -10 -9z" />
    <path d="M3020 745 c0 -8 4 -15 9 -15 5 0 11 7 15 15 l5 15 -14 0 c-8 0 -15
-7 -15 -15z" />
    <path d="M3740 574 l0 -16 15 12 c8 7 15 14 15 16 0 2 -7 4 -15 4 -8 0 -15 -7
-15 -16z" />
    <path d="M3460 565 l-12 -15 16 0 c9 0 16 7 16 15 0 8 -2 15 -4 15 -2 0 -9 -7
-16 -15z" />
    <path d="M3720 515 c0 -8 4 -15 9 -15 5 0 11 7 15 15 l5 15 -14 0 c-8 0 -15
-7 -15 -15z" />
    <path d="M3350 430 c0 -5 7 -10 15 -10 8 0 15 5 15 10 0 6 -7 10 -15 10 -8 0
-15 -4 -15 -10z" />
    <path d="M3323 423 c-18 -7 -16 -23 2 -23 8 0 15 7 15 15 0 8 -1 15 -2 14 -2
0 -9 -3 -15 -6z" />
    <path d="M3500 260 c0 -5 -7 -10 -15 -10 -8 0 -15 -4 -15 -10 0 -5 7 -10 15
-10 8 0 15 5 15 10 0 6 7 10 15 10 8 0 15 5 15 10 0 6 -7 10 -15 10 -8 0 -15
-4 -15 -10z" />
    <path d="M3383 198 c-13 -6 -23 -17 -23 -24 l0 -14 35 17 c35 17 47 34 23 32
-7 0 -23 -5 -35 -11z" />
    <path d="M3290 145 l0 -14 15 5 c8 4 15 10 15 15 0 5 -7 9 -15 9 -8 0 -15 -7
-15 -15z" />
    <path d="M3030 70 c0 -5 4 -10 9 -10 6 0 13 5 16 10 l6 10 -15 0 c-9 0 -16 -4
-16 -10z" />
    <path d="M2940 50 c0 -5 4 -10 9 -10 6 0 13 5 16 10 l6 10 -15 0 c-9 0 -16 -4
-16 -10z" />
    <path d="M2820 30 c0 -5 4 -10 9 -10 6 0 13 5 16 10 l6 10 -15 0 c-9 0 -16 -4
-16 -10z" />
    <path d="M2740 20 c0 -5 4 -10 9 -10 6 0 13 5 16 10 l6 10 -15 0 c-9 0 -16 -4
-16 -10z" />
    <path d="M2495 10 c3 -5 13 -10 21 -10 8 0 14 5 14 10 0 6 -9 10 -21 10 l-20
0 6 -10z" />
    <path d="M2540 10 c0 -13 67 -13 75 0 l6 10 -40 0 -41 0 0 -10z" />
  </g>
  <g transform="translate(0.000000,512.000000) scale(0.100000,-0.100000)" fill="#fed43b" stroke="none">
    <path d="M4488 1732 c-290 -208 -528 -383 -528 -390 l0 -13 253 5 c260 4 301
6 312 18 4 4 13 4 20 2 7 -3 16 0 20 5 3 6 11 9 16 6 5 -4 9 -1 9 4 0 6 3 10
8 10 14 -3 72 23 72 32 0 5 4 8 8 7 5 -2 21 11 36 27 15 17 24 23 20 15 -4 -8
5 -4 19 9 30 28 36 40 10 21 -10 -7 0 3 22 23 22 20 36 37 30 37 -5 0 -2 5 8
11 9 6 15 14 12 20 -4 5 -2 9 2 9 12 0 44 56 36 64 -3 3 -1 6 6 6 7 0 9 5 6
10 -3 6 -1 10 5 10 6 0 8 5 5 10 -3 6 -1 10 5 10 6 0 9 4 6 9 -4 5 -1 11 4 13
6 2 12 13 13 26 0 12 5 22 10 22 4 0 6 4 2 9 -3 5 -1 12 5 16 6 4 8 11 5 16
-4 5 -1 9 6 9 7 0 10 3 7 6 -4 3 0 17 7 31 8 15 12 30 9 35 -3 4 0 8 6 8 l12
0 -6 15 -5 15 10 0 11 0 -6 15 c-3 8 -1 15 5 15 5 0 9 6 8 13 -1 6 3 25 9 40
7 15 11 31 11 35 -1 4 0 9 1 12 1 3 3 15 4 28 l3 22 -11 -1 c-6 0 -248 -170
-538 -377z" />
    <path d="M3502 1028 l-202 -143 3 -15 c1 -8 7 -16 12 -16 25 -4 55 -17 55 -25
0 -5 6 -9 13 -9 17 0 49 -34 41 -43 -4 -4 1 -9 10 -13 9 -3 13 -10 10 -15 -3
-5 0 -9 5 -9 6 0 10 -3 10 -7 -1 -5 0 -12 1 -18 1 -5 3 -14 4 -20 1 -5 6 -23
10 -39 l9 -29 -11 -18 c-7 -10 -9 -25 -6 -34 l6 -15 -13 0 c-7 0 -9 -3 -6 -7
4 -3 0 -15 -10 -25 -9 -10 -14 -18 -11 -18 4 0 -10 -17 -31 -37 -20 -21 -39
-36 -43 -35 -5 1 -8 -3 -8 -9 0 -5 -4 -7 -10 -4 -5 3 -10 1 -10 -5 0 -6 -3 -9
-7 -7 -5 2 -35 1 -68 -3 l-60 -7 -11 8 c-6 5 -14 6 -17 2 -4 -3 -7 0 -7 7 0 7
-3 10 -7 7 -3 -4 -17 3 -30 15 -13 12 -23 18 -23 13 0 -4 -9 0 -20 10 -11 10
-17 22 -14 26 3 5 -2 12 -10 15 -9 3 -13 10 -10 15 3 5 0 9 -6 9 -6 0 -8 4 -5
10 3 5 2 10 -3 10 -6 0 -10 6 -9 13 2 52 -5 107 -12 107 -7 0 -822 -575 -860
-606 -2 -2 2 -11 9 -19 l13 -16 15 6 c8 3 20 1 26 -4 6 -5 22 -10 36 -10 14
-1 45 -3 70 -6 36 -5 216 -6 455 -4 17 0 37 3 45 6 14 6 30 9 90 15 14 2 30 6
37 11 6 4 18 4 26 1 8 -3 18 0 22 5 3 6 11 9 16 5 5 -3 16 -1 23 5 7 6 21 9
30 5 l16 -6 0 12 0 12 15 -5 c8 -4 17 -2 20 3 3 5 12 7 19 4 8 -3 17 0 21 5 3
6 10 9 15 6 5 -3 11 -1 15 4 3 6 12 8 20 4 8 -3 15 0 15 6 l0 10 15 -5 c8 -4
15 -2 15 3 0 5 10 9 22 10 11 1 24 6 27 10 3 4 15 10 26 11 11 2 22 8 23 13 2
5 8 7 13 3 5 -3 9 0 9 6 0 6 5 8 10 5 6 -3 10 -1 10 5 0 6 5 8 10 5 6 -3 10
-1 10 5 0 6 5 8 10 5 6 -3 10 -1 10 5 0 6 5 8 10 5 6 -3 10 -1 10 5 0 6 4 9 9
6 5 -3 12 1 15 10 3 8 10 13 15 10 5 -3 12 1 15 10 3 8 10 12 16 9 6 -3 13 1
16 9 3 9 10 16 15 16 12 0 119 107 119 118 0 6 7 13 16 16 8 3 12 10 9 16 -3
5 -1 10 4 10 6 0 11 7 11 15 0 8 5 15 12 15 6 0 8 3 5 7 -4 3 -2 12 4 20 6 7
8 13 3 13 -5 0 -3 4 5 9 7 5 14 20 14 35 0 14 3 26 7 26 4 0 8 10 9 23 0 12 2
36 3 52 1 17 1 139 0 273 l-2 242 -33 0 -33 0 -202 -142z" />
  </g>
  <g transform="translate(0.000000,512.000000) scale(0.100000,-0.100000)" fill="#fee46a" stroke="none">
    <path d="M4337 3399 l-407 -290 -12 7 -11 7 7 -11 7 -12 -12 0 -11 0 5 -20 5
-20 -10 0 c-6 0 -8 -7 -4 -15 l5 -15 -10 0 -11 0 6 -15 c3 -8 1 -15 -5 -15 -6
0 -8 -4 -5 -9 4 -5 3 -11 -1 -13 -10 -4 -47 -80 -45 -90 1 -5 -3 -8 -9 -8 -5
0 -8 -4 -5 -9 3 -5 -1 -12 -10 -15 -9 -4 -14 -9 -11 -12 3 -4 -4 -15 -16 -25
-12 -10 -18 -18 -14 -19 4 0 -8 -14 -28 -31 l-35 -31 7 -11 6 -10 -10 6 -11 7
-33 -38 c-18 -20 -37 -36 -41 -34 -5 1 -11 -5 -14 -13 -4 -8 -12 -15 -18 -15
-7 0 -23 -10 -36 -22 -14 -13 -26 -21 -28 -19 -5 5 -62 -21 -62 -28 0 -4 -10
-8 -22 -8 -13 -1 -24 -7 -26 -12 -2 -5 -10 -7 -18 -4 l-14 5 0 -12 c0 -6 -4
-8 -10 -5 -5 3 -15 3 -22 -1 -7 -4 -28 -9 -48 -11 -19 -2 -46 -6 -60 -10 -14
-3 -63 -5 -109 -4 l-84 3 5 -8 c6 -11 -1690 -1220 -1708 -1218 l-14 2 0 -165
0 -165 33 24 c100 75 3515 2506 3527 2511 l15 5 -13 1 c-7 1 -10 6 -7 11 3 6
1 10 -4 10 -6 0 -10 3 -9 8 4 12 -41 80 -58 86 -8 3 -13 10 -10 14 3 5 -9 23
-27 40 l-32 31 -408 -290z" />
    <path d="M4970 3271 c0 -6 4 -13 10 -16 l10 -6 -6 15 c-7 18 -14 21 -14 7z" />
    <path d="M5030 3020 c0 -7 3 -10 7 -7 3 4 3 10 0 14 -4 3 -7 0 -7 -7z" />
    <path d="M5011 2014 l1 -19 5 13 c3 7 2 16 -1 19 -3 4 -6 -2 -5 -13z" />
    <path d="M4960 1860 c0 -7 3 -10 7 -7 3 4 3 10 0 14 -4 3 -7 0 -7 -7z" />
    <path d="M4865 1639 c-4 -6 -5 -12 -2 -15 2 -3 7 2 10 11 7 17 1 20 -8 4z" />
    <path d="M4784 1518 l-7 -11 11 7 c12 7 16 16 8 16 -3 0 -8 -5 -12 -12z" />
    <path d="M3090 824 l0 -15 10 6 c6 3 10 10 10 16 0 5 -4 9 -10 9 -5 0 -10 -7
-10 -16z" />
    <path d="M3011 594 l1 -19 5 13 c3 7 2 16 -1 19 -3 4 -6 -2 -5 -13z" />
    <path d="M3740 530 c0 -7 3 -10 7 -7 3 4 3 10 0 14 -4 3 -7 0 -7 -7z" />
    <path d="M1409 445 c17 -33 31 -51 31 -40 0 6 -10 21 -21 35 l-20 25 10 -20z" />
    <path d="M3115 440 c3 -5 8 -10 11 -10 3 0 2 5 -1 10 -3 6 -8 10 -11 10 -3 0
-2 -4 1 -10z" />
    <path d="M3278 403 c7 -3 16 -2 19 1 4 3 -2 6 -13 5 l-19 -1 13 -5z" />
    <path d="M1600 246 c0 -2 7 -7 16 -10 l15 -6 -6 10 c-6 10 -25 14 -25 6z" />
    <path d="M3333 153 c4 -3 10 -3 14 0 3 4 0 7 -7 7 -7 0 -10 -3 -7 -7z" />
    <path d="M3283 133 c4 -3 10 -3 14 0 3 4 0 7 -7 7 -7 0 -10 -3 -7 -7z" />
  </g>
  <g transform="translate(0.000000,512.000000) scale(0.100000,-0.100000)" fill="#306a99" stroke="none">
    <path d="M3134 3405 c-341 -399 -620 -732 -622 -740 l-3 -15 366 0 366 0 70
16 c38 9 75 22 83 29 7 8 16 11 20 8 3 -4 6 -1 6 6 0 7 5 9 10 6 6 -3 10 -2
10 3 0 5 6 9 13 9 24 0 102 60 163 125 l60 64 37 76 c21 42 44 107 52 144 l15
69 0 463 0 462 -14 0 c-8 0 -292 -326 -632 -725z" />
  </g>
  <g transform="translate(0.000000,512.000000) scale(0.100000,-0.100000)" fill="#4685b7" stroke="none">
    <path d="M2223 5110 c-40 -3 -75 -8 -77 -11 -2 -2 -68 -78 -145 -169 -77 -91
-141 -171 -141 -177 0 -7 10 -13 21 -13 40 0 98 -23 133 -52 19 -15 46 -52 60
-81 l26 -52 -6 27 -6 27 194 227 c106 124 203 239 216 255 l23 29 -113 -1
c-62 -1 -146 -5 -185 -9z" />
    <path d="M2593 5113 c4 -3 10 -3 14 0 3 4 0 7 -7 7 -7 0 -10 -3 -7 -7z" />
    <path d="M2833 5103 c4 -3 10 -3 14 0 3 4 0 7 -7 7 -7 0 -10 -3 -7 -7z" />
    <path d="M3033 5083 c4 -3 10 -3 14 0 3 4 0 7 -7 7 -7 0 -10 -3 -7 -7z" />
    <path d="M1478 4317 l-147 -172 -1 -87 0 -88 108 0 107 0 115 136 c63 75 123
147 133 160 l19 24 -25 9 c-60 23 -137 119 -137 171 0 11 -6 20 -12 20 -7 0
-79 -78 -160 -173z" />
    <path d="M2025 4350 c-10 -11 -13 -20 -8 -20 13 0 38 29 31 35 -3 3 -13 -4
-23 -15z" />
    <path d="M1930 4290 l-15 -10 12 0 c6 0 15 5 18 10 8 12 4 12 -15 0z" />
    <path d="M537 3213 l-517 -607 5 -90 c9 -139 26 -289 36 -306 l9 -15 -3 21 -2
20 659 775 c363 426 666 782 674 792 l15 17 -179 0 -180 0 -517 -607z" />
    <path d="M256 1607 c3 -10 9 -15 12 -12 3 3 0 11 -7 18 l-12 12 7 -18z" />
    <path d="M286 1567 c3 -10 9 -15 12 -12 3 3 0 11 -7 18 l-12 12 7 -18z" />
  </g>
  <g transform="translate(0.000000,512.000000) scale(0.100000,-0.100000)" fill="#fed642" stroke="none">
    <path d="M4345 1878 c-402 -286 -737 -526 -745 -534 l-14 -14 197 0 c109 0
196 3 193 8 -5 8 1037 755 1062 760 l14 4 -5 19 c-3 10 -1 22 5 25 5 3 7 13 4
21 -3 8 -3 20 1 26 5 7 9 23 11 37 6 56 11 97 17 126 4 18 3 34 -2 37 -5 3
-337 -229 -738 -515z" />
    <path d="M5014 2028 l-7 -11 11 7 c12 7 16 16 8 16 -3 0 -8 -5 -12 -12z" />
    <path d="M4954 1848 l-7 -11 11 7 c7 4 12 9 12 12 0 8 -9 4 -16 -8z" />
    <path d="M4915 1749 c-4 -6 -5 -12 -2 -15 2 -3 7 2 10 11 7 17 1 20 -8 4z" />
    <path d="M4845 1609 c-4 -6 -5 -12 -2 -15 2 -3 7 2 10 11 7 17 1 20 -8 4z" />
    <path d="M4820 1569 c0 -5 5 -7 10 -4 6 3 10 8 10 11 0 2 -4 4 -10 4 -5 0 -10
-5 -10 -11z" />
    <path d="M4800 1539 c0 -5 5 -7 10 -4 6 3 10 8 10 11 0 2 -4 4 -10 4 -5 0 -10
-5 -10 -11z" />
    <path d="M4740 1469 c0 -5 5 -7 10 -4 6 3 10 8 10 11 0 2 -4 4 -10 4 -5 0 -10
-5 -10 -11z" />
    <path d="M4680 1419 c0 -5 5 -7 10 -4 6 3 10 8 10 11 0 2 -4 4 -10 4 -5 0 -10
-5 -10 -11z" />
    <path d="M4645 1400 l-6 -10 15 6 c18 7 21 14 7 14 -6 0 -13 -4 -16 -10z" />
    <path d="M4554 1358 l-7 -11 11 7 c12 7 16 16 8 16 -3 0 -8 -5 -12 -12z" />
    <path d="M2618 648 l-727 -520 5 -13 6 -14 14 6 14 5 0 -12 0 -12 15 6 15 5 0
-10 c0 -6 7 -9 15 -6 8 4 17 2 21 -4 3 -6 12 -8 20 -5 7 3 16 1 20 -5 3 -6 12
-8 20 -5 7 3 16 1 20 -5 3 -6 12 -8 19 -5 7 2 17 0 23 -6 l10 -10 23 13 c13 7
212 146 441 310 229 163 420 294 424 291 4 -4 4 1 0 12 l-6 19 11 13 c6 8 8
14 4 14 -4 0 -2 7 5 15 7 8 9 15 4 15 -5 0 -2 5 6 10 8 5 15 13 15 17 0 12 59
68 68 65 4 -1 7 3 7 9 0 5 5 7 10 4 6 -3 10 -1 10 4 0 6 3 10 8 10 4 -1 9 0
12 1 16 7 127 4 138 -4 l12 -9 -5 14 -5 14 205 145 c113 79 205 145 205 147 0
2 -84 3 -187 2 l-188 -1 -727 -520z" />
    <path d="M3337 849 c7 -7 15 -10 18 -7 3 3 -2 9 -12 12 l-18 7 12 -12z" />
    <path d="M3373 823 c4 -3 10 -3 14 0 3 4 0 7 -7 7 -7 0 -10 -3 -7 -7z" />
    <path d="M3015 580 c3 -5 8 -10 11 -10 3 0 2 5 -1 10 -3 6 -8 10 -11 10 -3 0
-2 -4 1 -10z" />
    <path d="M3050 500 c0 -5 5 -10 11 -10 5 0 7 5 4 10 -3 6 -8 10 -11 10 -2 0
-4 -4 -4 -10z" />
    <path d="M3395 470 c-10 -11 -13 -20 -8 -20 13 0 38 29 31 35 -3 3 -13 -4 -23
-15z" />
    <path d="M3100 450 c0 -5 5 -10 11 -10 5 0 7 5 4 10 -3 6 -8 10 -11 10 -2 0
-4 -4 -4 -10z" />
    <path d="M3700 450 c0 -7 3 -10 7 -7 3 4 3 10 0 14 -4 3 -7 0 -7 -7z" />
    <path d="M3294 408 l-7 -11 11 7 c7 4 12 9 12 12 0 8 -9 4 -16 -8z" />
    <path d="M3660 390 c0 -7 3 -10 7 -7 3 4 3 10 0 14 -4 3 -7 0 -7 -7z" />
    <path d="M3553 283 c4 -3 10 -3 14 0 3 4 0 7 -7 7 -7 0 -10 -3 -7 -7z" />
    <path d="M3144 88 l-7 -11 11 7 c12 7 16 16 8 16 -3 0 -8 -5 -12 -12z" />
    <path d="M2215 30 c3 -5 8 -10 11 -10 3 0 2 5 -1 10 -3 6 -8 10 -11 10 -3 0
-2 -4 1 -10z" />
  </g>
  <g transform="translate(0.000000,512.000000) scale(0.100000,-0.100000)" fill="#4989bc" stroke="none">
    <path d="M2463 5113 c9 -2 25 -2 35 0 9 3 1 5 -18 5 -19 0 -27 -2 -17 -5z" />
    <path d="M2613 5113 c9 -2 23 -2 30 0 6 3 -1 5 -18 5 l-30 0 18 -5z" />
    <path d="M2253 5103 c4 -3 10 -3 14 0 3 4 0 7 -7 7 -7 0 -10 -3 -7 -7z" />
    <path d="M2843 5103 c4 -3 10 -3 14 0 3 4 0 7 -7 7 -7 0 -10 -3 -7 -7z" />
    <path d="M2065 5093 c-103 -14 -263 -49 -339 -74 -122 -40 -193 -80 -255 -142
l-52 -52 -29 -60 c-15 -33 -33 -82 -40 -110 l-11 -50 -6 -240 -5 -240 20 20
c11 11 80 90 152 175 72 85 136 154 141 152 l9 -2 -6 24 -6 25 16 53 c8 29 29
69 46 90 35 42 103 78 149 78 18 0 30 4 27 8 -3 4 47 69 110 143 64 73 129
151 146 172 l30 37 -34 -1 c-18 -1 -46 -4 -63 -6z" />
    <path d="M3173 5063 c4 -3 10 -3 14 0 3 4 0 7 -7 7 -7 0 -10 -3 -7 -7z" />
    <path d="M3487 4939 c7 -7 15 -10 18 -7 3 3 -2 9 -12 12 l-18 7 12 -12z" />
    <path d="M3527 4909 c7 -7 15 -10 18 -7 3 3 -2 9 -12 12 l-18 7 12 -12z" />
    <path d="M1900 4746 c0 -2 7 -7 16 -10 l15 -6 -6 10 c-6 10 -25 14 -25 6z" />
    <path d="M1970 4720 c8 -6 24 -15 35 -21 l20 -10 -25 20 c-14 11 -29 21 -35
21 -5 0 -3 -5 5 -10z" />
    <path d="M2049 4655 c17 -33 31 -51 31 -40 0 6 -10 21 -21 35 l-20 25 10 -20z" />
    <path d="M3750 4534 l0 -15 10 6 c6 3 10 10 10 16 0 5 -4 9 -10 9 -5 0 -10 -7
-10 -16z" />
    <path d="M2086 4453 l-7 -18 12 12 c7 7 10 15 7 18 -3 3 -9 -2 -12 -12z" />
    <path d="M1645 4440 c9 -33 56 -102 75 -108 l15 -5 -26 29 c-15 16 -36 47 -48
69 l-22 40 6 -25z" />
    <path d="M2056 4383 l-7 -18 12 12 c7 7 10 15 7 18 -3 3 -9 -2 -12 -12z" />
    <path d="M1797 4289 c7 -7 15 -10 18 -7 3 3 -2 9 -12 12 l-18 7 12 -12z" />
    <path d="M755 3809 c-126 -19 -277 -83 -365 -157 -102 -84 -187 -200 -235
-319 -30 -76 -75 -260 -100 -408 -13 -78 -35 -322 -30 -332 0 -2 945 1104
1018 1193 l28 34 -128 -1 c-70 -1 -155 -5 -188 -10z" />
    <path d="M1625 2580 l-6 -10 15 6 c18 7 21 14 7 14 -6 0 -13 -4 -16 -10z" />
    <path d="M1585 2560 l-6 -10 15 6 c18 7 21 14 7 14 -6 0 -13 -4 -16 -10z" />
    <path d="M31 2474 l1 -19 5 13 c3 7 2 16 -1 19 -3 4 -6 -2 -5 -13z" />
    <path d="M1340 2355 l-12 -15 10 0 c5 0 12 7 16 15 3 8 4 15 2 15 -2 0 -9 -7
-16 -15z" />
    <path d="M40 2350 c0 -7 3 -10 7 -7 3 4 3 10 0 14 -4 3 -7 0 -7 -7z" />
    <path d="M1305 2304 c-9 -14 -15 -27 -13 -30 2 -2 12 10 22 26 21 37 15 40 -9
4z" />
    <path d="M50 2270 c0 -7 3 -10 7 -7 3 4 3 10 0 14 -4 3 -7 0 -7 -7z" />
    <path d="M70 2150 c0 -7 3 -10 7 -7 3 4 3 10 0 14 -4 3 -7 0 -7 -7z" />
    <path d="M76 2107 c3 -10 9 -15 12 -12 3 3 0 11 -7 18 l-12 12 7 -18z" />
    <path d="M90 2050 c0 -7 3 -10 7 -7 3 4 3 10 0 14 -4 3 -7 0 -7 -7z" />
    <path d="M166 1777 c3 -10 9 -15 12 -12 3 3 0 11 -7 18 l-12 12 7 -18z" />
    <path d="M236 1637 c3 -10 9 -15 12 -12 3 3 0 11 -7 18 l-12 12 7 -18z" />
    <path d="M390 1456 c0 -2 7 -7 16 -10 l15 -6 -6 10 c-6 10 -25 14 -25 6z" />
    <path d="M653 1343 c4 -3 10 -3 14 0 3 4 0 7 -7 7 -7 0 -10 -3 -7 -7z" />
  </g>
  <g transform="translate(0.000000,512.000000) scale(0.100000,-0.100000)" fill="#3671a1" stroke="none">
    <path d="M2825 3709 c-478 -561 -876 -1029 -884 -1040 l-13 -19 148 0 149 0
765 897 c421 493 772 907 780 920 l15 23 -12 19 c-6 10 -9 28 -6 40 3 11 1 21
-3 21 -5 0 -10 12 -11 27 0 15 -6 29 -12 31 -6 2 -9 8 -6 13 3 4 -4 26 -15 49
-11 22 -21 40 -23 40 -1 -1 -393 -460 -872 -1021z" />
    <path d="M3760 3170 c0 -7 3 -10 7 -7 3 4 3 10 0 14 -4 3 -7 0 -7 -7z" />
    <path d="M3755 3129 c-4 -6 -5 -12 -2 -15 2 -3 7 2 10 11 7 17 1 20 -8 4z" />
    <path d="M3685 2959 c-4 -6 -5 -12 -2 -15 2 -3 7 2 10 11 7 17 1 20 -8 4z" />
    <path d="M3647 2903 c-4 -3 -7 -11 -7 -17 l0 -10 12 12 c6 6 9 14 7 17 -3 3
-9 2 -12 -2z" />
    <path d="M3485 2750 l-6 -10 15 6 c18 7 21 14 7 14 -6 0 -13 -4 -16 -10z" />
    <path d="M1011 1580 c-96 -113 -183 -215 -194 -227 l-20 -23 150 0 151 0 46
54 46 54 -2 173 -3 173 -174 -204z" />
  </g>
  <g transform="translate(0.000000,512.000000) scale(0.100000,-0.100000)" fill="#346e9e" stroke="none">
    <path d="M3015 3599 c-418 -490 -770 -904 -783 -920 l-23 -29 160 0 161 0 -2
9 c-4 14 1233 1462 1243 1455 l9 -5 0 190 c0 105 -1 191 -2 191 -2 0 -345
-401 -763 -891z" />
    <path d="M3305 2670 l-6 -10 15 6 c18 7 21 14 7 14 -6 0 -13 -4 -16 -10z" />
    <path d="M1131 1390 l-52 -60 55 0 56 0 0 60 c0 33 -2 60 -4 60 -1 0 -26 -27
-55 -60z" />
  </g>
  <g transform="translate(0.000000,512.000000) scale(0.100000,-0.100000)" fill="#feeb97" stroke="none">
    <path d="M4478 3803 c7 -3 16 -2 19 1 4 3 -2 6 -13 5 l-19 -1 13 -5z" />
    <path d="M4533 3793 c4 -3 10 -3 14 0 3 4 0 7 -7 7 -7 0 -10 -3 -7 -7z" />
    <path d="M4563 3783 c4 -3 10 -3 14 0 3 4 0 7 -7 7 -7 0 -10 -3 -7 -7z" />
    <path d="M4593 3773 c4 -3 10 -3 14 0 3 4 0 7 -7 7 -7 0 -10 -3 -7 -7z" />
    <path d="M4665 3740 c3 -5 8 -10 11 -10 3 0 2 5 -1 10 -3 6 -8 10 -11 10 -3 0
-2 -4 1 -10z" />
    <path d="M4695 3720 c3 -5 8 -10 11 -10 3 0 2 5 -1 10 -3 6 -8 10 -11 10 -3 0
-2 -4 1 -10z" />
    <path d="M4760 3665 c19 -19 36 -35 39 -35 3 0 -10 16 -29 35 -19 19 -36 35
-39 35 -3 0 10 -16 29 -35z" />
    <path d="M4825 3590 c3 -5 8 -10 11 -10 3 0 2 5 -1 10 -3 6 -8 10 -11 10 -3 0
-2 -4 1 -10z" />
    <path d="M4845 3560 c3 -5 8 -10 11 -10 3 0 2 5 -1 10 -3 6 -8 10 -11 10 -3 0
-2 -4 1 -10z" />
    <path d="M4865 3530 c3 -5 8 -10 11 -10 3 0 2 5 -1 10 -3 6 -8 10 -11 10 -3 0
-2 -4 1 -10z" />
    <path d="M4920 3420 c0 -7 3 -10 7 -7 3 4 3 10 0 14 -4 3 -7 0 -7 -7z" />
    <path d="M4940 3370 c0 -7 3 -10 7 -7 3 4 3 10 0 14 -4 3 -7 0 -7 -7z" />
    <path d="M4950 3340 c0 -7 3 -10 7 -7 3 4 3 10 0 14 -4 3 -7 0 -7 -7z" />
    <path d="M4960 3310 c0 -7 3 -10 7 -7 3 4 3 10 0 14 -4 3 -7 0 -7 -7z" />
    <path d="M4970 3280 c0 -7 3 -10 7 -7 3 4 3 10 0 14 -4 3 -7 0 -7 -7z" />
    <path d="M4980 3250 c0 -7 3 -10 7 -7 3 4 3 10 0 14 -4 3 -7 0 -7 -7z" />
    <path d="M4990 3210 c0 -7 3 -10 7 -7 3 4 3 10 0 14 -4 3 -7 0 -7 -7z" />
    <path d="M3921 3184 l1 -19 5 13 c3 7 2 16 -1 19 -3 4 -6 -2 -5 -13z" />
    <path d="M5000 3170 c0 -7 3 -10 7 -7 3 4 3 10 0 14 -4 3 -7 0 -7 -7z" />
    <path d="M3910 3120 c0 -7 3 -10 7 -7 3 4 3 10 0 14 -4 3 -7 0 -7 -7z" />
    <path d="M3900 3080 c0 -7 3 -10 7 -7 3 4 3 10 0 14 -4 3 -7 0 -7 -7z" />
    <path d="M5020 3080 c0 -7 3 -10 7 -7 3 4 3 10 0 14 -4 3 -7 0 -7 -7z" />
    <path d="M3890 3050 c0 -7 3 -10 7 -7 3 4 3 10 0 14 -4 3 -7 0 -7 -7z" />
    <path d="M5030 3030 c0 -7 3 -10 7 -7 3 4 3 10 0 14 -4 3 -7 0 -7 -7z" />
    <path d="M3880 3020 c0 -7 3 -10 7 -7 3 4 3 10 0 14 -4 3 -7 0 -7 -7z" />
    <path d="M5040 2980 c0 -7 3 -10 7 -7 3 4 3 10 0 14 -4 3 -7 0 -7 -7z" />
    <path d="M3860 2970 c0 -7 3 -10 7 -7 3 4 3 10 0 14 -4 3 -7 0 -7 -7z" />
    <path d="M5050 2930 c0 -7 3 -10 7 -7 3 4 3 10 0 14 -4 3 -7 0 -7 -7z" />
    <path d="M3824 2898 l-7 -11 11 7 c12 7 16 16 8 16 -3 0 -8 -5 -12 -12z" />
    <path d="M5061 2864 l1 -19 5 13 c3 7 2 16 -1 19 -3 4 -6 -2 -5 -13z" />
    <path d="M3794 2848 l-7 -11 11 7 c12 7 16 16 8 16 -3 0 -8 -5 -12 -12z" />
    <path d="M3774 2818 l-7 -11 11 7 c12 7 16 16 8 16 -3 0 -8 -5 -12 -12z" />
    <path d="M5070 2790 c0 -7 3 -10 7 -7 3 4 3 10 0 14 -4 3 -7 0 -7 -7z" />
    <path d="M3739 2773 l-14 -18 18 14 c16 13 21 21 13 21 -2 0 -10 -8 -17 -17z" />
    <path d="M5082 2690 c0 -14 2 -19 5 -12 2 6 2 18 0 25 -3 6 -5 1 -5 -13z" />
    <path d="M3644 2678 l-7 -11 11 7 c12 7 16 16 8 16 -3 0 -8 -5 -12 -12z" />
    <path d="M3564 2618 l-7 -11 11 7 c12 7 16 16 8 16 -3 0 -8 -5 -12 -12z" />
    <path d="M3490 2580 c-19 -11 -31 -19 -27 -20 11 0 67 29 67 35 0 7 -1 7 -40
-15z" />
    <path d="M3413 2543 c4 -3 10 -3 14 0 3 4 0 7 -7 7 -7 0 -10 -3 -7 -7z" />
    <path d="M3383 2533 c4 -3 10 -3 14 0 3 4 0 7 -7 7 -7 0 -10 -3 -7 -7z" />
    <path d="M3353 2523 c4 -3 10 -3 14 0 3 4 0 7 -7 7 -7 0 -10 -3 -7 -7z" />
    <path d="M3313 2513 c4 -3 10 -3 14 0 3 4 0 7 -7 7 -7 0 -10 -3 -7 -7z" />
    <path d="M3268 2503 c7 -3 16 -2 19 1 4 3 -2 6 -13 5 l-19 -1 13 -5z" />
    <path d="M2213 2493 c180 -2 474 -2 655 0 180 1 32 2 -328 2 -360 0 -508 -1
-327 -2z" />
    <path d="M1828 2483 c7 -3 16 -2 19 1 4 3 -2 6 -13 5 l-19 -1 13 -5z" />
    <path d="M1783 2473 c4 -3 10 -3 14 0 3 4 0 7 -7 7 -7 0 -10 -3 -7 -7z" />
    <path d="M1723 2453 c4 -3 10 -3 14 0 3 4 0 7 -7 7 -7 0 -10 -3 -7 -7z" />
    <path d="M1634 2408 l-7 -11 11 7 c12 7 16 16 8 16 -3 0 -8 -5 -12 -12z" />
    <path d="M1604 2388 l-7 -11 11 7 c12 7 16 16 8 16 -3 0 -8 -5 -12 -12z" />
    <path d="M5082 2370 c0 -14 2 -19 5 -12 2 6 2 18 0 25 -3 6 -5 1 -5 -13z" />
    <path d="M1559 2353 l-14 -18 18 14 c9 7 17 15 17 17 0 8 -8 3 -21 -13z" />
    <path d="M1474 2268 l-19 -23 23 19 c21 18 27 26 19 26 -2 0 -12 -10 -23 -22z" />
    <path d="M5070 2280 c0 -7 3 -10 7 -7 3 4 3 10 0 14 -4 3 -7 0 -7 -7z" />
    <path d="M1443 2228 c-15 -20 -25 -38 -20 -38 3 0 12 11 21 25 17 26 16 35 -1
13z" />
    <path d="M5060 2210 c0 -7 3 -10 7 -7 3 4 3 10 0 14 -4 3 -7 0 -7 -7z" />
    <path d="M1405 2169 c-4 -6 -5 -12 -2 -15 2 -3 7 2 10 11 7 17 1 20 -8 4z" />
    <path d="M5050 2160 c0 -7 3 -10 7 -7 3 4 3 10 0 14 -4 3 -7 0 -7 -7z" />
    <path d="M5040 2120 c0 -7 3 -10 7 -7 3 4 3 10 0 14 -4 3 -7 0 -7 -7z" />
    <path d="M1370 2090 c0 -7 3 -10 7 -7 3 4 3 10 0 14 -4 3 -7 0 -7 -7z" />
    <path d="M1360 2060 c0 -7 3 -10 7 -7 3 4 3 10 0 14 -4 3 -7 0 -7 -7z" />
    <path d="M5020 2040 c0 -7 3 -10 7 -7 3 4 3 10 0 14 -4 3 -7 0 -7 -7z" />
    <path d="M1350 2020 c0 -7 3 -10 7 -7 3 4 3 10 0 14 -4 3 -7 0 -7 -7z" />
    <path d="M1341 1974 l1 -19 5 13 c3 7 2 16 -1 19 -3 4 -6 -2 -5 -13z" />
    <path d="M5000 1970 c0 -7 3 -10 7 -7 3 4 3 10 0 14 -4 3 -7 0 -7 -7z" />
    <path d="M4990 1940 c0 -7 3 -10 7 -7 3 4 3 10 0 14 -4 3 -7 0 -7 -7z" />
    <path d="M4980 1910 c0 -7 3 -10 7 -7 3 4 3 10 0 14 -4 3 -7 0 -7 -7z" />
    <path d="M4910 1730 c0 -7 3 -10 7 -7 3 4 3 10 0 14 -4 3 -7 0 -7 -7z" />
    <path d="M4854 1618 l-7 -11 11 7 c12 7 16 16 8 16 -3 0 -8 -5 -12 -12z" />
    <path d="M4824 1568 l-7 -11 11 7 c7 4 12 9 12 12 0 8 -9 4 -16 -8z" />
    <path d="M4794 1528 l-7 -11 11 7 c12 7 16 16 8 16 -3 0 -8 -5 -12 -12z" />
    <path d="M4684 1418 l-7 -11 11 7 c7 4 12 9 12 12 0 8 -9 4 -16 -8z" />
    <path d="M4543 1353 c4 -3 10 -3 14 0 3 4 0 7 -7 7 -7 0 -10 -3 -7 -7z" />
    <path d="M4503 1343 c4 -3 10 -3 14 0 3 4 0 7 -7 7 -7 0 -10 -3 -7 -7z" />
    <path d="M2554 1327 c-3 -8 -3 -45 -1 -83 l3 -69 2 77 2 78 943 3 942 2 -943
3 -943 2 -5 -13z" />
    <path d="M3198 863 c7 -3 16 -2 19 1 4 3 -2 6 -13 5 l-19 -1 13 -5z" />
    <path d="M3273 863 c4 -3 10 -3 14 0 3 4 0 7 -7 7 -7 0 -10 -3 -7 -7z" />
    <path d="M3079 803 l-14 -18 18 14 c9 7 17 15 17 17 0 8 -8 3 -21 -13z" />
    <path d="M3425 770 c3 -5 8 -10 11 -10 3 0 2 5 -1 10 -3 6 -8 10 -11 10 -3 0
-2 -4 1 -10z" />
    <path d="M3044 758 l-7 -11 11 7 c12 7 16 16 8 16 -3 0 -8 -5 -12 -12z" />
    <path d="M3460 690 c0 -7 3 -10 7 -7 3 4 3 10 0 14 -4 3 -7 0 -7 -7z" />
    <path d="M3772 670 c0 -14 2 -19 5 -12 2 6 2 18 0 25 -3 6 -5 1 -5 -13z" />
    <path d="M3013 635 l0 -40 4 23 c2 12 2 30 0 40 -3 9 -5 -1 -4 -23z" />
    <path d="M1341 614 l1 -19 5 13 c3 7 2 16 -1 19 -3 4 -6 -2 -5 -13z" />
    <path d="M3760 590 c0 -7 3 -10 7 -7 3 4 3 10 0 14 -4 3 -7 0 -7 -7z" />
    <path d="M1350 570 c0 -7 3 -10 7 -7 3 4 3 10 0 14 -4 3 -7 0 -7 -7z" />
    <path d="M3020 570 c0 -7 3 -10 7 -7 3 4 3 10 0 14 -4 3 -7 0 -7 -7z" />
    <path d="M1360 540 c0 -7 3 -10 7 -7 3 4 3 10 0 14 -4 3 -7 0 -7 -7z" />
    <path d="M3434 518 l-7 -11 11 7 c7 4 12 9 12 12 0 8 -9 4 -16 -8z" />
    <path d="M3055 500 c3 -5 8 -10 11 -10 3 0 2 5 -1 10 -3 6 -8 10 -11 10 -3 0
-2 -4 1 -10z" />
    <path d="M3414 488 l-7 -11 11 7 c12 7 16 16 8 16 -3 0 -8 -5 -12 -12z" />
    <path d="M1415 430 c3 -5 8 -10 11 -10 3 0 2 5 -1 10 -3 6 -8 10 -11 10 -3 0
-2 -4 1 -10z" />
    <path d="M3684 418 l-7 -11 11 7 c7 4 12 9 12 12 0 8 -9 4 -16 -8z" />
    <path d="M3303 413 c4 -3 10 -3 14 0 3 4 0 7 -7 7 -7 0 -10 -3 -7 -7z" />
    <path d="M3218 403 c7 -3 16 -2 19 1 4 3 -2 6 -13 5 l-19 -1 13 -5z" />
    <path d="M3258 403 c7 -3 16 -2 19 1 4 3 -2 6 -13 5 l-19 -1 13 -5z" />
    <path d="M1445 390 c3 -5 8 -10 11 -10 3 0 2 5 -1 10 -3 6 -8 10 -11 10 -3 0
-2 -4 1 -10z" />
    <path d="M3654 378 l-7 -11 11 7 c7 4 12 9 12 12 0 8 -9 4 -16 -8z" />
    <path d="M1545 290 c3 -5 8 -10 11 -10 3 0 2 5 -1 10 -3 6 -8 10 -11 10 -3 0
-2 -4 1 -10z" />
    <path d="M3564 288 l-7 -11 11 7 c7 4 12 9 12 12 0 8 -9 4 -16 -8z" />
    <path d="M3524 258 l-7 -11 11 7 c7 4 12 9 12 12 0 8 -9 4 -16 -8z" />
    <path d="M1843 123 c4 -3 10 -3 14 0 3 4 0 7 -7 7 -7 0 -10 -3 -7 -7z" />
    <path d="M3233 113 c4 -3 10 -3 14 0 3 4 0 7 -7 7 -7 0 -10 -3 -7 -7z" />
    <path d="M3203 103 c4 -3 10 -3 14 0 3 4 0 7 -7 7 -7 0 -10 -3 -7 -7z" />
    <path d="M1933 93 c4 -3 10 -3 14 0 3 4 0 7 -7 7 -7 0 -10 -3 -7 -7z" />
    <path d="M1963 83 c4 -3 10 -3 14 0 3 4 0 7 -7 7 -7 0 -10 -3 -7 -7z" />
    <path d="M3133 83 c4 -3 10 -3 14 0 3 4 0 7 -7 7 -7 0 -10 -3 -7 -7z" />
    <path d="M2003 73 c4 -3 10 -3 14 0 3 4 0 7 -7 7 -7 0 -10 -3 -7 -7z" />
    <path d="M2043 63 c4 -3 10 -3 14 0 3 4 0 7 -7 7 -7 0 -10 -3 -7 -7z" />
    <path d="M3063 63 c4 -3 10 -3 14 0 3 4 0 7 -7 7 -7 0 -10 -3 -7 -7z" />
    <path d="M2083 53 c4 -3 10 -3 14 0 3 4 0 7 -7 7 -7 0 -10 -3 -7 -7z" />
    <path d="M3013 53 c4 -3 10 -3 14 0 3 4 0 7 -7 7 -7 0 -10 -3 -7 -7z" />
    <path d="M2123 43 c4 -3 10 -3 14 0 3 4 0 7 -7 7 -7 0 -10 -3 -7 -7z" />
    <path d="M2973 43 c4 -3 10 -3 14 0 3 4 0 7 -7 7 -7 0 -10 -3 -7 -7z" />
    <path d="M2173 33 c4 -3 10 -3 14 0 3 4 0 7 -7 7 -7 0 -10 -3 -7 -7z" />
    <path d="M2923 33 c4 -3 10 -3 14 0 3 4 0 7 -7 7 -7 0 -10 -3 -7 -7z" />
    <path d="M2233 23 c4 -3 10 -3 14 0 3 4 0 7 -7 7 -7 0 -10 -3 -7 -7z" />
    <path d="M2858 23 c7 -3 16 -2 19 1 4 3 -2 6 -13 5 l-19 -1 13 -5z" />
    <path d="M2308 13 c7 -3 16 -2 19 1 4 3 -2 6 -13 5 l-19 -1 13 -5z" />
    <path d="M2788 13 c7 -3 16 -2 19 1 4 3 -2 6 -13 5 l-19 -1 13 -5z" />
    <path d="M2408 3 c6 -2 18 -2 25 0 6 3 1 5 -13 5 -14 0 -19 -2 -12 -5z" />
    <path d="M2678 3 c6 -2 18 -2 25 0 6 3 1 5 -13 5 -14 0 -19 -2 -12 -5z" />
  </g>
  <g transform="translate(0.000000,512.000000) scale(0.100000,-0.100000)" fill="#fef2c0" stroke="none">
    <path d="M4052 3813 c70 -2 187 -2 260 0 73 1 16 3 -127 3 -143 0 -203 -2
-133 -3z" />
    <path d="M4493 3803 c4 -3 10 -3 14 0 3 4 0 7 -7 7 -7 0 -10 -3 -7 -7z" />
    <path d="M4725 3700 c3 -5 8 -10 11 -10 3 0 2 5 -1 10 -3 6 -8 10 -11 10 -3 0
-2 -4 1 -10z" />
    <path d="M4795 3630 c3 -5 8 -10 11 -10 3 0 2 5 -1 10 -3 6 -8 10 -11 10 -3 0
-2 -4 1 -10z" />
    <path d="M3922 3210 c0 -14 2 -19 5 -12 2 6 2 18 0 25 -3 6 -5 1 -5 -13z" />
    <path d="M3910 3130 c0 -7 3 -10 7 -7 3 4 3 10 0 14 -4 3 -7 0 -7 -7z" />
    <path d="M5010 3130 c0 -7 3 -10 7 -7 3 4 3 10 0 14 -4 3 -7 0 -7 -7z" />
    <path d="M3900 3090 c0 -7 3 -10 7 -7 3 4 3 10 0 14 -4 3 -7 0 -7 -7z" />
    <path d="M5020 3090 c0 -7 3 -10 7 -7 3 4 3 10 0 14 -4 3 -7 0 -7 -7z" />
    <path d="M5030 3040 c0 -7 3 -10 7 -7 3 4 3 10 0 14 -4 3 -7 0 -7 -7z" />
    <path d="M5040 2990 c0 -7 3 -10 7 -7 3 4 3 10 0 14 -4 3 -7 0 -7 -7z" />
    <path d="M5050 2940 c0 -7 3 -10 7 -7 3 4 3 10 0 14 -4 3 -7 0 -7 -7z" />
    <path d="M5060 2880 c0 -7 3 -10 7 -7 3 4 3 10 0 14 -4 3 -7 0 -7 -7z" />
    <path d="M3764 2808 l-7 -11 11 7 c7 4 12 9 12 12 0 8 -9 4 -16 -8z" />
    <path d="M5071 2804 l1 -19 5 13 c3 7 2 16 -1 19 -3 4 -6 -2 -5 -13z" />
    <path d="M3690 2725 c-24 -25 -42 -45 -39 -45 3 0 25 20 49 45 24 25 42 45 39
45 -3 0 -25 -20 -49 -45z" />
    <path d="M5081 2714 l1 -19 5 13 c3 7 2 16 -1 19 -3 4 -6 -2 -5 -13z" />
    <path d="M3604 2648 l-7 -11 11 7 c7 4 12 9 12 12 0 8 -9 4 -16 -8z" />
    <path d="M5092 2530 c0 -14 2 -19 5 -12 2 6 2 18 0 25 -3 6 -5 1 -5 -13z" />
    <path d="M3248 2503 c7 -3 16 -2 19 1 4 3 -2 6 -13 5 l-19 -1 13 -5z" />
    <path d="M1878 2493 c7 -3 16 -2 19 1 4 3 -2 6 -13 5 l-19 -1 13 -5z" />
    <path d="M1813 2483 c4 -3 10 -3 14 0 3 4 0 7 -7 7 -7 0 -10 -3 -7 -7z" />
    <path d="M1574 2368 l-7 -11 11 7 c12 7 16 16 8 16 -3 0 -8 -5 -12 -12z" />
    <path d="M5080 2350 c0 -7 3 -10 7 -7 3 4 3 10 0 14 -4 3 -7 0 -7 -7z" />
    <path d="M5070 2270 c0 -7 3 -10 7 -7 3 4 3 10 0 14 -4 3 -7 0 -7 -7z" />
    <path d="M5040 2110 c0 -7 3 -10 7 -7 3 4 3 10 0 14 -4 3 -7 0 -7 -7z" />
    <path d="M1350 2030 c0 -7 3 -10 7 -7 3 4 3 10 0 14 -4 3 -7 0 -7 -7z" />
    <path d="M1340 1990 c0 -7 3 -10 7 -7 3 4 3 10 0 14 -4 3 -7 0 -7 -7z" />
    <path d="M1335 1295 c0 -352 1 -495 2 -317 2 178 2 466 0 640 -1 174 -2 29 -2
-323z" />
    <path d="M4804 1538 l-7 -11 11 7 c12 7 16 16 8 16 -3 0 -8 -5 -12 -12z" />
    <path d="M4749 1473 l-24 -28 28 24 c25 23 32 31 24 31 -2 0 -14 -12 -28 -27z" />
    <path d="M4438 1333 c7 -3 16 -2 19 1 4 3 -2 6 -13 5 l-19 -1 13 -5z" />
    <path d="M3213 863 c4 -3 10 -3 14 0 3 4 0 7 -7 7 -7 0 -10 -3 -7 -7z" />
    <path d="M3263 863 c4 -3 10 -3 14 0 3 4 0 7 -7 7 -7 0 -10 -3 -7 -7z" />
    <path d="M3770 650 c0 -7 3 -10 7 -7 3 4 3 10 0 14 -4 3 -7 0 -7 -7z" />
    <path d="M3010 640 c0 -7 3 -10 7 -7 3 4 3 10 0 14 -4 3 -7 0 -7 -7z" />
    <path d="M3460 590 c0 -7 3 -10 7 -7 3 4 3 10 0 14 -4 3 -7 0 -7 -7z" />
    <path d="M3394 468 l-19 -23 23 19 c12 11 22 21 22 23 0 8 -8 2 -26 -19z" />
    <path d="M3105 450 c3 -5 8 -10 11 -10 3 0 2 5 -1 10 -3 6 -8 10 -11 10 -3 0
-2 -4 1 -10z" />
    <path d="M1435 400 c3 -5 8 -10 11 -10 3 0 2 5 -1 10 -3 6 -8 10 -11 10 -3 0
-2 -4 1 -10z" />
    <path d="M3238 403 c7 -3 16 -2 19 1 4 3 -2 6 -13 5 l-19 -1 13 -5z" />
    <path d="M1555 280 c3 -5 8 -10 11 -10 3 0 2 5 -1 10 -3 6 -8 10 -11 10 -3 0
-2 -4 1 -10z" />
    <path d="M1595 250 c3 -5 8 -10 11 -10 3 0 2 5 -1 10 -3 6 -8 10 -11 10 -3 0
-2 -4 1 -10z" />
    <path d="M2223 23 c4 -3 10 -3 14 0 3 4 0 7 -7 7 -7 0 -10 -3 -7 -7z" />
    <path d="M2293 13 c4 -3 10 -3 14 0 3 4 0 7 -7 7 -7 0 -10 -3 -7 -7z" />
    <path d="M2803 13 c4 -3 10 -3 14 0 3 4 0 7 -7 7 -7 0 -10 -3 -7 -7z" />
    <path d="M2378 3 c6 -2 18 -2 25 0 6 3 1 5 -13 5 -14 0 -19 -2 -12 -5z" />
    <path d="M2708 3 c7 -3 16 -2 19 1 4 3 -2 6 -13 5 l-19 -1 13 -5z" />
  </g>
  <g transform="translate(0.000000,512.000000) scale(0.100000,-0.100000)" fill="#a8c4db" stroke="none">
    <path d="M2333 5113 c9 -2 25 -2 35 0 9 3 1 5 -18 5 -19 0 -27 -2 -17 -5z" />
    <path d="M2733 5113 c9 -2 25 -2 35 0 9 3 1 5 -18 5 -19 0 -27 -2 -17 -5z" />
    <path d="M2198 5103 c6 -2 18 -2 25 0 6 3 1 5 -13 5 -14 0 -19 -2 -12 -5z" />
    <path d="M2883 5103 c9 -2 23 -2 30 0 6 3 -1 5 -18 5 l-30 0 18 -5z" />
    <path d="M2108 5093 c7 -3 16 -2 19 1 4 3 -2 6 -13 5 l-19 -1 13 -5z" />
    <path d="M2978 5093 c6 -2 18 -2 25 0 6 3 1 5 -13 5 -14 0 -19 -2 -12 -5z" />
    <path d="M2028 5083 c6 -2 18 -2 25 0 6 3 1 5 -13 5 -14 0 -19 -2 -12 -5z" />
    <path d="M3058 5083 c6 -2 18 -2 25 0 6 3 1 5 -13 5 -14 0 -19 -2 -12 -5z" />
    <path d="M1968 5073 c7 -3 16 -2 19 1 4 3 -2 6 -13 5 l-19 -1 13 -5z" />
    <path d="M3128 5073 c6 -2 18 -2 25 0 6 3 1 5 -13 5 -14 0 -19 -2 -12 -5z" />
    <path d="M1918 5063 c7 -3 16 -2 19 1 4 3 -2 6 -13 5 l-19 -1 13 -5z" />
    <path d="M3188 5063 c7 -3 16 -2 19 1 4 3 -2 6 -13 5 l-19 -1 13 -5z" />
    <path d="M1858 5053 c7 -3 16 -2 19 1 4 3 -2 6 -13 5 l-19 -1 13 -5z" />
    <path d="M1818 5043 c7 -3 16 -2 19 1 4 3 -2 6 -13 5 l-19 -1 13 -5z" />
    <path d="M3263 5043 c4 -3 10 -3 14 0 3 4 0 7 -7 7 -7 0 -10 -3 -7 -7z" />
    <path d="M1755 5030 l-20 -9 15 0 c8 0 24 4 35 9 l20 9 -15 0 c-8 0 -24 -4
-35 -9z" />
    <path d="M3293 5033 c4 -3 10 -3 14 0 3 4 0 7 -7 7 -7 0 -10 -3 -7 -7z" />
    <path d="M3323 5023 c4 -3 10 -3 14 0 3 4 0 7 -7 7 -7 0 -10 -3 -7 -7z" />
    <path d="M1663 4993 c4 -3 10 -3 14 0 3 4 0 7 -7 7 -7 0 -10 -3 -7 -7z" />
    <path d="M3455 4960 c3 -5 8 -10 11 -10 3 0 2 5 -1 10 -3 6 -8 10 -11 10 -3 0
-2 -4 1 -10z" />
    <path d="M1539 4933 l-14 -18 18 14 c16 13 21 21 13 21 -2 0 -10 -8 -17 -17z" />
    <path d="M3500 4936 c0 -2 8 -10 18 -17 l17 -14 -14 18 c-13 16 -21 21 -21 13z" />
    <path d="M3555 4890 c10 -11 20 -20 23 -20 3 0 -3 9 -13 20 -10 11 -20 20 -23
20 -3 0 3 -9 13 -20z" />
    <path d="M1429 4833 l-14 -18 18 14 c9 7 17 15 17 17 0 8 -8 3 -21 -13z" />
    <path d="M3625 4820 c10 -11 20 -20 23 -20 3 0 -3 9 -13 20 -10 11 -20 20 -23
20 -3 0 3 -9 13 -20z" />
    <path d="M3685 4734 c19 -32 35 -62 35 -68 0 -5 3 -7 6 -3 7 7 -43 102 -63
118 -7 6 3 -15 22 -47z" />
    <path d="M1848 4743 c12 -2 30 -2 40 0 9 3 -1 5 -23 4 l-40 0 23 -4z" />
    <path d="M1793 4733 c4 -3 10 -3 14 0 3 4 0 7 -7 7 -7 0 -10 -3 -7 -7z" />
    <path d="M1928 4733 c7 -3 16 -2 19 1 4 3 -2 6 -13 5 l-19 -1 13 -5z" />
    <path d="M1366 4715 c-3 -9 -6 -22 -5 -28 0 -7 5 -1 10 12 5 13 8 26 5 28 -2
2 -6 -3 -10 -12z" />
    <path d="M1744 4708 l-7 -11 11 7 c7 4 12 9 12 12 0 8 -9 4 -16 -8z" />
    <path d="M1699 4673 l-14 -18 18 14 c9 7 17 15 17 17 0 8 -8 3 -21 -13z" />
    <path d="M1351 4654 l1 -19 5 13 c3 7 2 16 -1 19 -3 4 -6 -2 -5 -13z" />
    <path d="M1669 4633 l-14 -18 18 14 c9 7 17 15 17 17 0 8 -8 3 -21 -13z" />
    <path d="M3740 4620 c0 -7 3 -10 7 -7 3 4 3 10 0 14 -4 3 -7 0 -7 -7z" />
    <path d="M1342 4600 c0 -14 2 -19 5 -12 2 6 2 18 0 25 -3 6 -5 1 -5 -13z" />
    <path d="M1651 4594 l1 -19 5 13 c3 7 2 16 -1 19 -3 4 -6 -2 -5 -13z" />
    <path d="M3750 4590 c0 -7 3 -10 7 -7 3 4 3 10 0 14 -4 3 -7 0 -7 -7z" />
    <path d="M1641 4554 l1 -19 5 13 c3 7 2 16 -1 19 -3 4 -6 -2 -5 -13z" />
    <path d="M3761 4554 l1 -19 5 13 c3 7 2 16 -1 19 -3 4 -6 -2 -5 -13z" />
    <path d="M2091 4544 l1 -19 5 13 c3 7 2 16 -1 19 -3 4 -6 -2 -5 -13z" />
    <path d="M3772 4490 c0 -14 2 -19 5 -12 2 6 2 18 0 25 -3 6 -5 1 -5 -13z" />
    <path d="M1334 4230 c0 -146 2 -205 3 -132 2 72 2 192 0 265 -1 72 -3 13 -3
-133z" />
    <path d="M2091 4474 l1 -19 5 13 c3 7 2 16 -1 19 -3 4 -6 -2 -5 -13z" />
    <path d="M1641 4464 l1 -19 5 13 c3 7 2 16 -1 19 -3 4 -6 -2 -5 -13z" />
    <path d="M2081 4434 l1 -19 5 13 c3 7 2 16 -1 19 -3 4 -6 -2 -5 -13z" />
    <path d="M1670 4386 c0 -2 8 -10 18 -17 l17 -14 -14 18 c-13 16 -21 21 -21 13z" />
    <path d="M2039 4363 l-14 -18 18 14 c16 13 21 21 13 21 -2 0 -10 -8 -17 -17z" />
    <path d="M1720 4336 c0 -2 8 -10 18 -17 l17 -14 -14 18 c-13 16 -21 21 -21 13z" />
    <path d="M1999 4323 l-14 -18 18 14 c9 7 17 15 17 17 0 8 -8 3 -21 -13z" />
    <path d="M1818 4283 c7 -3 16 -2 19 1 4 3 -2 6 -13 5 l-19 -1 13 -5z" />
    <path d="M1908 4283 c7 -3 16 -2 19 1 4 3 -2 6 -13 5 l-19 -1 13 -5z" />
    <path d="M2550 3960 c0 -7 3 -10 7 -7 3 4 3 10 0 14 -4 3 -7 0 -7 -7z" />
    <path d="M1700 3820 l-855 -5 858 -3 857 -2 0 10 c0 6 -1 9 -2 8 -2 -2 -388
-5 -858 -8z" />
    <path d="M738 3803 c6 -2 18 -2 25 0 6 3 1 5 -13 5 -14 0 -19 -2 -12 -5z" />
    <path d="M688 3793 c7 -3 16 -2 19 1 4 3 -2 6 -13 5 l-19 -1 13 -5z" />
    <path d="M653 3783 c4 -3 10 -3 14 0 3 4 0 7 -7 7 -7 0 -10 -3 -7 -7z" />
    <path d="M600 3770 c-18 -12 -2 -12 25 0 l20 9 -15 0 c-8 0 -22 -4 -30 -9z" />
    <path d="M543 3743 c4 -3 10 -3 14 0 3 4 0 7 -7 7 -7 0 -10 -3 -7 -7z" />
    <path d="M494 3718 l-7 -11 11 7 c7 4 12 9 12 12 0 8 -9 4 -16 -8z" />
    <path d="M419 3673 l-14 -18 18 14 c9 7 17 15 17 17 0 8 -8 3 -21 -13z" />
    <path d="M379 3643 l-14 -18 18 14 c9 7 17 15 17 17 0 8 -8 3 -21 -13z" />
    <path d="M274 3538 l-19 -23 23 19 c21 18 27 26 19 26 -2 0 -12 -10 -23 -22z" />
    <path d="M244 3498 l-7 -11 11 7 c12 7 16 16 8 16 -3 0 -8 -5 -12 -12z" />
    <path d="M224 3468 l-7 -11 11 7 c7 4 12 9 12 12 0 8 -9 4 -16 -8z" />
    <path d="M146 3315 c-9 -26 -7 -32 5 -12 6 10 9 21 6 23 -2 3 -7 -2 -11 -11z" />
    <path d="M121 3234 l1 -19 5 13 c3 7 2 16 -1 19 -3 4 -6 -2 -5 -13z" />
    <path d="M3772 3210 c0 -14 2 -19 5 -12 2 6 2 18 0 25 -3 6 -5 1 -5 -13z" />
    <path d="M101 3154 l1 -19 5 13 c3 7 2 16 -1 19 -3 4 -6 -2 -5 -13z" />
    <path d="M3761 3144 l1 -19 5 13 c3 7 2 16 -1 19 -3 4 -6 -2 -5 -13z" />
    <path d="M91 3114 l1 -19 5 13 c3 7 2 16 -1 19 -3 4 -6 -2 -5 -13z" />
    <path d="M3751 3104 l1 -19 5 13 c3 7 2 16 -1 19 -3 4 -6 -2 -5 -13z" />
    <path d="M81 3064 l1 -19 5 13 c3 7 2 16 -1 19 -3 4 -6 -2 -5 -13z" />
    <path d="M3730 3050 c0 -7 3 -10 7 -7 3 4 3 10 0 14 -4 3 -7 0 -7 -7z" />
    <path d="M71 3014 l1 -19 5 13 c3 7 2 16 -1 19 -3 4 -6 -2 -5 -13z" />
    <path d="M61 2964 l1 -19 5 13 c3 7 2 16 -1 19 -3 4 -6 -2 -5 -13z" />
    <path d="M3674 2938 l-7 -11 11 7 c12 7 16 16 8 16 -3 0 -8 -5 -12 -12z" />
    <path d="M51 2904 l1 -19 5 13 c3 7 2 16 -1 19 -3 4 -6 -2 -5 -13z" />
    <path d="M3639 2883 l-14 -18 18 14 c16 13 21 21 13 21 -2 0 -10 -8 -17 -17z" />
    <path d="M41 2834 l1 -19 5 13 c3 7 2 16 -1 19 -3 4 -6 -2 -5 -13z" />
    <path d="M3539 2783 l-14 -18 18 14 c9 7 17 15 17 17 0 8 -8 3 -21 -13z" />
    <path d="M3504 2758 l-7 -11 11 7 c12 7 16 16 8 16 -3 0 -8 -5 -12 -12z" />
    <path d="M32 2740 c0 -14 2 -19 5 -12 2 6 2 18 0 25 -3 6 -5 1 -5 -13z" />
    <path d="M3383 2693 c4 -3 10 -3 14 0 3 4 0 7 -7 7 -7 0 -10 -3 -7 -7z" />
    <path d="M3328 2673 c7 -3 16 -2 19 1 4 3 -2 6 -13 5 l-19 -1 13 -5z" />
    <path d="M3288 2663 c7 -3 16 -2 19 1 4 3 -2 6 -13 5 l-19 -1 13 -5z" />
    <path d="M3228 2653 c6 -2 18 -2 25 0 6 3 1 5 -13 5 -14 0 -19 -2 -12 -5z" />
    <path d="M1848 2643 c7 -3 16 -2 19 1 4 3 -2 6 -13 5 l-19 -1 13 -5z" />
    <path d="M1788 2633 c7 -3 16 -2 19 1 4 3 -2 6 -13 5 l-19 -1 13 -5z" />
    <path d="M1748 2623 c7 -3 16 -2 19 1 4 3 -2 6 -13 5 l-19 -1 13 -5z" />
    <path d="M1683 2603 c4 -3 10 -3 14 0 3 4 0 7 -7 7 -7 0 -10 -3 -7 -7z" />
    <path d="M1644 2588 l-7 -11 11 7 c12 7 16 16 8 16 -3 0 -8 -5 -12 -12z" />
    <path d="M1573 2553 c4 -3 10 -3 14 0 3 4 0 7 -7 7 -7 0 -10 -3 -7 -7z" />
    <path d="M1534 2528 l-7 -11 11 7 c12 7 16 16 8 16 -3 0 -8 -5 -12 -12z" />
    <path d="M1444 2458 l-19 -23 23 19 c21 18 27 26 19 26 -2 0 -12 -10 -23 -22z" />
    <path d="M32 2410 c0 -14 2 -19 5 -12 2 6 2 18 0 25 -3 6 -5 1 -5 -13z" />
    <path d="M1364 2378 l-19 -23 23 19 c21 18 27 26 19 26 -2 0 -12 -10 -23 -22z" />
    <path d="M41 2314 l1 -19 5 13 c3 7 2 16 -1 19 -3 4 -6 -2 -5 -13z" />
    <path d="M51 2244 l1 -19 5 13 c3 7 2 16 -1 19 -3 4 -6 -2 -5 -13z" />
    <path d="M1255 2219 c-4 -6 -5 -12 -2 -15 2 -3 7 2 10 11 7 17 1 20 -8 4z" />
    <path d="M61 2184 l1 -19 5 13 c3 7 2 16 -1 19 -3 4 -6 -2 -5 -13z" />
    <path d="M71 2124 l1 -19 5 13 c3 7 2 16 -1 19 -3 4 -6 -2 -5 -13z" />
    <path d="M81 2084 l1 -19 5 13 c3 7 2 16 -1 19 -3 4 -6 -2 -5 -13z" />
    <path d="M1201 2064 l1 -19 5 13 c3 7 2 16 -1 19 -3 4 -6 -2 -5 -13z" />
    <path d="M91 2034 l1 -19 5 13 c3 7 2 16 -1 19 -3 4 -6 -2 -5 -13z" />
    <path d="M1191 2014 l1 -19 5 13 c3 7 2 16 -1 19 -3 4 -6 -2 -5 -13z" />
    <path d="M110 1950 c0 -7 3 -10 7 -7 3 4 3 10 0 14 -4 3 -7 0 -7 -7z" />
    <path d="M1182 1920 c0 -19 2 -27 5 -17 2 9 2 25 0 35 -3 9 -5 1 -5 -18z" />
    <path d="M130 1880 c0 -7 3 -10 7 -7 3 4 3 10 0 14 -4 3 -7 0 -7 -7z" />
    <path d="M141 1850 c0 -8 4 -22 9 -30 12 -18 12 -2 0 25 l-9 20 0 -15z" />
    <path d="M290 1556 c0 -2 8 -10 18 -17 l17 -14 -14 18 c-13 16 -21 21 -21 13z" />
    <path d="M370 1476 c0 -2 8 -10 18 -17 l17 -14 -14 18 c-13 16 -21 21 -21 13z" />
    <path d="M410 1446 c0 -2 8 -10 18 -17 l17 -14 -14 18 c-13 16 -21 21 -21 13z" />
    <path d="M558 1363 c7 -3 16 -2 19 1 4 3 -2 6 -13 5 l-19 -1 13 -5z" />
    <path d="M593 1353 c4 -3 10 -3 14 0 3 4 0 7 -7 7 -7 0 -10 -3 -7 -7z" />
    <path d="M638 1343 c7 -3 16 -2 19 1 4 3 -2 6 -13 5 l-19 -1 13 -5z" />
    <path d="M713 1333 c9 -2 25 -2 35 0 9 3 1 5 -18 5 -19 0 -27 -2 -17 -5z" />
  </g>
  <g transform="translate(0.000000,512.000000) scale(0.100000,-0.100000)" fill="#cdddea" stroke="none">
    <path d="M2298 5113 c6 -2 18 -2 25 0 6 3 1 5 -13 5 -14 0 -19 -2 -12 -5z" />
    <path d="M2778 5113 c6 -2 18 -2 25 0 6 3 1 5 -13 5 -14 0 -19 -2 -12 -5z" />
    <path d="M2178 5103 c7 -3 16 -2 19 1 4 3 -2 6 -13 5 l-19 -1 13 -5z" />
    <path d="M2913 5103 c4 -3 10 -3 14 0 3 4 0 7 -7 7 -7 0 -10 -3 -7 -7z" />
    <path d="M2093 5093 c4 -3 10 -3 14 0 3 4 0 7 -7 7 -7 0 -10 -3 -7 -7z" />
    <path d="M3003 5093 c4 -3 10 -3 14 0 3 4 0 7 -7 7 -7 0 -10 -3 -7 -7z" />
    <path d="M2013 5083 c4 -3 10 -3 14 0 3 4 0 7 -7 7 -7 0 -10 -3 -7 -7z" />
    <path d="M1903 5063 c4 -3 10 -3 14 0 3 4 0 7 -7 7 -7 0 -10 -3 -7 -7z" />
    <path d="M3233 5053 c4 -3 10 -3 14 0 3 4 0 7 -7 7 -7 0 -10 -3 -7 -7z" />
    <path d="M1764 5028 l-7 -11 11 7 c12 7 16 16 8 16 -3 0 -8 -5 -12 -12z" />
    <path d="M1713 5013 c4 -3 10 -3 14 0 3 4 0 7 -7 7 -7 0 -10 -3 -7 -7z" />
    <path d="M1675 5000 l-6 -10 15 6 c18 7 21 14 7 14 -6 0 -13 -4 -16 -10z" />
    <path d="M3371 5006 c10 -9 69 -36 69 -32 0 6 -55 36 -66 36 -4 0 -5 -2 -3 -4z" />
    <path d="M1590 4965 c-25 -13 -40 -24 -35 -24 6 0 30 11 55 24 25 13 41 24 35
24 -5 0 -30 -11 -55 -24z" />
    <path d="M3460 4956 c0 -2 7 -7 16 -10 l15 -6 -6 10 c-6 10 -25 14 -25 6z" />
    <path d="M1509 4913 l-14 -18 20 15 c11 8 22 16 24 17 2 2 0 3 -6 3 -6 0 -17
-8 -24 -17z" />
    <path d="M1460 4869 c0 -5 5 -7 10 -4 6 3 10 8 10 11 0 2 -4 4 -10 4 -5 0 -10
-5 -10 -11z" />
    <path d="M1402 4791 c-12 -21 -22 -43 -22 -47 0 -5 12 11 25 35 14 24 24 45
22 47 -2 2 -13 -14 -25 -35z" />
    <path d="M3640 4800 c0 -7 3 -10 7 -7 3 4 3 10 0 14 -4 3 -7 0 -7 -7z" />
    <path d="M3670 4760 c0 -7 3 -10 7 -7 3 4 3 10 0 14 -4 3 -7 0 -7 -7z" />
    <path d="M1947 4729 c7 -7 15 -10 18 -7 3 3 -2 9 -12 12 l-18 7 12 -12z" />
    <path d="M3690 4730 c0 -7 3 -10 7 -7 3 4 3 10 0 14 -4 3 -7 0 -7 -7z" />
    <path d="M1364 4708 l-7 -11 11 7 c12 7 16 16 8 16 -3 0 -8 -5 -12 -12z" />
    <path d="M1985 4710 c3 -5 8 -10 11 -10 3 0 2 5 -1 10 -3 6 -8 10 -11 10 -3 0
-2 -4 1 -10z" />
    <path d="M1733 4703 c4 -3 10 -3 14 0 3 4 0 7 -7 7 -7 0 -10 -3 -7 -7z" />
    <path d="M3726 4657 c3 -10 9 -15 12 -12 3 3 0 11 -7 18 l-12 12 7 -18z" />
    <path d="M1680 4650 c0 -7 3 -10 7 -7 3 4 3 10 0 14 -4 3 -7 0 -7 -7z" />
    <path d="M2055 4640 c3 -5 8 -10 11 -10 3 0 2 5 -1 10 -3 6 -8 10 -11 10 -3 0
-2 -4 1 -10z" />
    <path d="M1656 4613 l-7 -18 12 12 c7 7 10 15 7 18 -3 3 -9 -2 -12 -12z" />
    <path d="M2080 4590 c0 -7 3 -10 7 -7 3 4 3 10 0 14 -4 3 -7 0 -7 -7z" />
    <path d="M1644 4578 l-7 -11 11 7 c12 7 16 16 8 16 -3 0 -8 -5 -12 -12z" />
    <path d="M2092 4510 c0 -19 2 -27 5 -17 2 9 2 25 0 35 -3 9 -5 1 -5 -18z" />
    <path d="M1332 4505 l0 -30 5 18 c2 9 2 23 0 30 -3 6 -5 -1 -5 -18z" />
    <path d="M1640 4480 c0 -7 3 -10 7 -7 3 4 3 10 0 14 -4 3 -7 0 -7 -7z" />
    <path d="M1651 4435 c0 -5 6 -21 14 -35 8 -14 14 -20 14 -15 0 6 -6 21 -14 35
-8 14 -14 21 -14 15z" />
    <path d="M2070 4410 c-6 -11 -8 -20 -6 -20 3 0 10 9 16 20 6 11 8 20 6 20 -3
0 -10 -9 -16 -20z" />
    <path d="M1696 4356 c3 -8 13 -17 22 -21 l16 -6 -19 21 c-21 24 -26 25 -19 6z" />
    <path d="M2019 4343 l-14 -18 18 14 c16 13 21 21 13 21 -2 0 -10 -8 -17 -17z" />
    <path d="M1740 4316 c0 -2 7 -7 16 -10 l15 -6 -6 10 c-6 10 -25 14 -25 6z" />
    <path d="M1960 4305 c-14 -8 -20 -14 -15 -14 6 0 21 6 35 14 14 8 21 14 15 14
-5 0 -21 -6 -35 -14z" />
    <path d="M1783 4293 c4 -3 10 -3 14 0 3 4 0 7 -7 7 -7 0 -10 -3 -7 -7z" />
    <path d="M1833 4283 c4 -3 10 -3 14 0 3 4 0 7 -7 7 -7 0 -10 -3 -7 -7z" />
    <path d="M1893 4283 c4 -3 10 -3 14 0 3 4 0 7 -7 7 -7 0 -10 -3 -7 -7z" />
    <path d="M2553 3885 c0 -44 2 -61 4 -37 2 23 2 59 0 80 -2 20 -4 1 -4 -43z" />
    <path d="M823 3813 c9 -2 23 -2 30 0 6 3 -1 5 -18 5 l-30 0 18 -5z" />
    <path d="M604 3768 l-7 -11 11 7 c7 4 12 9 12 12 0 8 -9 4 -16 -8z" />
    <path d="M555 3750 l-6 -10 15 6 c18 7 21 14 7 14 -6 0 -13 -4 -16 -10z" />
    <path d="M455 3700 c-39 -26 -25 -26 17 0 18 11 29 20 23 20 -5 0 -23 -9 -40
-20z" />
    <path d="M395 3660 l-6 -10 15 6 c18 7 21 14 7 14 -6 0 -13 -4 -16 -10z" />
    <path d="M335 3609 c-11 -17 1 -21 15 -4 l12 15 -10 0 c-6 0 -14 -5 -17 -11z" />
    <path d="M260 3520 c0 -7 3 -10 7 -7 3 4 3 10 0 14 -4 3 -7 0 -7 -7z" />
    <path d="M184 3399 c-14 -28 -24 -53 -22 -55 2 -2 16 21 31 51 15 30 25 55 22
55 -3 0 -16 -23 -31 -51z" />
    <path d="M144 3308 l-7 -11 11 7 c12 7 16 16 8 16 -3 0 -8 -5 -12 -12z" />
    <path d="M130 3270 c0 -7 3 -10 7 -7 3 4 3 10 0 14 -4 3 -7 0 -7 -7z" />
    <path d="M110 3200 c0 -7 3 -10 7 -7 3 4 3 10 0 14 -4 3 -7 0 -7 -7z" />
    <path d="M3743 3083 c-3 -10 -8 -22 -11 -27 -3 -5 0 -6 5 -3 11 7 25 47 17 47
-3 0 -7 -8 -11 -17z" />
    <path d="M70 3030 c0 -7 3 -10 7 -7 3 4 3 10 0 14 -4 3 -7 0 -7 -7z" />
    <path d="M3707 2995 c-9 -19 -15 -35 -12 -35 7 0 37 61 33 66 -3 2 -12 -12
-21 -31z" />
    <path d="M3662 2920 c-18 -29 -15 -38 4 -12 9 13 14 25 12 27 -2 2 -9 -5 -16
-15z" />
    <path d="M50 2920 c0 -7 3 -10 7 -7 3 4 3 10 0 14 -4 3 -7 0 -7 -7z" />
    <path d="M40 2850 c0 -7 3 -10 7 -7 3 4 3 10 0 14 -4 3 -7 0 -7 -7z" />
    <path d="M31 2764 l1 -19 5 13 c3 7 2 16 -1 19 -3 4 -6 -2 -5 -13z" />
    <path d="M3523 2773 c4 -3 10 -3 14 0 3 4 0 7 -7 7 -7 0 -10 -3 -7 -7z" />
    <path d="M3470 2740 l-15 -10 12 0 c6 0 15 5 18 10 8 12 4 12 -15 0z" />
    <path d="M3363 2690 c-13 -5 -23 -11 -23 -14 0 -7 40 6 46 15 6 10 6 10 -23
-1z" />
    <path d="M1868 2643 c7 -3 16 -2 19 1 4 3 -2 6 -13 5 l-19 -1 13 -5z" />
    <path d="M1764 2628 l-7 -11 11 7 c7 4 12 9 12 12 0 8 -9 4 -16 -8z" />
    <path d="M1713 2613 c4 -3 10 -3 14 0 3 4 0 7 -7 7 -7 0 -10 -3 -7 -7z" />
    <path d="M23 2575 l0 -40 4 23 c2 12 2 30 0 40 -3 9 -5 -1 -4 -23z" />
    <path d="M1605 2570 l-6 -10 15 6 c18 7 21 14 7 14 -6 0 -13 -4 -16 -10z" />
    <path d="M1550 2540 l-15 -10 12 0 c6 0 15 5 18 10 8 12 4 12 -15 0z" />
    <path d="M1490 2500 l-15 -10 12 0 c6 0 15 5 18 10 8 12 4 12 -15 0z" />
    <path d="M1420 2437 c-8 -7 -22 -21 -30 -32 -8 -11 0 -7 18 9 29 27 37 37 30
36 -2 0 -10 -6 -18 -13z" />
    <path d="M31 2384 l1 -19 5 13 c3 7 2 16 -1 19 -3 4 -6 -2 -5 -13z" />
    <path d="M1326 2334 l-6 -17 15 13 c17 14 19 20 6 20 -5 0 -12 -7 -15 -16z" />
    <path d="M40 2300 c0 -7 3 -10 7 -7 3 4 3 10 0 14 -4 3 -7 0 -7 -7z" />
    <path d="M1304 2298 l-7 -11 11 7 c12 7 16 16 8 16 -3 0 -8 -5 -12 -12z" />
    <path d="M1280 2260 c-6 -11 -8 -20 -6 -20 3 0 10 9 16 20 6 11 8 20 6 20 -3
0 -10 -9 -16 -20z" />
    <path d="M50 2230 c0 -7 3 -10 7 -7 3 4 3 10 0 14 -4 3 -7 0 -7 -7z" />
    <path d="M1226 2150 c-9 -22 -16 -46 -16 -53 1 -6 10 10 20 37 11 28 18 51 16
53 -2 2 -11 -14 -20 -37z" />
    <path d="M100 1990 c0 -7 3 -10 7 -7 3 4 3 10 0 14 -4 3 -7 0 -7 -7z" />
    <path d="M120 1910 c0 -7 3 -10 7 -7 3 4 3 10 0 14 -4 3 -7 0 -7 -7z" />
    <path d="M1178 1615 c-2 -157 0 -285 5 -285 4 0 7 128 7 285 0 157 -2 285 -5
285 -2 0 -6 -128 -7 -285z" />
    <path d="M145 1830 c3 -5 8 -10 11 -10 3 0 2 5 -1 10 -3 6 -8 10 -11 10 -3 0
-2 -4 1 -10z" />
    <path d="M160 1790 c0 -7 3 -10 7 -7 3 4 3 10 0 14 -4 3 -7 0 -7 -7z" />
    <path d="M180 1746 c0 -11 50 -106 55 -106 3 0 -7 24 -21 53 -28 55 -34 65
-34 53z" />
    <path d="M245 1620 c3 -5 8 -10 11 -10 3 0 2 5 -1 10 -3 6 -8 10 -11 10 -3 0
-2 -4 1 -10z" />
    <path d="M265 1590 c3 -5 8 -10 11 -10 3 0 2 5 -1 10 -3 6 -8 10 -11 10 -3 0
-2 -4 1 -10z" />
    <path d="M430 1426 c0 -2 7 -7 16 -10 l15 -6 -6 10 c-6 10 -25 14 -25 6z" />
    <path d="M530 1376 c0 -2 7 -7 16 -10 l15 -6 -6 10 c-6 10 -25 14 -25 6z" />
    <path d="M693 1333 c4 -3 10 -3 14 0 3 4 0 7 -7 7 -7 0 -10 -3 -7 -7z" />
  </g>
  <g transform="translate(0.000000,512.000000) scale(0.100000,-0.100000)" fill="#6c98bb" stroke="none">
    <path d="M2413 5113 c9 -2 25 -2 35 0 9 3 1 5 -18 5 -19 0 -27 -2 -17 -5z" />
    <path d="M2658 5113 c12 -2 30 -2 40 0 9 3 -1 5 -23 4 l-40 0 23 -4z" />
    <path d="M2238 5103 c7 -3 16 -2 19 1 4 3 -2 6 -13 5 l-19 -1 13 -5z" />
    <path d="M2853 5103 c4 -3 10 -3 14 0 3 4 0 7 -7 7 -7 0 -10 -3 -7 -7z" />
    <path d="M2133 5093 c4 -3 10 -3 14 0 3 4 0 7 -7 7 -7 0 -10 -3 -7 -7z" />
    <path d="M2958 5093 c7 -3 16 -2 19 1 4 3 -2 6 -13 5 l-19 -1 13 -5z" />
    <path d="M2053 5083 c4 -3 10 -3 14 0 3 4 0 7 -7 7 -7 0 -10 -3 -7 -7z" />
    <path d="M3043 5083 c4 -3 10 -3 14 0 3 4 0 7 -7 7 -7 0 -10 -3 -7 -7z" />
    <path d="M1983 5073 c4 -3 10 -3 14 0 3 4 0 7 -7 7 -7 0 -10 -3 -7 -7z" />
    <path d="M3113 5073 c4 -3 10 -3 14 0 3 4 0 7 -7 7 -7 0 -10 -3 -7 -7z" />
    <path d="M1873 5053 c4 -3 10 -3 14 0 3 4 0 7 -7 7 -7 0 -10 -3 -7 -7z" />
    <path d="M3223 5053 c4 -3 10 -3 14 0 3 4 0 7 -7 7 -7 0 -10 -3 -7 -7z" />
    <path d="M1464 4868 l-29 -33 33 29 c30 28 37 36 29 36 -2 0 -16 -15 -33 -32z" />
    <path d="M1414 4808 l-7 -11 11 7 c12 7 16 16 8 16 -3 0 -8 -5 -12 -12z" />
    <path d="M3645 4790 c3 -5 8 -10 11 -10 3 0 2 5 -1 10 -3 6 -8 10 -11 10 -3 0
-2 -4 1 -10z" />
    <path d="M1823 4743 c4 -3 10 -3 14 0 3 4 0 7 -7 7 -7 0 -10 -3 -7 -7z" />
    <path d="M1893 4743 c4 -3 10 -3 14 0 3 4 0 7 -7 7 -7 0 -10 -3 -7 -7z" />
    <path d="M1724 4698 l-7 -11 11 7 c12 7 16 16 8 16 -3 0 -8 -5 -12 -12z" />
    <path d="M2025 4680 c10 -11 20 -20 23 -20 3 0 -3 9 -13 20 -10 11 -20 20 -23
20 -3 0 3 -9 13 -20z" />
    <path d="M1684 4658 l-7 -11 11 7 c12 7 16 16 8 16 -3 0 -8 -5 -12 -12z" />
    <path d="M1350 4640 c0 -7 3 -10 7 -7 3 4 3 10 0 14 -4 3 -7 0 -7 -7z" />
    <path d="M1340 4570 c0 -7 3 -10 7 -7 3 4 3 10 0 14 -4 3 -7 0 -7 -7z" />
    <path d="M1640 4570 c0 -7 3 -10 7 -7 3 4 3 10 0 14 -4 3 -7 0 -7 -7z" />
    <path d="M2090 4560 c0 -7 3 -10 7 -7 3 4 3 10 0 14 -4 3 -7 0 -7 -7z" />
    <path d="M3775 3845 c0 -341 1 -482 2 -313 2 169 2 448 0 620 -1 172 -2 34 -2
-307z" />
    <path d="M768 3803 c7 -3 16 -2 19 1 4 3 -2 6 -13 5 l-19 -1 13 -5z" />
    <path d="M703 3793 c4 -3 10 -3 14 0 3 4 0 7 -7 7 -7 0 -10 -3 -7 -7z" />
    <path d="M444 3688 l-7 -11 11 7 c7 4 12 9 12 12 0 8 -9 4 -16 -8z" />
    <path d="M330 3595 c-24 -25 -42 -45 -39 -45 3 0 25 20 49 45 24 25 42 45 39
45 -3 0 -25 -20 -49 -45z" />
    <path d="M254 3508 l-7 -11 11 7 c12 7 16 16 8 16 -3 0 -8 -5 -12 -12z" />
    <path d="M110 3190 c0 -7 3 -10 7 -7 3 4 3 10 0 14 -4 3 -7 0 -7 -7z" />
    <path d="M3760 3160 c0 -7 3 -10 7 -7 3 4 3 10 0 14 -4 3 -7 0 -7 -7z" />
    <path d="M90 3100 c0 -7 3 -10 7 -7 3 4 3 10 0 14 -4 3 -7 0 -7 -7z" />
    <path d="M60 2950 c0 -7 3 -10 7 -7 3 4 3 10 0 14 -4 3 -7 0 -7 -7z" />
    <path d="M50 2890 c0 -7 3 -10 7 -7 3 4 3 10 0 14 -4 3 -7 0 -7 -7z" />
    <path d="M3614 2858 l-19 -23 23 19 c12 11 22 21 22 23 0 8 -8 2 -26 -19z" />
    <path d="M40 2810 c0 -7 3 -10 7 -7 3 4 3 10 0 14 -4 3 -7 0 -7 -7z" />
    <path d="M3559 2803 l-14 -18 18 14 c16 13 21 21 13 21 -2 0 -10 -8 -17 -17z" />
    <path d="M3514 2768 l-7 -11 11 7 c7 4 12 9 12 12 0 8 -9 4 -16 -8z" />
    <path d="M31 2694 l1 -19 5 13 c3 7 2 16 -1 19 -3 4 -6 -2 -5 -13z" />
    <path d="M3273 2663 c4 -3 10 -3 14 0 3 4 0 7 -7 7 -7 0 -10 -3 -7 -7z" />
    <path d="M3198 2653 c6 -2 18 -2 25 0 6 3 1 5 -13 5 -14 0 -19 -2 -12 -5z" />
    <path d="M1828 2643 c7 -3 16 -2 19 1 4 3 -2 6 -13 5 l-19 -1 13 -5z" />
    <path d="M1773 2633 c4 -3 10 -3 14 0 3 4 0 7 -7 7 -7 0 -10 -3 -7 -7z" />
    <path d="M1504 2508 l-7 -11 11 7 c7 4 12 9 12 12 0 8 -9 4 -16 -8z" />
    <path d="M1469 2483 l-14 -18 18 14 c9 7 17 15 17 17 0 8 -8 3 -21 -13z" />
    <path d="M32 2450 c0 -14 2 -19 5 -12 2 6 2 18 0 25 -3 6 -5 1 -5 -13z" />
    <path d="M40 2340 c0 -7 3 -10 7 -7 3 4 3 10 0 14 -4 3 -7 0 -7 -7z" />
    <path d="M50 2260 c0 -7 3 -10 7 -7 3 4 3 10 0 14 -4 3 -7 0 -7 -7z" />
    <path d="M60 2200 c0 -7 3 -10 7 -7 3 4 3 10 0 14 -4 3 -7 0 -7 -7z" />
    <path d="M70 2140 c0 -7 3 -10 7 -7 3 4 3 10 0 14 -4 3 -7 0 -7 -7z" />
    <path d="M1190 2030 c0 -7 3 -10 7 -7 3 4 3 10 0 14 -4 3 -7 0 -7 -7z" />
    <path d="M100 2000 c0 -7 3 -10 7 -7 3 4 3 10 0 14 -4 3 -7 0 -7 -7z" />
    <path d="M1181 1964 l1 -19 5 13 c3 7 2 16 -1 19 -3 4 -6 -2 -5 -13z" />
    <path d="M110 1960 c0 -7 3 -10 7 -7 3 4 3 10 0 14 -4 3 -7 0 -7 -7z" />
    <path d="M120 1920 c0 -7 3 -10 7 -7 3 4 3 10 0 14 -4 3 -7 0 -7 -7z" />
    <path d="M275 1580 c3 -5 8 -10 11 -10 3 0 2 5 -1 10 -3 6 -8 10 -11 10 -3 0
-2 -4 1 -10z" />
    <path d="M335 1510 c10 -11 20 -20 23 -20 3 0 -3 9 -13 20 -10 11 -20 20 -23
20 -3 0 3 -9 13 -20z" />
  </g>
  <g transform="translate(0.000000,512.000000) scale(0.100000,-0.100000)" fill="#86adcc" stroke="none">
    <path d="M2378 5113 c6 -2 18 -2 25 0 6 3 1 5 -13 5 -14 0 -19 -2 -12 -5z" />
    <path d="M2708 5113 c7 -3 16 -2 19 1 4 3 -2 6 -13 5 l-19 -1 13 -5z" />
    <path d="M2223 5103 c4 -3 10 -3 14 0 3 4 0 7 -7 7 -7 0 -10 -3 -7 -7z" />
    <path d="M2863 5103 c4 -3 10 -3 14 0 3 4 0 7 -7 7 -7 0 -10 -3 -7 -7z" />
    <path d="M2123 5093 c4 -3 10 -3 14 0 3 4 0 7 -7 7 -7 0 -10 -3 -7 -7z" />
    <path d="M1494 4898 l-7 -11 11 7 c12 7 16 16 8 16 -3 0 -8 -5 -12 -12z" />
    <path d="M3590 4855 c13 -14 26 -25 28 -25 3 0 -5 11 -18 25 -13 14 -26 25
-28 25 -3 0 5 -11 18 -25z" />
    <path d="M1714 4688 l-7 -11 11 7 c12 7 16 16 8 16 -3 0 -8 -5 -12 -12z" />
    <path d="M2025 4680 c3 -5 8 -10 11 -10 3 0 2 5 -1 10 -3 6 -8 10 -11 10 -3 0
-2 -4 1 -10z" />
    <path d="M1340 4580 c0 -7 3 -10 7 -7 3 4 3 10 0 14 -4 3 -7 0 -7 -7z" />
    <path d="M3771 4464 l1 -19 5 13 c3 7 2 16 -1 19 -3 4 -6 -2 -5 -13z" />
    <path d="M3770 3230 c0 -7 3 -10 7 -7 3 4 3 10 0 14 -4 3 -7 0 -7 -7z" />
    <path d="M3740 3080 c0 -7 3 -10 7 -7 3 4 3 10 0 14 -4 3 -7 0 -7 -7z" />
    <path d="M3654 2908 l-7 -11 11 7 c12 7 16 16 8 16 -3 0 -8 -5 -12 -12z" />
    <path d="M40 2820 c0 -7 3 -10 7 -7 3 4 3 10 0 14 -4 3 -7 0 -7 -7z" />
    <path d="M3454 2728 l-7 -11 11 7 c7 4 12 9 12 12 0 8 -9 4 -16 -8z" />
    <path d="M31 2714 l1 -19 5 13 c3 7 2 16 -1 19 -3 4 -6 -2 -5 -13z" />
    <path d="M3353 2683 c4 -3 10 -3 14 0 3 4 0 7 -7 7 -7 0 -10 -3 -7 -7z" />
    <path d="M1653 2593 c4 -3 10 -3 14 0 3 4 0 7 -7 7 -7 0 -10 -3 -7 -7z" />
    <path d="M1564 2548 l-7 -11 11 7 c12 7 16 16 8 16 -3 0 -8 -5 -12 -12z" />
    <path d="M30 2430 c0 -7 3 -10 7 -7 3 4 3 10 0 14 -4 3 -7 0 -7 -7z" />
    <path d="M40 2330 c0 -7 3 -10 7 -7 3 4 3 10 0 14 -4 3 -7 0 -7 -7z" />
    <path d="M1220 2140 c0 -7 3 -10 7 -7 3 4 3 10 0 14 -4 3 -7 0 -7 -7z" />
    <path d="M1210 2110 c0 -7 3 -10 7 -7 3 4 3 10 0 14 -4 3 -7 0 -7 -7z" />
    <path d="M1180 1950 c0 -7 3 -10 7 -7 3 4 3 10 0 14 -4 3 -7 0 -7 -7z" />
    <path d="M315 1530 c3 -5 8 -10 11 -10 3 0 2 5 -1 10 -3 6 -8 10 -11 10 -3 0
-2 -4 1 -10z" />
    <path d="M350 1496 c0 -2 8 -10 18 -17 l17 -14 -14 18 c-13 16 -21 21 -21 13z" />
    <path d="M603 1353 c4 -3 10 -3 14 0 3 4 0 7 -7 7 -7 0 -10 -3 -7 -7z" />
    <path d="M852 1333 c59 -2 158 -2 220 0 62 1 14 3 -107 3 -121 0 -172 -2 -113
-3z" />
  </g>
  <g transform="translate(0.000000,512.000000) scale(0.100000,-0.100000)" fill="#4d7fa8" stroke="none">
    <path d="M3584 2828 l-19 -23 23 19 c12 11 22 21 22 23 0 8 -8 2 -26 -19z" />
    <path d="M2248 2653 c178 -2 466 -2 640 0 174 1 29 2 -323 2 -352 0 -495 -1
-317 -2z" />
  </g>
</svg>