<svg width="512.000000pt" height="512.000000pt" viewBox="0 0 512.000000 512.000000" xmlns="http://www.w3.org/2000/svg">
  <g transform="translate(0.000000,512.000000) scale(0.100000,-0.100000)" fill="#fefefe" stroke="none">
    <path d="M0 4065 l0 -1055 10 0 c6 0 10 9 10 21 0 39 32 134 71 210 74 143
181 251 322 325 39 20 98 46 131 58 l61 20 907 6 907 5 27 21 c15 11 37 33 48
48 l21 27 0 59 0 59 -21 27 c-11 15 -33 37 -48 48 l-27 21 -476 3 -475 3 5
272 4 272 20 61 c11 33 37 92 57 131 74 141 182 248 325 322 76 39 171 71 210
71 12 0 21 5 21 10 l0 10 -1055 0 -1055 0 0 -1055z" />
    <path d="M3020 5111 c0 -5 19 -11 41 -15 67 -11 182 -60 257 -110 86 -57 178
-154 231 -243 22 -37 52 -104 68 -148 l28 -80 3 -432 3 -432 432 -3 432 -3 80
-28 c44 -16 111 -46 148 -68 89 -53 186 -145 243 -231 50 -75 99 -190 110
-257 4 -22 10 -41 15 -41 l9 0 0 1050 0 1050 -1050 0 -1050 0 0 -9z" />
    <path d="M5105 2093 c-16 -79 -61 -196 -97 -258 l-41 -70 -76 -76 -76 -76 -70
-41 c-38 -22 -106 -53 -150 -69 l-80 -28 -900 -5 -900 -5 -35 -20 c-19 -12
-43 -36 -54 -55 l-20 -33 0 -47 0 -47 20 -33 c11 -19 35 -43 54 -55 l35 -20
468 -3 468 -3 -3 -272 -3 -272 -28 -80 c-16 -44 -46 -111 -68 -148 -53 -89
-145 -186 -231 -243 -75 -50 -190 -99 -257 -110 -22 -4 -41 -10 -41 -15 l0 -9
1050 0 1050 0 0 1060 c0 583 -2 1060 -5 1060 -2 0 -7 -12 -10 -27z" />
    <path d="M0 1055 l0 -1055 1055 0 1055 0 0 8 c0 5 -30 14 -67 22 l-67 13 -85
43 c-103 51 -189 119 -253 198 -55 69 -112 174 -141 260 l-21 61 -3 432 -4
432 -432 3 -432 4 -65 23 c-150 53 -276 138 -363 246 -26 33 -67 99 -91 146
l-43 85 -13 67 c-8 37 -17 67 -22 67 l-8 0 0 -1055z" />
  </g>
  <g transform="translate(0.000000,512.000000) scale(0.100000,-0.100000)" fill="#fddc00" stroke="none">
    <path d="M3648 3265 l-3 -400 -31 -65 -31 -65 -49 -49 -49 -49 -65 -31 -65
-31 -402 -3 -403 -3 0 -1285 0 -1285 258 3 257 3 80 28 c44 16 112 47 150 69
l70 41 76 76 76 76 41 70 c22 39 53 106 69 150 l28 80 3 282 3 282 -468 3
-468 3 -35 20 c-19 12 -43 36 -54 54 l-19 33 0 38 0 38 19 33 c11 18 35 42 54
54 l35 20 900 5 900 5 80 28 c44 16 112 47 150 69 l70 41 76 76 76 76 41 70
c22 39 53 106 69 150 l28 80 0 505 0 505 -28 80 c-16 44 -47 112 -69 150 l-41
70 -76 76 -76 76 -70 41 c-38 22 -106 53 -150 69 l-80 28 -437 5 -437 5 -3
-400z m-670 -2535 c42 -26 72 -76 72 -120 0 -19 -9 -50 -20 -68 -26 -42 -76
-72 -120 -72 -71 0 -140 69 -140 140 0 71 69 140 140 140 19 0 50 -9 68 -20z" />
    <path d="M5 2550 c0 -239 1 -337 2 -218 2 120 2 316 0 436 -1 119 -2 21 -2
-218z" />
  </g>
  <g transform="translate(0.000000,512.000000) scale(0.100000,-0.100000)" fill="#78e0ea" stroke="none">
    <path d="M2085 5114 c-132 -28 -254 -84 -351 -162 -32 -26 -80 -74 -106 -106
-55 -69 -113 -175 -141 -260 l-20 -61 -4 -282 -5 -282 475 -3 476 -3 27 -21
c15 -11 37 -32 48 -47 l20 -27 0 -50 0 -50 -20 -27 c-11 -15 -33 -36 -48 -47
l-27 -21 -907 -5 -907 -6 -61 -20 c-86 -30 -192 -87 -260 -142 -32 -26 -80
-74 -106 -106 -55 -68 -112 -174 -141 -260 l-21 -61 -3 -472 -4 -472 21 -86
20 -87 40 -77 c96 -185 242 -309 450 -382 l65 -23 437 -6 437 -5 3 405 3 405
29 60 30 60 50 51 51 50 60 30 60 29 405 5 405 5 3 1283 2 1282 -232 -1 c-128
-1 -242 -3 -253 -5z m199 -483 c15 -10 37 -32 47 -47 l19 -29 0 -45 0 -45 -19
-29 c-10 -15 -32 -37 -47 -47 l-29 -19 -45 0 -45 0 -29 19 c-15 10 -37 32 -47
47 l-19 29 0 45 0 45 19 29 c10 15 32 37 47 47 l29 19 45 0 45 0 29 -19z" />
  </g>
  <g transform="translate(0.000000,512.000000) scale(0.100000,-0.100000)" fill="#fdee54" stroke="none">
    <path d="M4448 3653 c7 -3 16 -2 19 1 4 3 -2 6 -13 5 l-19 -1 13 -5z" />
    <path d="M4513 3643 c4 -3 10 -3 14 0 3 4 0 7 -7 7 -7 0 -10 -3 -7 -7z" />
    <path d="M4593 3623 c4 -3 10 -3 14 0 3 4 0 7 -7 7 -7 0 -10 -3 -7 -7z" />
    <path d="M4623 3613 c4 -3 10 -3 14 0 3 4 0 7 -7 7 -7 0 -10 -3 -7 -7z" />
    <path d="M4671 3596 c10 -9 69 -36 69 -32 0 6 -55 36 -66 36 -4 0 -5 -2 -3 -4z" />
    <path d="M4775 3540 c3 -5 8 -10 11 -10 3 0 2 5 -1 10 -3 6 -8 10 -11 10 -3 0
-2 -4 1 -10z" />
    <path d="M4815 3510 c3 -5 8 -10 11 -10 3 0 2 5 -1 10 -3 6 -8 10 -11 10 -3 0
-2 -4 1 -10z" />
    <path d="M4870 3467 c0 -2 15 -16 33 -33 l32 -29 -29 33 c-28 30 -36 37 -36
29z" />
    <path d="M4965 3360 c3 -5 8 -10 11 -10 3 0 2 5 -1 10 -3 6 -8 10 -11 10 -3 0
-2 -4 1 -10z" />
    <path d="M4995 3320 c3 -5 8 -10 11 -10 3 0 2 5 -1 10 -3 6 -8 10 -11 10 -3 0
-2 -4 1 -10z" />
    <path d="M5037 3245 c9 -19 18 -33 21 -31 4 5 -26 66 -33 66 -3 0 3 -16 12
-35z" />
    <path d="M5070 3170 c0 -7 3 -10 7 -7 3 4 3 10 0 14 -4 3 -7 0 -7 -7z" />
    <path d="M5080 3140 c0 -7 3 -10 7 -7 3 4 3 10 0 14 -4 3 -7 0 -7 -7z" />
    <path d="M5090 3100 c0 -7 3 -10 7 -7 3 4 3 10 0 14 -4 3 -7 0 -7 -7z" />
    <path d="M5100 3060 c0 -7 3 -10 7 -7 3 4 3 10 0 14 -4 3 -7 0 -7 -7z" />
    <path d="M5111 2994 l1 -19 5 13 c3 7 2 16 -1 19 -3 4 -6 -2 -5 -13z" />
    <path d="M2 2980 c0 -14 2 -19 5 -12 2 6 2 18 0 25 -3 6 -5 1 -5 -13z" />
    <path d="M2155 2560 l-410 -5 -60 -29 -60 -30 -51 -50 -50 -51 -30 -60 -29
-60 0 -835 0 -835 19 -60 c10 -33 36 -94 57 -136 76 -146 182 -252 329 -329
l77 -40 84 -20 84 -20 222 0 223 0 2 1285 c2 707 3 1284 3 1283 0 -1 -184 -5
-410 -8z" />
    <path d="M2 2120 c0 -14 2 -19 5 -12 2 6 2 18 0 25 -3 6 -5 1 -5 -13z" />
    <path d="M5111 2124 l1 -19 5 13 c3 7 2 16 -1 19 -3 4 -6 -2 -5 -13z" />
    <path d="M5100 2060 c0 -7 3 -10 7 -7 3 4 3 10 0 14 -4 3 -7 0 -7 -7z" />
    <path d="M5090 2020 c0 -7 3 -10 7 -7 3 4 3 10 0 14 -4 3 -7 0 -7 -7z" />
    <path d="M5080 1980 c0 -7 3 -10 7 -7 3 4 3 10 0 14 -4 3 -7 0 -7 -7z" />
    <path d="M5070 1950 c0 -7 3 -10 7 -7 3 4 3 10 0 14 -4 3 -7 0 -7 -7z" />
    <path d="M5037 1875 c-9 -19 -15 -35 -12 -35 7 0 37 61 33 66 -3 2 -12 -12
-21 -31z" />
    <path d="M4994 1798 l-7 -11 11 7 c7 4 12 9 12 12 0 8 -9 4 -16 -8z" />
    <path d="M4964 1758 l-7 -11 11 7 c12 7 16 16 8 16 -3 0 -8 -5 -12 -12z" />
    <path d="M4894 1678 l-29 -33 33 29 c30 28 37 36 29 36 -2 0 -16 -15 -33 -32z" />
    <path d="M4814 1608 l-7 -11 11 7 c7 4 12 9 12 12 0 8 -9 4 -16 -8z" />
    <path d="M4774 1578 l-7 -11 11 7 c7 4 12 9 12 12 0 8 -9 4 -16 -8z" />
    <path d="M4700 1540 c-19 -11 -31 -19 -27 -20 11 0 67 29 67 35 0 7 -1 7 -40
-15z" />
    <path d="M4623 1503 c4 -3 10 -3 14 0 3 4 0 7 -7 7 -7 0 -10 -3 -7 -7z" />
    <path d="M4593 1493 c4 -3 10 -3 14 0 3 4 0 7 -7 7 -7 0 -10 -3 -7 -7z" />
    <path d="M4553 1483 c4 -3 10 -3 14 0 3 4 0 7 -7 7 -7 0 -10 -3 -7 -7z" />
    <path d="M4513 1473 c4 -3 10 -3 14 0 3 4 0 7 -7 7 -7 0 -10 -3 -7 -7z" />
    <path d="M4448 1463 c7 -3 16 -2 19 1 4 3 -2 6 -13 5 l-19 -1 13 -5z" />
    <path d="M2654 1416 c-19 -19 -34 -40 -34 -47 0 -8 9 0 20 18 10 17 32 39 47
47 15 8 22 15 15 16 -8 0 -29 -15 -48 -34z" />
    <path d="M2620 1251 c0 -6 4 -13 10 -16 l10 -6 -6 15 c-7 18 -14 21 -14 7z" />
    <path d="M2640 1216 c0 -2 8 -10 18 -17 l17 -14 -14 18 c-13 16 -21 21 -21 13z" />
    <path d="M2723 1163 c4 -3 10 -3 14 0 3 4 0 7 -7 7 -7 0 -10 -3 -7 -7z" />
    <path d="M3651 664 l1 -19 5 13 c3 7 2 16 -1 19 -3 4 -6 -2 -5 -13z" />
    <path d="M3640 600 c0 -7 3 -10 7 -7 3 4 3 10 0 14 -4 3 -7 0 -7 -7z" />
    <path d="M3630 560 c0 -7 3 -10 7 -7 3 4 3 10 0 14 -4 3 -7 0 -7 -7z" />
    <path d="M3620 520 c0 -7 3 -10 7 -7 3 4 3 10 0 14 -4 3 -7 0 -7 -7z" />
    <path d="M3610 490 c0 -7 3 -10 7 -7 3 4 3 10 0 14 -4 3 -7 0 -7 -7z" />
    <path d="M3577 415 c-9 -19 -15 -35 -12 -35 7 0 37 61 33 66 -3 2 -12 -12 -21
-31z" />
    <path d="M3534 338 l-7 -11 11 7 c7 4 12 9 12 12 0 8 -9 4 -16 -8z" />
    <path d="M3504 298 l-7 -11 11 7 c7 4 12 9 12 12 0 8 -9 4 -16 -8z" />
    <path d="M3434 218 l-29 -33 33 29 c17 17 32 31 32 33 0 8 -8 1 -36 -29z" />
    <path d="M3354 148 l-7 -11 11 7 c12 7 16 16 8 16 -3 0 -8 -5 -12 -12z" />
    <path d="M3314 118 l-7 -11 11 7 c12 7 16 16 8 16 -3 0 -8 -5 -12 -12z" />
    <path d="M3240 80 c-19 -11 -31 -19 -27 -20 11 0 67 29 67 35 0 7 -1 7 -40
-15z" />
    <path d="M3163 43 c4 -3 10 -3 14 0 3 4 0 7 -7 7 -7 0 -10 -3 -7 -7z" />
    <path d="M3133 33 c4 -3 10 -3 14 0 3 4 0 7 -7 7 -7 0 -10 -3 -7 -7z" />
    <path d="M3093 23 c4 -3 10 -3 14 0 3 4 0 7 -7 7 -7 0 -10 -3 -7 -7z" />
    <path d="M3053 13 c4 -3 10 -3 14 0 3 4 0 7 -7 7 -7 0 -10 -3 -7 -7z" />
    <path d="M2988 3 c7 -3 16 -2 19 1 4 3 -2 6 -13 5 l-19 -1 13 -5z" />
  </g>
  <g transform="translate(0.000000,512.000000) scale(0.100000,-0.100000)" fill="#3cccdd" stroke="none">
    <path d="M2560 3840 l0 -1281 403 3 402 3 65 31 65 31 49 49 49 49 31 65 31
65 0 835 0 835 -28 80 c-16 44 -47 112 -69 150 l-41 70 -76 76 -76 76 -70 41
c-38 22 -106 53 -150 69 l-80 28 -252 3 -253 4 0 -1282z" />
  </g>
  <g transform="translate(0.000000,512.000000) scale(0.100000,-0.100000)" fill="#464659" stroke="none">
    <path d="M2832 740 c-18 -11 -41 -34 -52 -52 l-20 -33 0 -45 0 -45 20 -33 c11
-18 34 -41 52 -52 l33 -20 45 0 45 0 33 20 c18 11 41 34 52 52 l20 33 0 45 0
45 -20 33 c-11 18 -34 41 -52 52 l-33 20 -45 0 -45 0 -33 -20z" />
  </g>
  <g transform="translate(0.000000,512.000000) scale(0.100000,-0.100000)" fill="#5a5a6e" stroke="none">
    <path d="M2126 4641 c-15 -10 -37 -32 -47 -47 l-19 -29 0 -55 0 -55 19 -29
c10 -15 32 -37 47 -47 l29 -19 55 0 55 0 29 19 c15 10 37 32 47 47 l19 29 0
55 0 55 -19 29 c-10 15 -32 37 -47 47 l-29 19 -55 0 -55 0 -29 -19z" />
  </g>
  <g transform="translate(0.000000,512.000000) scale(0.100000,-0.100000)" fill="#f4ed72" stroke="none">
    <path d="M4463 3653 c4 -3 10 -3 14 0 3 4 0 7 -7 7 -7 0 -10 -3 -7 -7z" />
    <path d="M4523 3643 c4 -3 10 -3 14 0 3 4 0 7 -7 7 -7 0 -10 -3 -7 -7z" />
    <path d="M4563 3633 c4 -3 10 -3 14 0 3 4 0 7 -7 7 -7 0 -10 -3 -7 -7z" />
    <path d="M4805 3520 c3 -5 8 -10 11 -10 3 0 2 5 -1 10 -3 6 -8 10 -11 10 -3 0
-2 -4 1 -10z" />
    <path d="M4850 3486 c0 -2 8 -10 18 -17 l17 -14 -14 18 c-13 16 -21 21 -21 13z" />
    <path d="M4920 3416 c0 -2 8 -10 18 -17 l17 -14 -14 18 c-13 16 -21 21 -21 13z" />
    <path d="M4975 3350 c3 -5 8 -10 11 -10 3 0 2 5 -1 10 -3 6 -8 10 -11 10 -3 0
-2 -4 1 -10z" />
    <path d="M5090 3110 c0 -7 3 -10 7 -7 3 4 3 10 0 14 -4 3 -7 0 -7 -7z" />
    <path d="M5100 3070 c0 -7 3 -10 7 -7 3 4 3 10 0 14 -4 3 -7 0 -7 -7z" />
    <path d="M5110 3010 c0 -7 3 -10 7 -7 3 4 3 10 0 14 -4 3 -7 0 -7 -7z" />
    <path d="M1 2994 l1 -19 5 13 c3 7 2 16 -1 19 -3 4 -6 -2 -5 -13z" />
    <path d="M3630 2820 c0 -7 3 -10 7 -7 3 4 3 10 0 14 -4 3 -7 0 -7 -7z" />
    <path d="M1760 2550 l-15 -10 12 0 c6 0 15 5 18 10 8 12 4 12 -15 0z" />
    <path d="M1808 2553 c6 -2 18 -2 25 0 6 3 1 5 -13 5 -14 0 -19 -2 -12 -5z" />
    <path d="M1672 2519 c-24 -12 -41 -24 -38 -26 5 -5 86 35 86 42 0 7 -1 7 -48
-16z" />
    <path d="M1570 2445 c-18 -19 -31 -37 -29 -40 3 -2 23 13 44 35 22 22 35 40
29 40 -6 0 -25 -16 -44 -35z" />
    <path d="M1512 2369 c-16 -25 -33 -69 -27 -69 7 0 47 81 43 86 -2 1 -9 -6 -16
-17z" />
    <path d="M1466 2253 l-7 -18 12 12 c7 7 10 15 7 18 -3 3 -9 -2 -12 -12z" />
    <path d="M1462 2200 c0 -14 2 -19 5 -12 2 6 2 18 0 25 -3 6 -5 1 -5 -13z" />
    <path d="M0 2110 c0 -7 3 -10 7 -7 3 4 3 10 0 14 -4 3 -7 0 -7 -7z" />
    <path d="M5110 2110 c0 -7 3 -10 7 -7 3 4 3 10 0 14 -4 3 -7 0 -7 -7z" />
    <path d="M5100 2050 c0 -7 3 -10 7 -7 3 4 3 10 0 14 -4 3 -7 0 -7 -7z" />
    <path d="M5090 2010 c0 -7 3 -10 7 -7 3 4 3 10 0 14 -4 3 -7 0 -7 -7z" />
    <path d="M4974 1768 l-7 -11 11 7 c12 7 16 16 8 16 -3 0 -8 -5 -12 -12z" />
    <path d="M4929 1713 l-14 -18 18 14 c9 7 17 15 17 17 0 8 -8 3 -21 -13z" />
    <path d="M4859 1643 l-14 -18 18 14 c16 13 21 21 13 21 -2 0 -10 -8 -17 -17z" />
    <path d="M4804 1598 l-7 -11 11 7 c12 7 16 16 8 16 -3 0 -8 -5 -12 -12z" />
    <path d="M4563 1483 c4 -3 10 -3 14 0 3 4 0 7 -7 7 -7 0 -10 -3 -7 -7z" />
    <path d="M4523 1473 c4 -3 10 -3 14 0 3 4 0 7 -7 7 -7 0 -10 -3 -7 -7z" />
    <path d="M4463 1463 c4 -3 10 -3 14 0 3 4 0 7 -7 7 -7 0 -10 -3 -7 -7z" />
    <path d="M2723 1453 c4 -3 10 -3 14 0 3 4 0 7 -7 7 -7 0 -10 -3 -7 -7z" />
    <path d="M2610 1340 c0 -7 3 -10 7 -7 3 4 3 10 0 14 -4 3 -7 0 -7 -7z" />
    <path d="M2610 1280 c0 -7 3 -10 7 -7 3 4 3 10 0 14 -4 3 -7 0 -7 -7z" />
    <path d="M1462 690 c0 -14 2 -19 5 -12 2 6 2 18 0 25 -3 6 -5 1 -5 -13z" />
    <path d="M3650 650 c0 -7 3 -10 7 -7 3 4 3 10 0 14 -4 3 -7 0 -7 -7z" />
    <path d="M1470 610 c0 -7 3 -10 7 -7 3 4 3 10 0 14 -4 3 -7 0 -7 -7z" />
    <path d="M3640 590 c0 -7 3 -10 7 -7 3 4 3 10 0 14 -4 3 -7 0 -7 -7z" />
    <path d="M1480 560 c0 -7 3 -10 7 -7 3 4 3 10 0 14 -4 3 -7 0 -7 -7z" />
    <path d="M3630 550 c0 -7 3 -10 7 -7 3 4 3 10 0 14 -4 3 -7 0 -7 -7z" />
    <path d="M1491 530 c0 -8 6 -28 14 -45 17 -39 18 -21 0 25 -7 19 -14 28 -14
20z" />
    <path d="M1560 370 c6 -11 13 -20 16 -20 2 0 0 9 -6 20 -6 11 -13 20 -16 20
-2 0 0 -9 6 -20z" />
    <path d="M1585 330 c3 -5 8 -10 11 -10 3 0 2 5 -1 10 -3 6 -8 10 -11 10 -3 0
-2 -4 1 -10z" />
    <path d="M3514 308 l-7 -11 11 7 c7 4 12 9 12 12 0 8 -9 4 -16 -8z" />
    <path d="M1615 290 c3 -5 8 -10 11 -10 3 0 2 5 -1 10 -3 6 -8 10 -11 10 -3 0
-2 -4 1 -10z" />
    <path d="M3469 253 l-14 -18 18 14 c16 13 21 21 13 21 -2 0 -10 -8 -17 -17z" />
    <path d="M3399 183 l-14 -18 18 14 c16 13 21 21 13 21 -2 0 -10 -8 -17 -17z" />
    <path d="M1745 160 c3 -5 8 -10 11 -10 3 0 2 5 -1 10 -3 6 -8 10 -11 10 -3 0
-2 -4 1 -10z" />
    <path d="M3344 138 l-7 -11 11 7 c12 7 16 16 8 16 -3 0 -8 -5 -12 -12z" />
    <path d="M1785 130 c3 -5 8 -10 11 -10 3 0 2 5 -1 10 -3 6 -8 10 -11 10 -3 0
-2 -4 1 -10z" />
    <path d="M1810 116 c0 -3 9 -10 20 -16 11 -6 20 -8 20 -6 0 3 -9 10 -20 16
-11 6 -20 8 -20 6z" />
    <path d="M1945 45 c17 -8 37 -14 45 -14 8 0 -1 7 -20 14 -46 18 -64 17 -25 0z" />
    <path d="M2013 23 c4 -3 10 -3 14 0 3 4 0 7 -7 7 -7 0 -10 -3 -7 -7z" />
    <path d="M3103 23 c4 -3 10 -3 14 0 3 4 0 7 -7 7 -7 0 -10 -3 -7 -7z" />
    <path d="M2063 13 c4 -3 10 -3 14 0 3 4 0 7 -7 7 -7 0 -10 -3 -7 -7z" />
    <path d="M3063 13 c4 -3 10 -3 14 0 3 4 0 7 -7 7 -7 0 -10 -3 -7 -7z" />
    <path d="M2138 3 c6 -2 18 -2 25 0 6 3 1 5 -13 5 -14 0 -19 -2 -12 -5z" />
    <path d="M3003 3 c4 -3 10 -3 14 0 3 4 0 7 -7 7 -7 0 -10 -3 -7 -7z" />
  </g>
  <g transform="translate(0.000000,512.000000) scale(0.100000,-0.100000)" fill="#fef7cb" stroke="none">
    <path d="M4473 3653 c4 -3 10 -3 14 0 3 4 0 7 -7 7 -7 0 -10 -3 -7 -7z" />
    <path d="M4845 3490 c3 -5 8 -10 11 -10 3 0 2 5 -1 10 -3 6 -8 10 -11 10 -3 0
-2 -4 1 -10z" />
    <path d="M4945 3390 c3 -5 8 -10 11 -10 3 0 2 5 -1 10 -3 6 -8 10 -11 10 -3 0
-2 -4 1 -10z" />
    <path d="M5110 3020 c0 -7 3 -10 7 -7 3 4 3 10 0 14 -4 3 -7 0 -7 -7z" />
    <path d="M0 3010 c0 -7 3 -10 7 -7 3 4 3 10 0 14 -4 3 -7 0 -7 -7z" />
    <path d="M5110 2100 c0 -7 3 -10 7 -7 3 4 3 10 0 14 -4 3 -7 0 -7 -7z" />
    <path d="M4944 1728 l-7 -11 11 7 c12 7 16 16 8 16 -3 0 -8 -5 -12 -12z" />
    <path d="M4844 1628 l-7 -11 11 7 c12 7 16 16 8 16 -3 0 -8 -5 -12 -12z" />
    <path d="M4473 1463 c4 -3 10 -3 14 0 3 4 0 7 -7 7 -7 0 -10 -3 -7 -7z" />
    <path d="M2733 1453 c4 -3 10 -3 14 0 3 4 0 7 -7 7 -7 0 -10 -3 -7 -7z" />
    <path d="M2610 1330 c0 -7 3 -10 7 -7 3 4 3 10 0 14 -4 3 -7 0 -7 -7z" />
    <path d="M2610 1290 c0 -7 3 -10 7 -7 3 4 3 10 0 14 -4 3 -7 0 -7 -7z" />
    <path d="M2743 1163 c4 -3 10 -3 14 0 3 4 0 7 -7 7 -7 0 -10 -3 -7 -7z" />
    <path d="M1461 654 l1 -19 5 13 c3 7 2 16 -1 19 -3 4 -6 -2 -5 -13z" />
    <path d="M3650 640 c0 -7 3 -10 7 -7 3 4 3 10 0 14 -4 3 -7 0 -7 -7z" />
    <path d="M1471 594 l1 -19 5 13 c3 7 2 16 -1 19 -3 4 -6 -2 -5 -13z" />
    <path d="M1490 520 c0 -7 3 -10 7 -7 3 4 3 10 0 14 -4 3 -7 0 -7 -7z" />
    <path d="M1500 490 c0 -7 3 -10 7 -7 3 4 3 10 0 14 -4 3 -7 0 -7 -7z" />
    <path d="M1605 300 c3 -5 8 -10 11 -10 3 0 2 5 -1 10 -3 6 -8 10 -11 10 -3 0
-2 -4 1 -10z" />
    <path d="M3484 268 l-7 -11 11 7 c12 7 16 16 8 16 -3 0 -8 -5 -12 -12z" />
    <path d="M1630 266 c0 -2 8 -10 18 -17 l17 -14 -14 18 c-13 16 -21 21 -21 13z" />
    <path d="M1700 196 c0 -2 8 -10 18 -17 l17 -14 -14 18 c-13 16 -21 21 -21 13z" />
    <path d="M3384 168 l-7 -11 11 7 c7 4 12 9 12 12 0 8 -9 4 -16 -8z" />
    <path d="M1755 150 c3 -5 8 -10 11 -10 3 0 2 5 -1 10 -3 6 -8 10 -11 10 -3 0
-2 -4 1 -10z" />
    <path d="M1943 43 c4 -3 10 -3 14 0 3 4 0 7 -7 7 -7 0 -10 -3 -7 -7z" />
    <path d="M1973 33 c4 -3 10 -3 14 0 3 4 0 7 -7 7 -7 0 -10 -3 -7 -7z" />
    <path d="M2053 13 c4 -3 10 -3 14 0 3 4 0 7 -7 7 -7 0 -10 -3 -7 -7z" />
    <path d="M2108 3 c7 -3 16 -2 19 1 4 3 -2 6 -13 5 l-19 -1 13 -5z" />
    <path d="M3013 3 c4 -3 10 -3 14 0 3 4 0 7 -7 7 -7 0 -10 -3 -7 -7z" />
  </g>
  <g transform="translate(0.000000,512.000000) scale(0.100000,-0.100000)" fill="#c4f0f4" stroke="none">
    <path d="M2108 5113 c6 -2 18 -2 25 0 6 3 1 5 -13 5 -14 0 -19 -2 -12 -5z" />
    <path d="M2048 5103 c7 -3 16 -2 19 1 4 3 -2 6 -13 5 l-19 -1 13 -5z" />
    <path d="M2013 5093 c4 -3 10 -3 14 0 3 4 0 7 -7 7 -7 0 -10 -3 -7 -7z" />
    <path d="M3133 5083 c4 -3 10 -3 14 0 3 4 0 7 -7 7 -7 0 -10 -3 -7 -7z" />
    <path d="M3163 5073 c4 -3 10 -3 14 0 3 4 0 7 -7 7 -7 0 -10 -3 -7 -7z" />
    <path d="M1904 5054 l-19 -15 25 12 c31 14 36 19 24 19 -6 0 -19 -7 -30 -16z" />
    <path d="M1835 5020 l-6 -10 15 6 c18 7 21 14 7 14 -6 0 -13 -4 -16 -10z" />
    <path d="M1785 4990 l-6 -10 15 6 c18 7 21 14 7 14 -6 0 -13 -4 -16 -10z" />
    <path d="M3380 4956 c0 -2 8 -10 18 -17 l17 -14 -14 18 c-13 16 -21 21 -21 13z" />
    <path d="M1675 4898 l-40 -43 43 40 c39 36 47 45 39 45 -2 0 -21 -19 -42 -42z" />
    <path d="M3470 4866 c0 -2 8 -10 18 -17 l17 -14 -14 18 c-13 16 -21 21 -21 13z" />
    <path d="M1585 4789 c-4 -6 -5 -12 -2 -15 2 -3 7 2 10 11 7 17 1 20 -8 4z" />
    <path d="M1555 4739 c-4 -6 -5 -12 -2 -15 2 -3 7 2 10 11 7 17 1 20 -8 4z" />
    <path d="M1520 4669 c-7 -11 -10 -23 -7 -25 2 -2 9 7 15 21 14 30 7 33 -8 4z" />
    <path d="M3610 4630 c0 -7 3 -10 7 -7 3 4 3 10 0 14 -4 3 -7 0 -7 -7z" />
    <path d="M3620 4600 c0 -7 3 -10 7 -7 3 4 3 10 0 14 -4 3 -7 0 -7 -7z" />
    <path d="M1480 4560 c0 -7 3 -10 7 -7 3 4 3 10 0 14 -4 3 -7 0 -7 -7z" />
    <path d="M1471 4524 l1 -19 5 13 c3 7 2 16 -1 19 -3 4 -6 -2 -5 -13z" />
    <path d="M1462 4460 c0 -14 2 -19 5 -12 2 6 2 18 0 25 -3 6 -5 1 -5 -13z" />
    <path d="M2388 3953 c7 -3 16 -2 19 1 4 3 -2 6 -13 5 l-19 -1 13 -5z" />
    <path d="M2460 3915 c13 -14 26 -25 28 -25 3 0 -5 11 -18 25 -13 14 -26 25
-28 25 -3 0 5 -11 18 -25z" />
    <path d="M2501 3844 l1 -19 5 13 c3 7 2 16 -1 19 -3 4 -6 -2 -5 -13z" />
    <path d="M2501 3774 l1 -19 5 13 c3 7 2 16 -1 19 -3 4 -6 -2 -5 -13z" />
    <path d="M2459 3703 l-24 -28 28 24 c25 23 32 31 24 31 -2 0 -14 -12 -28 -27z" />
    <path d="M2388 3663 c7 -3 16 -2 19 1 4 3 -2 6 -13 5 l-19 -1 13 -5z" />
    <path d="M648 3653 c6 -2 18 -2 25 0 6 3 1 5 -13 5 -14 0 -19 -2 -12 -5z" />
    <path d="M588 3643 c7 -3 16 -2 19 1 4 3 -2 6 -13 5 l-19 -1 13 -5z" />
    <path d="M553 3633 c4 -3 10 -3 14 0 3 4 0 7 -7 7 -7 0 -10 -3 -7 -7z" />
    <path d="M444 3594 l-19 -15 25 12 c31 14 36 19 24 19 -6 0 -19 -7 -30 -16z" />
    <path d="M375 3560 l-6 -10 15 6 c18 7 21 14 7 14 -6 0 -13 -4 -16 -10z" />
    <path d="M325 3530 l-6 -10 15 6 c18 7 21 14 7 14 -6 0 -13 -4 -16 -10z" />
    <path d="M215 3438 l-40 -43 43 40 c23 21 42 40 42 42 0 8 -9 0 -45 -39z" />
    <path d="M125 3329 c-4 -6 -5 -12 -2 -15 2 -3 7 2 10 11 7 17 1 20 -8 4z" />
    <path d="M95 3279 c-4 -6 -5 -12 -2 -15 2 -3 7 2 10 11 7 17 1 20 -8 4z" />
    <path d="M60 3209 c-7 -11 -10 -23 -7 -25 2 -2 9 7 15 21 14 30 7 33 -8 4z" />
    <path d="M20 3100 c0 -7 3 -10 7 -7 3 4 3 10 0 14 -4 3 -7 0 -7 -7z" />
    <path d="M11 3064 l1 -19 5 13 c3 7 2 16 -1 19 -3 4 -6 -2 -5 -13z" />
    <path d="M2 3000 c0 -14 2 -19 5 -12 2 6 2 18 0 25 -3 6 -5 1 -5 -13z" />
    <path d="M2 2120 c0 -14 2 -19 5 -12 2 6 2 18 0 25 -3 6 -5 1 -5 -13z" />
    <path d="M10 2060 c0 -7 3 -10 7 -7 3 4 3 10 0 14 -4 3 -7 0 -7 -7z" />
    <path d="M20 2020 c0 -7 3 -10 7 -7 3 4 3 10 0 14 -4 3 -7 0 -7 -7z" />
    <path d="M60 1911 c0 -6 4 -13 10 -16 l10 -6 -6 15 c-7 18 -14 21 -14 7z" />
    <path d="M90 1851 c0 -6 4 -13 10 -16 l10 -6 -6 15 c-7 18 -14 21 -14 7z" />
    <path d="M120 1801 c0 -6 4 -13 10 -16 l10 -6 -6 15 c-7 18 -14 21 -14 7z" />
    <path d="M215 1680 c21 -22 41 -40 44 -40 3 0 -13 18 -34 40 -21 22 -41 40
-44 40 -3 0 13 -18 34 -40z" />
    <path d="M327 1589 c7 -7 15 -10 18 -7 3 3 -2 9 -12 12 l-18 7 12 -12z" />
    <path d="M377 1559 c7 -7 15 -10 18 -7 3 3 -2 9 -12 12 l-18 7 12 -12z" />
    <path d="M444 1526 c11 -9 24 -16 30 -16 12 0 7 5 -24 19 l-25 12 19 -15z" />
    <path d="M493 1503 c4 -3 10 -3 14 0 3 4 0 7 -7 7 -7 0 -10 -3 -7 -7z" />
    <path d="M553 1483 c4 -3 10 -3 14 0 3 4 0 7 -7 7 -7 0 -10 -3 -7 -7z" />
    <path d="M588 1473 c7 -3 16 -2 19 1 4 3 -2 6 -13 5 l-19 -1 13 -5z" />
    <path d="M648 1463 c6 -2 18 -2 25 0 6 3 1 5 -13 5 -14 0 -19 -2 -12 -5z" />
  </g>
  <g transform="translate(0.000000,512.000000) scale(0.100000,-0.100000)" fill="#d8f5f8" stroke="none">
    <path d="M3013 5113 c4 -3 10 -3 14 0 3 4 0 7 -7 7 -7 0 -10 -3 -7 -7z" />
    <path d="M2034 5098 l-7 -11 11 7 c12 7 16 16 8 16 -3 0 -8 -5 -12 -12z" />
    <path d="M3063 5103 c4 -3 10 -3 14 0 3 4 0 7 -7 7 -7 0 -10 -3 -7 -7z" />
    <path d="M3103 5093 c4 -3 10 -3 14 0 3 4 0 7 -7 7 -7 0 -10 -3 -7 -7z" />
    <path d="M1953 5080 c-34 -14 -28 -21 7 -9 17 6 30 13 30 15 0 6 -12 4 -37 -6z" />
    <path d="M3211 5056 c10 -9 69 -36 69 -32 0 6 -55 36 -66 36 -4 0 -5 -2 -3 -4z" />
    <path d="M1815 5010 l-6 -10 15 6 c18 7 21 14 7 14 -6 0 -13 -4 -16 -10z" />
    <path d="M3315 5000 c3 -5 8 -10 11 -10 3 0 2 5 -1 10 -3 6 -8 10 -11 10 -3 0
-2 -4 1 -10z" />
    <path d="M3345 4980 c3 -5 8 -10 11 -10 3 0 2 5 -1 10 -3 6 -8 10 -11 10 -3 0
-2 -4 1 -10z" />
    <path d="M1755 4970 l-6 -10 15 6 c18 7 21 14 7 14 -6 0 -13 -4 -16 -10z" />
    <path d="M1715 4940 c-3 -5 -2 -10 4 -10 5 0 13 5 16 10 3 6 2 10 -4 10 -5 0
-13 -4 -16 -10z" />
    <path d="M1637 4863 c-4 -3 -7 -11 -7 -17 l0 -10 12 12 c6 6 9 14 7 17 -3 3
-9 2 -12 -2z" />
    <path d="M1605 4819 c-4 -6 -5 -12 -2 -15 2 -3 7 2 10 11 7 17 1 20 -8 4z" />
    <path d="M3515 4810 c3 -5 8 -10 11 -10 3 0 2 5 -1 10 -3 6 -8 10 -11 10 -3 0
-2 -4 1 -10z" />
    <path d="M3535 4780 c3 -5 8 -10 11 -10 3 0 2 5 -1 10 -3 6 -8 10 -11 10 -3 0
-2 -4 1 -10z" />
    <path d="M1565 4759 c-4 -6 -5 -12 -2 -15 2 -3 7 2 10 11 7 17 1 20 -8 4z" />
    <path d="M3577 4705 c9 -19 18 -33 21 -31 4 5 -26 66 -33 66 -3 0 3 -16 12
-35z" />
    <path d="M1499 4624 c-5 -15 -8 -29 -5 -31 2 -2 8 10 14 26 13 38 5 41 -9 5z" />
    <path d="M3630 4570 c0 -7 3 -10 7 -7 3 4 3 10 0 14 -4 3 -7 0 -7 -7z" />
    <path d="M1474 4538 l-7 -11 11 7 c12 7 16 16 8 16 -3 0 -8 -5 -12 -12z" />
    <path d="M3640 4530 c0 -7 3 -10 7 -7 3 4 3 10 0 14 -4 3 -7 0 -7 -7z" />
    <path d="M3650 4480 c0 -7 3 -10 7 -7 3 4 3 10 0 14 -4 3 -7 0 -7 -7z" />
    <path d="M574 3638 l-7 -11 11 7 c12 7 16 16 8 16 -3 0 -8 -5 -12 -12z" />
    <path d="M493 3620 c-34 -14 -28 -21 7 -9 17 6 30 13 30 15 0 6 -12 4 -37 -6z" />
    <path d="M355 3550 l-6 -10 15 6 c18 7 21 14 7 14 -6 0 -13 -4 -16 -10z" />
    <path d="M295 3510 l-6 -10 15 6 c18 7 21 14 7 14 -6 0 -13 -4 -16 -10z" />
    <path d="M255 3480 c-3 -5 -2 -10 4 -10 5 0 13 5 16 10 3 6 2 10 -4 10 -5 0
-13 -4 -16 -10z" />
    <path d="M177 3403 c-4 -3 -7 -11 -7 -17 l0 -10 12 12 c6 6 9 14 7 17 -3 3 -9
2 -12 -2z" />
    <path d="M145 3359 c-4 -6 -5 -12 -2 -15 2 -3 7 2 10 11 7 17 1 20 -8 4z" />
    <path d="M105 3299 c-4 -6 -5 -12 -2 -15 2 -3 7 2 10 11 7 17 1 20 -8 4z" />
    <path d="M39 3164 c-5 -15 -8 -29 -5 -31 2 -2 8 10 14 26 13 38 5 41 -9 5z" />
    <path d="M14 3078 l-7 -11 11 7 c12 7 16 16 8 16 -3 0 -8 -5 -12 -12z" />
    <path d="M30 1986 c0 -12 29 -76 34 -76 3 0 -2 17 -11 38 -16 38 -23 50 -23
38z" />
    <path d="M100 1831 c0 -6 4 -13 10 -16 l10 -6 -6 15 c-7 18 -14 21 -14 7z" />
    <path d="M140 1771 c0 -6 4 -13 10 -16 l10 -6 -6 15 c-7 18 -14 21 -14 7z" />
    <path d="M170 1731 c0 -5 5 -13 10 -16 6 -3 10 -2 10 4 0 5 -4 13 -10 16 -5 3
-10 2 -10 -4z" />
    <path d="M255 1640 c3 -5 11 -10 16 -10 6 0 7 5 4 10 -3 6 -11 10 -16 10 -6 0
-7 -4 -4 -10z" />
    <path d="M297 1609 c7 -7 15 -10 18 -7 3 3 -2 9 -12 12 l-18 7 12 -12z" />
    <path d="M357 1569 c7 -7 15 -10 18 -7 3 3 -2 9 -12 12 l-18 7 12 -12z" />
    <path d="M507 1499 c7 -7 15 -10 18 -7 3 3 -2 9 -12 12 l-18 7 12 -12z" />
    <path d="M575 1480 c3 -5 8 -10 11 -10 3 0 2 5 -1 10 -3 6 -8 10 -11 10 -3 0
-2 -4 1 -10z" />
  </g>
  <g transform="translate(0.000000,512.000000) scale(0.100000,-0.100000)" fill="#83e1e8" stroke="none">
    <path d="M2163 5113 c9 -2 23 -2 30 0 6 3 -1 5 -18 5 l-30 0 18 -5z" />
    <path d="M2023 5093 c4 -3 10 -3 14 0 3 4 0 7 -7 7 -7 0 -10 -3 -7 -7z" />
    <path d="M3093 5093 c4 -3 10 -3 14 0 3 4 0 7 -7 7 -7 0 -10 -3 -7 -7z" />
    <path d="M1983 5083 c4 -3 10 -3 14 0 3 4 0 7 -7 7 -7 0 -10 -3 -7 -7z" />
    <path d="M1953 5073 c4 -3 10 -3 14 0 3 4 0 7 -7 7 -7 0 -10 -3 -7 -7z" />
    <path d="M1729 4943 l-14 -18 18 14 c9 7 17 15 17 17 0 8 -8 3 -21 -13z" />
    <path d="M3410 4927 c0 -2 15 -16 33 -33 l32 -29 -29 33 c-28 30 -36 37 -36
29z" />
    <path d="M1629 4843 l-14 -18 18 14 c9 7 17 15 17 17 0 8 -8 3 -21 -13z" />
    <path d="M1594 4798 l-7 -11 11 7 c12 7 16 16 8 16 -3 0 -8 -5 -12 -12z" />
    <path d="M1500 4620 c0 -7 3 -10 7 -7 3 4 3 10 0 14 -4 3 -7 0 -7 -7z" />
    <path d="M1490 4590 c0 -7 3 -10 7 -7 3 4 3 10 0 14 -4 3 -7 0 -7 -7z" />
    <path d="M3630 4560 c0 -7 3 -10 7 -7 3 4 3 10 0 14 -4 3 -7 0 -7 -7z" />
    <path d="M1480 4550 c0 -7 3 -10 7 -7 3 4 3 10 0 14 -4 3 -7 0 -7 -7z" />
    <path d="M1462 4410 c0 -14 2 -19 5 -12 2 6 2 18 0 25 -3 6 -5 1 -5 -13z" />
    <path d="M703 3653 c9 -2 23 -2 30 0 6 3 -1 5 -18 5 l-30 0 18 -5z" />
    <path d="M563 3633 c4 -3 10 -3 14 0 3 4 0 7 -7 7 -7 0 -10 -3 -7 -7z" />
    <path d="M523 3623 c4 -3 10 -3 14 0 3 4 0 7 -7 7 -7 0 -10 -3 -7 -7z" />
    <path d="M493 3613 c4 -3 10 -3 14 0 3 4 0 7 -7 7 -7 0 -10 -3 -7 -7z" />
    <path d="M269 3483 l-14 -18 18 14 c9 7 17 15 17 17 0 8 -8 3 -21 -13z" />
    <path d="M169 3383 l-14 -18 18 14 c9 7 17 15 17 17 0 8 -8 3 -21 -13z" />
    <path d="M134 3338 l-7 -11 11 7 c12 7 16 16 8 16 -3 0 -8 -5 -12 -12z" />
    <path d="M40 3160 c0 -7 3 -10 7 -7 3 4 3 10 0 14 -4 3 -7 0 -7 -7z" />
    <path d="M30 3130 c0 -7 3 -10 7 -7 3 4 3 10 0 14 -4 3 -7 0 -7 -7z" />
    <path d="M20 3090 c0 -7 3 -10 7 -7 3 4 3 10 0 14 -4 3 -7 0 -7 -7z" />
    <path d="M2 2950 c0 -14 2 -19 5 -12 2 6 2 18 0 25 -3 6 -5 1 -5 -13z" />
    <path d="M1773 2553 c4 -3 10 -3 14 0 3 4 0 7 -7 7 -7 0 -10 -3 -7 -7z" />
    <path d="M1624 2488 l-7 -11 11 7 c12 7 16 16 8 16 -3 0 -8 -5 -12 -12z" />
    <path d="M1569 2443 l-34 -38 38 34 c34 33 42 41 34 41 -2 0 -19 -17 -38 -37z" />
    <path d="M1524 2388 l-7 -11 11 7 c12 7 16 16 8 16 -3 0 -8 -5 -12 -12z" />
    <path d="M1460 2240 c0 -7 3 -10 7 -7 3 4 3 10 0 14 -4 3 -7 0 -7 -7z" />
    <path d="M2 2170 c0 -14 2 -19 5 -12 2 6 2 18 0 25 -3 6 -5 1 -5 -13z" />
    <path d="M20 2030 c0 -7 3 -10 7 -7 3 4 3 10 0 14 -4 3 -7 0 -7 -7z" />
    <path d="M30 1990 c0 -7 3 -10 7 -7 3 4 3 10 0 14 -4 3 -7 0 -7 -7z" />
    <path d="M40 1960 c0 -7 3 -10 7 -7 3 4 3 10 0 14 -4 3 -7 0 -7 -7z" />
    <path d="M135 1780 c3 -5 8 -10 11 -10 3 0 2 5 -1 10 -3 6 -8 10 -11 10 -3 0
-2 -4 1 -10z" />
    <path d="M160 1746 c0 -2 8 -10 18 -17 l17 -14 -14 18 c-13 16 -21 21 -21 13z" />
    <path d="M260 1646 c0 -2 8 -10 18 -17 l17 -14 -14 18 c-13 16 -21 21 -21 13z" />
    <path d="M315 1600 c3 -5 8 -10 11 -10 3 0 2 5 -1 10 -3 6 -8 10 -11 10 -3 0
-2 -4 1 -10z" />
    <path d="M563 1483 c4 -3 10 -3 14 0 3 4 0 7 -7 7 -7 0 -10 -3 -7 -7z" />
    <path d="M613 1473 c4 -3 10 -3 14 0 3 4 0 7 -7 7 -7 0 -10 -3 -7 -7z" />
    <path d="M703 1463 c9 -2 23 -2 30 0 6 3 -1 5 -18 5 l-30 0 18 -5z" />
  </g>
  <g transform="translate(0.000000,512.000000) scale(0.100000,-0.100000)" fill="#97e6ee" stroke="none">
    <path d="M2138 5113 c7 -3 16 -2 19 1 4 3 -2 6 -13 5 l-19 -1 13 -5z" />
    <path d="M2998 5113 c7 -3 16 -2 19 1 4 3 -2 6 -13 5 l-19 -1 13 -5z" />
    <path d="M2068 5103 c7 -3 16 -2 19 1 4 3 -2 6 -13 5 l-19 -1 13 -5z" />
    <path d="M3053 5103 c4 -3 10 -3 14 0 3 4 0 7 -7 7 -7 0 -10 -3 -7 -7z" />
    <path d="M1804 4998 l-7 -11 11 7 c12 7 16 16 8 16 -3 0 -8 -5 -12 -12z" />
    <path d="M1774 4978 l-7 -11 11 7 c12 7 16 16 8 16 -3 0 -8 -5 -12 -12z" />
    <path d="M3355 4970 c3 -5 8 -10 11 -10 3 0 2 5 -1 10 -3 6 -8 10 -11 10 -3 0
-2 -4 1 -10z" />
    <path d="M1744 4958 l-7 -11 11 7 c12 7 16 16 8 16 -3 0 -8 -5 -12 -12z" />
    <path d="M3405 4930 c3 -5 8 -10 11 -10 3 0 2 5 -1 10 -3 6 -8 10 -11 10 -3 0
-2 -4 1 -10z" />
    <path d="M3465 4870 c3 -5 8 -10 11 -10 3 0 2 5 -1 10 -3 6 -8 10 -11 10 -3 0
-2 -4 1 -10z" />
    <path d="M1614 4828 l-7 -11 11 7 c12 7 16 16 8 16 -3 0 -8 -5 -12 -12z" />
    <path d="M3505 4820 c3 -5 8 -10 11 -10 3 0 2 5 -1 10 -3 6 -8 10 -11 10 -3 0
-2 -4 1 -10z" />
    <path d="M1574 4768 l-7 -11 11 7 c12 7 16 16 8 16 -3 0 -8 -5 -12 -12z" />
    <path d="M3640 4520 c0 -7 3 -10 7 -7 3 4 3 10 0 14 -4 3 -7 0 -7 -7z" />
    <path d="M1471 4504 l1 -19 5 13 c3 7 2 16 -1 19 -3 4 -6 -2 -5 -13z" />
    <path d="M3651 4464 l1 -19 5 13 c3 7 2 16 -1 19 -3 4 -6 -2 -5 -13z" />
    <path d="M1461 4434 l1 -19 5 13 c3 7 2 16 -1 19 -3 4 -6 -2 -5 -13z" />
    <path d="M678 3653 c7 -3 16 -2 19 1 4 3 -2 6 -13 5 l-19 -1 13 -5z" />
    <path d="M608 3643 c7 -3 16 -2 19 1 4 3 -2 6 -13 5 l-19 -1 13 -5z" />
    <path d="M344 3538 l-7 -11 11 7 c7 4 12 9 12 12 0 8 -9 4 -16 -8z" />
    <path d="M314 3518 l-7 -11 11 7 c12 7 16 16 8 16 -3 0 -8 -5 -12 -12z" />
    <path d="M284 3498 l-7 -11 11 7 c12 7 16 16 8 16 -3 0 -8 -5 -12 -12z" />
    <path d="M154 3368 l-7 -11 11 7 c12 7 16 16 8 16 -3 0 -8 -5 -12 -12z" />
    <path d="M114 3308 l-7 -11 11 7 c12 7 16 16 8 16 -3 0 -8 -5 -12 -12z" />
    <path d="M11 3044 l1 -19 5 13 c3 7 2 16 -1 19 -3 4 -6 -2 -5 -13z" />
    <path d="M1 2974 l1 -19 5 13 c3 7 2 16 -1 19 -3 4 -6 -2 -5 -13z" />
    <path d="M1 2144 l1 -19 5 13 c3 7 2 16 -1 19 -3 4 -6 -2 -5 -13z" />
    <path d="M11 2074 l1 -19 5 13 c3 7 2 16 -1 19 -3 4 -6 -2 -5 -13z" />
    <path d="M115 1810 c3 -5 8 -10 11 -10 3 0 2 5 -1 10 -3 6 -8 10 -11 10 -3 0
-2 -4 1 -10z" />
    <path d="M155 1750 c3 -5 8 -10 11 -10 3 0 2 5 -1 10 -3 6 -8 10 -11 10 -3 0
-2 -4 1 -10z" />
    <path d="M285 1620 c3 -5 8 -10 11 -10 3 0 2 5 -1 10 -3 6 -8 10 -11 10 -3 0
-2 -4 1 -10z" />
    <path d="M523 1493 c4 -3 10 -3 14 0 3 4 0 7 -7 7 -7 0 -10 -3 -7 -7z" />
    <path d="M603 1473 c4 -3 10 -3 14 0 3 4 0 7 -7 7 -7 0 -10 -3 -7 -7z" />
    <path d="M678 1463 c7 -3 16 -2 19 1 4 3 -2 6 -13 5 l-19 -1 13 -5z" />
  </g>
  <g transform="translate(0.000000,512.000000) scale(0.100000,-0.100000)" fill="#7ce0e9" stroke="none">
    <path d="M1864 5034 l-19 -15 25 12 c31 14 36 19 24 19 -6 0 -19 -7 -30 -16z" />
    <path d="M3435 4900 c3 -5 8 -10 11 -10 3 0 2 5 -1 10 -3 6 -8 10 -11 10 -3 0
-2 -4 1 -10z" />
    <path d="M1540 4709 c-7 -11 -10 -23 -7 -25 2 -2 9 7 15 21 14 30 7 33 -8 4z" />
    <path d="M1460 4390 c0 -7 3 -10 7 -7 3 4 3 10 0 14 -4 3 -7 0 -7 -7z" />
    <path d="M2420 3946 c0 -2 7 -7 16 -10 l15 -6 -6 10 c-6 10 -25 14 -25 6z" />
    <path d="M2486 3887 c3 -10 9 -15 12 -12 3 3 0 11 -7 18 l-12 12 7 -18z" />
    <path d="M2486 3733 l-7 -18 12 12 c7 7 10 15 7 18 -3 3 -9 -2 -12 -12z" />
    <path d="M2430 3680 l-15 -10 12 0 c6 0 15 5 18 10 8 12 4 12 -15 0z" />
    <path d="M404 3574 l-19 -15 25 12 c31 14 36 19 24 19 -6 0 -19 -7 -30 -16z" />
    <path d="M80 3249 c-7 -11 -10 -23 -7 -25 2 -2 9 7 15 21 14 30 7 33 -8 4z" />
    <path d="M0 2930 c0 -7 3 -10 7 -7 3 4 3 10 0 14 -4 3 -7 0 -7 -7z" />
    <path d="M1725 2540 l-6 -10 15 6 c18 7 21 14 7 14 -6 0 -13 -4 -16 -10z" />
    <path d="M1664 2514 l-19 -15 25 12 c31 14 36 19 24 19 -6 0 -19 -7 -30 -16z" />
    <path d="M1603 2473 c4 -3 10 -3 14 0 3 4 0 7 -7 7 -7 0 -10 -3 -7 -7z" />
    <path d="M1540 2410 c0 -7 3 -10 7 -7 3 4 3 10 0 14 -4 3 -7 0 -7 -7z" />
    <path d="M1500 2349 c-7 -11 -10 -23 -7 -25 2 -2 9 7 15 21 14 30 7 33 -8 4z" />
    <path d="M1475 2289 c-4 -6 -5 -12 -2 -15 2 -3 7 2 10 11 7 17 1 20 -8 4z" />
    <path d="M0 2190 c0 -7 3 -10 7 -7 3 4 3 10 0 14 -4 3 -7 0 -7 -7z" />
    <path d="M70 1894 c0 -6 7 -19 16 -30 l15 -19 -12 25 c-14 31 -19 36 -19 24z" />
    <path d="M345 1580 c3 -5 8 -10 11 -10 3 0 2 5 -1 10 -3 6 -8 10 -11 10 -3 0
-2 -4 1 -10z" />
    <path d="M404 1546 c11 -9 24 -16 30 -16 12 0 7 5 -24 19 l-25 12 19 -15z" />
  </g>
  <g transform="translate(0.000000,512.000000) scale(0.100000,-0.100000)" fill="#acebf1" stroke="none" />
  <g transform="translate(0.000000,512.000000) scale(0.100000,-0.100000)" fill="#fdf5a8" stroke="none">
    <path d="M2733 1163 c4 -3 10 -3 14 0 3 4 0 7 -7 7 -7 0 -10 -3 -7 -7z" />
    <path d="M1460 670 c0 -7 3 -10 7 -7 3 4 3 10 0 14 -4 3 -7 0 -7 -7z" />
    <path d="M1650 247 c0 -2 15 -16 33 -33 l32 -29 -29 33 c-28 30 -36 37 -36 29z" />
    <path d="M2123 3 c4 -3 10 -3 14 0 3 4 0 7 -7 7 -7 0 -10 -3 -7 -7z" />
  </g>
  <g transform="translate(0.000000,512.000000) scale(0.100000,-0.100000)" fill="#78dee8" stroke="none">
    <path d="M2983 5113 c4 -3 10 -3 14 0 3 4 0 7 -7 7 -7 0 -10 -3 -7 -7z" />
    <path d="M2126 4641 c-30 -20 -72 -78 -63 -87 2 -3 14 11 25 30 11 19 34 42
51 51 30 15 39 25 24 25 -5 0 -21 -9 -37 -19z" />
    <path d="M2250 4655 c0 -2 14 -12 31 -20 17 -9 40 -32 51 -51 11 -19 23 -33
25 -30 10 10 -36 71 -65 89 -31 17 -42 21 -42 12z" />
    <path d="M2060 4464 c0 -3 8 -19 18 -36 17 -29 78 -75 88 -65 3 2 -11 14 -30
25 -19 11 -42 34 -51 51 -14 29 -25 39 -25 25z" />
    <path d="M2335 4440 c-9 -17 -32 -41 -51 -52 -19 -11 -33 -23 -30 -25 3 -3 20
4 38 15 32 20 75 78 65 89 -3 3 -13 -9 -22 -27z" />
    <path d="M3650 4450 c0 -7 3 -10 7 -7 3 4 3 10 0 14 -4 3 -7 0 -7 -7z" />
  </g>
  <g transform="translate(0.000000,512.000000) scale(0.100000,-0.100000)" fill="#a3e1aa" stroke="none">
    <path d="M3651 2894 l1 -19 5 13 c3 7 2 16 -1 19 -3 4 -6 -2 -5 -13z" />
    <path d="M3640 2850 c0 -7 3 -10 7 -7 3 4 3 10 0 14 -4 3 -7 0 -7 -7z" />
    <path d="M3585 2734 c-9 -15 -12 -23 -6 -20 11 7 35 46 28 46 -3 0 -12 -12
-22 -26z" />
    <path d="M3480 2629 l-25 -20 22 10 c12 6 25 16 28 21 9 15 3 12 -25 -11z" />
    <path d="M3393 2583 c4 -3 10 -3 14 0 3 4 0 7 -7 7 -7 0 -10 -3 -7 -7z" />
    <path d="M3363 2573 c4 -3 10 -3 14 0 3 4 0 7 -7 7 -7 0 -10 -3 -7 -7z" />
    <path d="M3318 2563 c7 -3 16 -2 19 1 4 3 -2 6 -13 5 l-19 -1 13 -5z" />
    <path d="M1788 2553 c7 -3 16 -2 19 1 4 3 -2 6 -13 5 l-19 -1 13 -5z" />
    <path d="M1743 2543 c4 -3 10 -3 14 0 3 4 0 7 -7 7 -7 0 -10 -3 -7 -7z" />
    <path d="M1713 2533 c4 -3 10 -3 14 0 3 4 0 7 -7 7 -7 0 -10 -3 -7 -7z" />
    <path d="M1614 2478 l-7 -11 11 7 c12 7 16 16 8 16 -3 0 -8 -5 -12 -12z" />
    <path d="M1534 2398 l-7 -11 11 7 c12 7 16 16 8 16 -3 0 -8 -5 -12 -12z" />
    <path d="M1480 2300 c0 -7 3 -10 7 -7 3 4 3 10 0 14 -4 3 -7 0 -7 -7z" />
    <path d="M1470 2270 c0 -7 3 -10 7 -7 3 4 3 10 0 14 -4 3 -7 0 -7 -7z" />
    <path d="M1461 2224 l1 -19 5 13 c3 7 2 16 -1 19 -3 4 -6 -2 -5 -13z" />
  </g>
  <g transform="translate(0.000000,512.000000) scale(0.100000,-0.100000)" fill="#5d667a" stroke="none">
    <path d="M2140 4645 c-32 -18 -25 -18 25 0 l40 14 -20 0 c-11 0 -31 -6 -45
-14z" />
    <path d="M2255 4645 c50 -18 57 -18 25 0 -14 8 -34 14 -45 14 l-20 0 40 -14z" />
    <path d="M2072 4575 c-7 -14 -12 -34 -12 -43 1 -9 7 1 15 23 16 45 14 58 -3
20z" />
    <path d="M2331 4600 c-1 -3 6 -23 14 -45 l14 -40 0 20 c0 17 -28 80 -28 65z" />
    <path d="M2061 4485 c0 -11 6 -31 14 -45 18 -32 18 -25 0 25 l-14 40 0 -20z" />
    <path d="M2348 4480 c-3 -14 -9 -34 -12 -45 -4 -11 0 -7 9 8 9 16 15 36 13 45
l-4 17 -6 -25z" />
    <path d="M2140 4375 c14 -8 34 -14 45 -14 l20 0 -40 14 c-50 18 -57 18 -25 0z" />
    <path d="M2250 4374 l-35 -13 20 0 c11 0 31 6 45 14 31 17 17 17 -30 -1z" />
  </g>
  <g transform="translate(0.000000,512.000000) scale(0.100000,-0.100000)" fill="#6692a2" stroke="none">
    <path d="M2163 4653 c4 -3 10 -3 14 0 3 4 0 7 -7 7 -7 0 -10 -3 -7 -7z" />
    <path d="M2243 4653 c4 -3 10 -3 14 0 3 4 0 7 -7 7 -7 0 -10 -3 -7 -7z" />
    <path d="M2099 4613 l-24 -28 28 24 c25 23 32 31 24 31 -2 0 -14 -12 -28 -27z" />
    <path d="M2310 4615 c13 -14 26 -25 28 -25 3 0 -5 11 -18 25 -13 14 -26 25
-28 25 -3 0 5 -11 18 -25z" />
    <path d="M2060 4550 c0 -7 3 -10 7 -7 3 4 3 10 0 14 -4 3 -7 0 -7 -7z" />
    <path d="M2350 4550 c0 -7 3 -10 7 -7 3 4 3 10 0 14 -4 3 -7 0 -7 -7z" />
    <path d="M2060 4470 c0 -7 3 -10 7 -7 3 4 3 10 0 14 -4 3 -7 0 -7 -7z" />
    <path d="M2350 4470 c0 -7 3 -10 7 -7 3 4 3 10 0 14 -4 3 -7 0 -7 -7z" />
    <path d="M2100 4405 c13 -14 26 -25 28 -25 3 0 -5 11 -18 25 -13 14 -26 25
-28 25 -3 0 5 -11 18 -25z" />
    <path d="M2309 4403 l-24 -28 28 24 c25 23 32 31 24 31 -2 0 -14 -12 -28 -27z" />
    <path d="M2163 4363 c4 -3 10 -3 14 0 3 4 0 7 -7 7 -7 0 -10 -3 -7 -7z" />
    <path d="M2243 4363 c4 -3 10 -3 14 0 3 4 0 7 -7 7 -7 0 -10 -3 -7 -7z" />
  </g>
  <g transform="translate(0.000000,512.000000) scale(0.100000,-0.100000)" fill="#6ebbc0" stroke="none">
    <path d="M3590 2740 c0 -7 3 -10 7 -7 3 4 3 10 0 14 -4 3 -7 0 -7 -7z" />
    <path d="M3473 2623 c4 -3 10 -3 14 0 3 4 0 7 -7 7 -7 0 -10 -3 -7 -7z" />
  </g>
  <g transform="translate(0.000000,512.000000) scale(0.100000,-0.100000)" fill="#d1b816" stroke="none">
    <path d="M3539 2673 l-14 -18 18 14 c16 13 21 21 13 21 -2 0 -10 -8 -17 -17z" />
    <path d="M2863 753 c4 -3 10 -3 14 0 3 4 0 7 -7 7 -7 0 -10 -3 -7 -7z" />
    <path d="M2943 753 c4 -3 10 -3 14 0 3 4 0 7 -7 7 -7 0 -10 -3 -7 -7z" />
    <path d="M2814 728 l-7 -11 11 7 c7 4 12 9 12 12 0 8 -9 4 -16 -8z" />
    <path d="M2980 736 c0 -2 7 -7 16 -10 l15 -6 -6 10 c-6 10 -25 14 -25 6z" />
    <path d="M2785 699 c-4 -6 -5 -12 -2 -15 2 -3 7 2 10 11 7 17 1 20 -8 4z" />
    <path d="M3025 700 c3 -5 8 -10 11 -10 3 0 2 5 -1 10 -3 6 -8 10 -11 10 -3 0
-2 -4 1 -10z" />
    <path d="M2760 650 c0 -7 3 -10 7 -7 3 4 3 10 0 14 -4 3 -7 0 -7 -7z" />
    <path d="M3050 650 c0 -7 3 -10 7 -7 3 4 3 10 0 14 -4 3 -7 0 -7 -7z" />
    <path d="M2760 570 c0 -7 3 -10 7 -7 3 4 3 10 0 14 -4 3 -7 0 -7 -7z" />
    <path d="M3050 570 c0 -7 3 -10 7 -7 3 4 3 10 0 14 -4 3 -7 0 -7 -7z" />
    <path d="M2780 531 c0 -6 4 -13 10 -16 l10 -6 -6 15 c-7 18 -14 21 -14 7z" />
    <path d="M3024 518 l-7 -11 11 7 c7 4 12 9 12 12 0 8 -9 4 -16 -8z" />
    <path d="M2817 489 c7 -7 15 -10 18 -7 3 3 -2 9 -12 12 l-18 7 12 -12z" />
    <path d="M2990 490 l-15 -10 12 0 c6 0 15 5 18 10 8 12 4 12 -15 0z" />
    <path d="M2863 463 c4 -3 10 -3 14 0 3 4 0 7 -7 7 -7 0 -10 -3 -7 -7z" />
    <path d="M2943 463 c4 -3 10 -3 14 0 3 4 0 7 -7 7 -7 0 -10 -3 -7 -7z" />
  </g>
  <g transform="translate(0.000000,512.000000) scale(0.100000,-0.100000)" fill="#6f6746" stroke="none">
    <path d="M2873 753 c4 -3 10 -3 14 0 3 4 0 7 -7 7 -7 0 -10 -3 -7 -7z" />
    <path d="M2933 753 c4 -3 10 -3 14 0 3 4 0 7 -7 7 -7 0 -10 -3 -7 -7z" />
    <path d="M2975 740 c3 -5 8 -10 11 -10 3 0 2 5 -1 10 -3 6 -8 10 -11 10 -3 0
-2 -4 1 -10z" />
    <path d="M2799 713 l-14 -18 18 14 c9 7 17 15 17 17 0 8 -8 3 -21 -13z" />
    <path d="M3000 726 c0 -2 8 -10 18 -17 l17 -14 -14 18 c-13 16 -21 21 -21 13z" />
    <path d="M2774 678 l-7 -11 11 7 c7 4 12 9 12 12 0 8 -9 4 -16 -8z" />
    <path d="M2760 640 c0 -7 3 -10 7 -7 3 4 3 10 0 14 -4 3 -7 0 -7 -7z" />
    <path d="M3050 640 c0 -7 3 -10 7 -7 3 4 3 10 0 14 -4 3 -7 0 -7 -7z" />
    <path d="M2760 580 c0 -7 3 -10 7 -7 3 4 3 10 0 14 -4 3 -7 0 -7 -7z" />
    <path d="M3050 580 c0 -7 3 -10 7 -7 3 4 3 10 0 14 -4 3 -7 0 -7 -7z" />
    <path d="M2775 540 c3 -5 8 -10 11 -10 3 0 2 5 -1 10 -3 6 -8 10 -11 10 -3 0
-2 -4 1 -10z" />
    <path d="M2790 516 c0 -2 8 -10 18 -17 l17 -14 -14 18 c-13 16 -21 21 -21 13z" />
    <path d="M3009 503 l-14 -18 18 14 c9 7 17 15 17 17 0 8 -8 3 -21 -13z" />
    <path d="M2835 480 c3 -5 8 -10 11 -10 3 0 2 5 -1 10 -3 6 -8 10 -11 10 -3 0
-2 -4 1 -10z" />
    <path d="M2974 478 l-7 -11 11 7 c7 4 12 9 12 12 0 8 -9 4 -16 -8z" />
    <path d="M2873 463 c4 -3 10 -3 14 0 3 4 0 7 -7 7 -7 0 -10 -3 -7 -7z" />
    <path d="M2933 463 c4 -3 10 -3 14 0 3 4 0 7 -7 7 -7 0 -10 -3 -7 -7z" />
  </g>
  <g transform="translate(0.000000,512.000000) scale(0.100000,-0.100000)" fill="#9e8d2f" stroke="none" />
  <g transform="translate(0.000000,512.000000) scale(0.100000,-0.100000)" fill="#a7962a" stroke="none" />
</svg>